<?xml version="1.0" standalone="no"?><!DOCTYPE svg PUBLIC "-//W3C//DTD SVG 1.1//EN" "http://www.w3.org/Graphics/SVG/1.1/DTD/svg11.dtd"><svg t="1597610500702" class="icon" viewBox="0 0 1024 1024" version="1.1" xmlns="http://www.w3.org/2000/svg" p-id="1616" xmlns:xlink="http://www.w3.org/1999/xlink" width="200" height="200"><defs><style type="text/css"></style></defs><path d="M964.040544 682.873786a403.883495 403.883495 0 0 0-108.116505-207.223301c12.427184-113.398058-33.242718-133.592233-33.242719-133.592233-9.631068-351.68932-283.339806-341.747573-289.242718-341.747572s-316.582524-9.631068-326.213592 341.747572c0 0-45.669903 20.194175-33.242719 133.592233a403.883495 403.883495 0 0 0-108.116505 207.223301s-10.873786 211.262136 100.038835 25.786408a601.786408 601.786408 0 0 0 70.524272 133.902913s-81.708738 28.893204-74.873786 103.45631c0 0-2.796117 83.572816 174.912621 77.669903 0 0 124.271845-9.941748 162.174757-64.621359H531.574524c37.592233 54.679612 162.174757 64.621359 162.174758 64.621359 177.708738 5.902913 174.912621-77.669903 174.912621-77.669903 6.834951-74.563107-74.873786-103.456311-74.873786-103.45631a601.786408 601.786408 0 0 0 70.524271-133.902913c110.912621 186.407767 99.728155-25.786408 99.728156-25.786408" p-id="1617"></path></svg>