<?xml version="1.0" standalone="no"?><!DOCTYPE svg PUBLIC "-//W3C//DTD SVG 1.1//EN" "http://www.w3.org/Graphics/SVG/1.1/DTD/svg11.dtd"><svg t="1597610488062" class="icon" viewBox="0 0 1024 1024" version="1.1" xmlns="http://www.w3.org/2000/svg" p-id="880" xmlns:xlink="http://www.w3.org/1999/xlink" width="200" height="200"><defs><style type="text/css"></style></defs><path d="M510.391 795.149s-259.017 159.27-275.104 146.399c-16.090-12.87 53.090-308.889 53.090-308.889s-231.666-194.663-222.015-218.796c9.653-24.132 307.279-45.045 307.279-45.045s111.006-279.93 136.749-279.93c27.348 0 136.749 279.93 136.749 279.93s299.236 20.914 307.279 45.045c8.043 24.132-222.015 218.796-222.015 218.796s3.219 19.305 6.434 32.174c0 1.609-107.79 3.219-196.274 0-46.657-1.609-102.962-11.263-102.962-11.263l255.797-183.403s-91.7-16.090-186.621-20.914c-102.962-3.219-207.534 6.434-222.015 9.653-9.653 1.609 65.962 1.609 152.836 9.653 61.134 4.827 139.964 20.914 139.964 20.914l-255.797 191.446s51.483 9.653 233.277 4.827 242.926-17.696 242.926-17.696-12.87 6.434-25.741 9.653c-14.478 3.219-28.959 8.043-28.959 8.043 19.305 85.266 53.090 239.712 40.22 252.582-19.305 20.914-275.104-143.184-275.104-143.184z" fill="" p-id="881"></path></svg>