<?xml version="1.0" standalone="no"?><!DOCTYPE svg PUBLIC "-//W3C//DTD SVG 1.1//EN" "http://www.w3.org/Graphics/SVG/1.1/DTD/svg11.dtd"><svg t="1597610619995" class="icon" viewBox="0 0 1024 1024" version="1.1" xmlns="http://www.w3.org/2000/svg" p-id="5379" xmlns:xlink="http://www.w3.org/1999/xlink" width="200" height="200"><defs><style type="text/css"></style></defs><path d="M919.808 298.432c0 277.632-211.328 597.76-597.76 597.76A594.56 594.56 0 0 1 0 801.792a421.504 421.504 0 0 0 311.04-87.04A210.304 210.304 0 0 1 114.816 568.96a210.432 210.432 0 0 0 94.848-3.584 210.176 210.176 0 0 1-168.512-206.08v-2.56a208.64 208.64 0 0 0 95.168 26.24A209.92 209.92 0 0 1 42.88 208.064c0-38.464 10.368-74.56 28.416-105.6a596.608 596.608 0 0 0 433.024 219.52 210.048 210.048 0 0 1 358.016-191.616 421.184 421.184 0 0 0 133.376-50.944 210.688 210.688 0 0 1-92.352 116.16A420.864 420.864 0 0 0 1024 162.56a426.752 426.752 0 0 1-104.832 108.736c0.448 8.96 0.64 18.048 0.64 27.136z" fill="#515151" p-id="5380"></path></svg>