<?xml version="1.0" standalone="no"?><!DOCTYPE svg PUBLIC "-//W3C//DTD SVG 1.1//EN" "http://www.w3.org/Graphics/SVG/1.1/DTD/svg11.dtd"><svg t="1597610528579" class="icon" viewBox="0 0 1024 1024" version="1.1" xmlns="http://www.w3.org/2000/svg" p-id="3203" xmlns:xlink="http://www.w3.org/1999/xlink" width="200" height="200"><defs><style type="text/css"></style></defs><path d="M541.76 311.637333 283.946667 54.72c-9.856 4.906667-19.541333 10.048-28.970667 15.509333C217.002667 91.968 181.226667 118.826667 148.906667 151.018667c-13.973333 13.845333-26.666667 28.373333-38.506667 43.221333-29.12 36.522667-52.522667 76.096-70.165333 117.482667C40.234667 311.722667 526.208 309.162667 541.76 311.637333z" p-id="3204"></path><path d="M391.722667 348.16 27.093333 348.16c-3.52 10.197333-6.634667 20.714667-9.536 31.296C6.186667 421.504 0 465.685333 0 511.36c0 19.52 1.216 38.741333 3.434667 57.642667 5.248 46.378667 16.853333 90.773333 33.813333 132.416C37.248 701.418667 378.965333 357.248 391.722667 348.16z" p-id="3205"></path><path d="M970.24 282.432c-4.842667-9.664-10.005333-19.328-15.488-28.821333-21.888-37.717333-48.768-73.408-81.173333-105.621333-13.845333-13.781333-28.373333-26.56-43.349333-38.378667-36.672-28.992-76.330667-52.330667-117.866667-69.866667 0 0 2.581333 484.138667 0 499.562667L970.24 282.432z" p-id="3206"></path><path d="M676.565333 390.336 676.565333 27.072c-10.304-3.477333-20.864-6.656-31.445333-9.6C602.965333 6.208 558.592 0 512.725333 0c-19.605333 0-38.869333 1.216-57.877333 3.413333-46.485333 5.248-91.050667 16.853333-132.970667 33.642667C321.877333 37.056 667.285333 377.664 676.565333 390.336z" p-id="3207"></path><path d="M311.146667 482.090667 53.418667 739.008c4.778667 9.834667 10.048 19.370667 15.488 28.885333 21.781333 37.781333 48.746667 73.472 81.173333 105.706667 13.824 13.802667 28.373333 26.474667 43.349333 38.378667 36.672 29.056 76.245333 52.288 117.866667 69.802667C311.296 981.76 308.650667 497.621333 311.146667 482.090667z" p-id="3208"></path><path d="M479.744 714.282667l257.877333 256.917333c9.749333-4.885333 19.413333-10.048 28.992-15.509333 37.781333-21.696 73.536-48.490667 106.005333-80.832 13.781333-13.76 26.538667-28.202667 38.485333-43.157333 29.056-36.544 52.522667-75.989333 70.101333-117.461333C981.162667 714.24 495.317333 716.885333 479.744 714.282667z" p-id="3209"></path><path d="M1020.544 455.189333c-5.312-46.314667-16.832-90.752-33.770667-132.458667 0 0-341.781333 344.149333-354.56 353.344l364.629333 0c3.456-10.282667 6.634667-20.8 9.493333-31.338667C1017.770667 602.645333 1024 558.592 1024 512.896 1024 493.354667 1022.741333 474.112 1020.544 455.189333z" p-id="3210"></path><path d="M347.456 633.6l0 363.306667c10.346667 3.498667 20.864 6.656 31.424 9.493333C421.098667 1017.856 465.408 1024 511.274667 1024c19.541333 0 38.848-1.216 57.770667-3.434667 46.549333-5.269333 91.050667-16.725333 132.906667-33.6C702.016 986.965333 356.650667 646.4 347.456 633.6z" p-id="3211"></path></svg>