<?xml version="1.0" encoding="utf-8"?>
<!-- Generator: Adobe Illustrator 16.0.0, SVG Export Plug-In . SVG Version: 6.00 Build 0)  -->
<!DOCTYPE svg PUBLIC "-//W3C//DTD SVG 1.1//EN" "http://www.w3.org/Graphics/SVG/1.1/DTD/svg11.dtd">
<svg version="1.1" id="Group_1_1_" xmlns="http://www.w3.org/2000/svg" xmlns:xlink="http://www.w3.org/1999/xlink" x="0px" y="0px"
	 width="480px" height="230.4px" viewBox="0 0 480 230.4" enable-background="new 0 0 480 230.4" xml:space="preserve">
<g id="Layer_4_xA0_Image_1_">
	<g>
		<g>
			<path fill-rule="evenodd" clip-rule="evenodd" fill="#FEFEFE" d="M234.121,0.24c70.08,0,140.16,0.002,210.24-0.022
				c0.899,0,1.103,0.203,1.103,1.102c-0.024,66.16-0.024,132.32,0,198.48c0,0.9-0.203,1.103-1.103,1.103
				c-140.16-0.023-280.321-0.023-420.481,0c-0.899,0-1.103-0.202-1.102-1.103c0.024-66.16,0.024-132.32,0-198.48
				c0-0.899,0.203-1.103,1.102-1.102C93.96,0.242,164.04,0.24,234.121,0.24z M412.916,41.523c0.8,0,1.6,0.004,2.399-0.001
				c0.703-0.005,0.998,0.234,0.516,0.891c-0.541,0.737-1.041,1.521-1.675,2.17c-4.694,4.807-9.421,9.581-14.13,14.374
				c-2.595,2.642-5.585,4.605-9.096,5.889c-6.776,2.477-11.392,6.988-12.851,14.305c-0.41,2.056,0.142,3.502,1.966,4.529
				c1.974,1.111,4.092,1.567,6.378,1.547c4.771-0.041,9.268-3.134,10.54-8.033c0.71-2.731,1.737-5.339,3.225-7.737
				c2.211-3.564,4.867-6.794,7.673-9.898c1.661-1.837,3.413-3.592,5.126-5.383c0.43-0.448,0.936-0.809,1.574-0.617
				c0.645,0.194,0.696,0.82,0.741,1.377c0.147,1.827,0.229,3.66,0.415,5.483c0.604,5.928-0.223,11.666-2.547,17.124
				c-2.4,5.636-3.621,11.463-3.482,17.575c0.074,3.223,0.517,6.402,1.153,9.568c2.22,11.039,7.503,20.659,13.753,29.826
				c1.275,1.869,3.089,1.708,4.318-0.218c1.031-1.617,1.568-3.451,2.107-5.259c3.01-10.093,4.245-20.472,4.806-30.944
				c0.271-5.071,0.128-10.15,0.017-15.226c-0.07-3.197-0.659-6.172-3.335-8.329c-1.058-0.853-2.268-1.435-3.445-2.084
				c-4.056-2.238-6.321-5.639-6.677-10.301c-0.19-2.499-0.365-5.009-0.763-7.479c-0.563-3.497,0.208-6.631,2.246-9.441
				c4.01-5.528,8.141-10.969,11.882-16.687c1.806-2.76,1.551-4.88-0.744-7.267c-1.199-1.248-2.05-1.229-3.139,0.131
				c-2.364,2.953-4.741,5.896-7.046,8.894c-1.615,2.102-3.387,4.136-6.185,4.19c-3.438,0.066-6.838,0.615-10.275,0.553
				c-4.256-0.076-7.665-1.747-10.151-5.238c-0.555-0.778-1.107-1.559-1.891-2.144c-7.205-5.377-15.354-8.066-24.284-8.442
				c-4.475-0.189-8.911,0.387-13.289,1.224c-9.192,1.757-17.795,5.17-25.996,9.63c-0.66,0.359-1.241,0.858-1.879,1.262
				c-0.442,0.279-0.441,0.532-0.172,0.97c0.54,0.877,1.275,1.53,2.131,2.052c7.46,4.555,14.961,9.032,23.085,12.351
				c8.117,3.315,16.399,5.843,25.303,5.615c4.812-0.123,9.222-1.496,13.046-4.413C399.792,43.696,406.004,41.619,412.916,41.523z
				 M209.984,92.604c-4.155-0.126-8.317-0.062-12.464-0.412c-0.873-0.074-1.155,0.135-0.914,1.013
				c0.211,0.768,0.373,1.556,0.478,2.345c0.105,0.786,0.478,0.995,1.26,0.992c2.398-0.011,4.803,0.07,7.164,0.534
				c2.978,0.584,4.135,1.856,4.26,4.88c0.123,2.954,0.068,5.916,0.094,8.874c0.025,2.774-1.276,4.794-3.55,6.266
				c-1.146,0.741-2.375,1.303-3.672,1.726c-3.948,1.289-8.021,1.435-12.1,1.138c-8.162-0.593-14.739-4.074-19.428-10.926
				c-6.725-9.828-8.05-25.896-2.931-36.724c3.341-7.066,8.445-12.222,16.232-14.118c6.344-1.545,12.683-1.232,18.912,0.801
				c6.028,1.968,9.79,5.933,10.905,12.28c0.338,1.927,0.405,1.876,2.305,1.993c0.677,0.042,0.837-0.21,0.862-0.787
				c0.04-0.879,0.141-1.754,0.174-2.633c0.157-4.152,0.464-8.305-0.112-12.452c-0.12-0.86-0.482-1.261-1.389-1.423
				c-3.614-0.646-7.21-1.399-10.816-2.091c-7.487-1.438-15.002-1.941-22.48-0.09c-12.13,3.003-21.046,9.967-25.715,21.752
				c-2.748,6.937-2.937,14.216-1.741,21.492c1.827,11.123,7.724,19.363,17.958,24.3c4.74,2.286,9.828,3.279,15.054,3.579
				c9.404,0.54,18.448-0.852,27.09-4.792c2.319-1.058,3.673-2.313,3.297-4.977c-0.088-0.624,0.043-1.276,0.049-1.916
				c0.041-3.998,0.004-7.999,0.134-11.994c0.1-3.086,1.238-4.188,4.154-4.534c1.016-0.121,2.493,0.259,2.923-0.439
				c0.412-0.669-0.276-1.966-0.349-2.996c-0.068-0.964-0.503-1.139-1.38-1.072C219.502,92.552,214.742,92.521,209.984,92.604z
				 M94.09,123.826c-0.304-1.234-0.617-2.309-0.821-3.403c-0.135-0.723-0.452-0.947-1.188-0.959
				c-2.798-0.045-4.856-1.306-6.153-3.836c-0.765-1.494-1.531-2.982-2.158-4.539c-7.25-17.981-14.497-35.963-21.748-53.943
				c-0.447-1.108-0.646-2.626-1.477-3.184c-0.835-0.56-2.32-0.101-3.512-0.196c-0.874-0.07-1.237,0.265-1.534,1.067
				c-5.523,14.927-11.063,29.849-16.637,44.757c-1.648,4.407-3.109,8.889-5.051,13.182c-1.541,3.407-4.168,5.487-7.852,6.195
				c-0.858,0.165-1.727,0.273-2.642,0.415c0.248,1.186,0.531,2.344,0.721,3.516c0.128,0.794,0.494,0.99,1.276,0.942
				c5.271-0.326,10.546-0.423,15.825-0.216c1.998,0.078,3.998,0.117,5.995,0.217c0.715,0.035,1.055-0.06,0.775-0.895
				c-0.304-0.905-0.53-1.842-0.728-2.777c-0.133-0.629-0.375-0.911-1.088-0.954c-1.271-0.076-2.539-0.261-3.778-0.608
				c-3.323-0.932-4.414-2.879-3.28-6.151c1.437-4.146,2.963-8.261,4.441-12.393c0.174-0.488,0.38-0.773,0.999-0.771
				c7.719,0.024,15.439,0.019,23.158,0.009c0.485-0.001,0.804,0.087,1.019,0.596c2.215,5.255,4.63,10.429,6.525,15.816
				c0.573,1.631,0.175,2.454-1.46,3.061c-1.514,0.562-3.105,0.726-4.711,0.76c-1.707,0.036-1.705,0.039-1.371,1.661
				c0.112,0.548,0.246,1.094,0.309,1.647c0.086,0.762,0.379,1.051,1.225,0.975c6.384-0.571,12.779-0.589,19.177-0.253
				C90.219,123.663,92.092,123.736,94.09,123.826z M115.014,87.817c0-9.12-0.001-18.24,0.002-27.359
				c0-1.336,0.478-1.984,1.755-2.108c4.31-0.419,8.633-0.628,12.876,0.473c4.388,1.139,7.936,3.356,9.436,7.964
				c0.449,1.38,0.618,2.803,0.737,4.239c0.586,7.07-3.075,12.909-9.693,15.458c-3.824,1.474-7.8,1.574-11.815,1.3
				c-0.377-0.025-0.764-0.274-0.958,0.328c-0.583,1.802,0.655,3.845,2.53,4.066c4.338,0.512,8.62,0.084,12.848-0.911
				c4.506-1.061,8.663-2.875,11.934-6.253c3.828-3.952,4.824-8.895,4.551-14.179c-0.34-6.591-3.148-11.608-9.343-14.461
				c-4.557-2.099-9.366-2.938-14.325-2.925c-9.036,0.024-18.07,0.572-27.106,0.057c-0.875-0.05-0.898,0.31-0.747,0.966
				c0.198,0.855,0.383,1.716,0.521,2.583c0.098,0.611,0.394,0.841,1.012,0.894c1.153,0.098,2.31,0.236,3.442,0.464
				c2.778,0.56,3.368,1.319,3.368,4.162c0,17.439,0.001,34.879-0.004,52.319c0,0.518-0.033,1.037-0.091,1.552
				c-0.166,1.461-0.992,2.312-2.44,2.539c-1.341,0.21-2.684,0.409-4.03,0.59c-1.646,0.222-1.647,0.211-1.357,1.806
				c0.093,0.511,0.248,1.021,0.256,1.534c0.015,0.979,0.447,1.236,1.408,1.213c7.876-0.195,15.752-0.409,23.632-0.116
				c1.014,0.038,2.439,0.507,2.946-0.183c0.498-0.678-0.375-1.935-0.478-2.96c-0.093-0.941-0.557-1.141-1.416-1.115
				c-2.162,0.064-4.319-0.081-6.438-0.538c-1.655-0.357-2.692-1.346-2.883-3.086c-0.07-0.634-0.125-1.273-0.126-1.91
				C115.011,105.417,115.014,96.617,115.014,87.817z M285.351,53.819c0.295,1.215,0.58,2.253,0.791,3.306
				c0.144,0.717,0.431,1.075,1.24,1.078c2.8,0.01,4.72,1.424,6.009,3.854c0.822,1.55,1.718,3.059,2.329,4.715
				c6.611,17.924,13.228,35.846,19.849,53.766c0.399,1.081,0.563,2.492,1.342,3.123c0.795,0.643,2.232,0.081,3.376,0.204
				c0.945,0.102,1.373-0.229,1.71-1.14c5.838-15.787,11.709-31.561,17.595-47.33c1.324-3.548,2.496-7.157,4.074-10.607
				c1.563-3.418,4.131-5.627,7.854-6.397c0.852-0.176,1.718-0.285,2.62-0.432c-0.225-1.011-0.501-1.975-0.639-2.958
				c-0.137-0.981-0.541-1.281-1.564-1.204c-6.509,0.49-13.023,0.349-19.537,0.089c-0.955-0.038-2.403-0.394-2.754,0.063
				c-0.528,0.69,0.324,1.83,0.526,2.793c0.041,0.195,0.101,0.387,0.139,0.583c0.104,0.531,0.364,0.751,0.96,0.795
				c1.795,0.134,3.578,0.407,5.209,1.243c1.891,0.97,2.621,2.456,2.245,4.545c-0.105,0.586-0.251,1.173-0.454,1.731
				c-4.937,13.61-9.883,27.217-14.83,40.823c-0.331,0.909-0.684,1.81-1.113,2.946c-0.235-0.579-0.372-0.899-0.497-1.224
				c-5.811-15.157-11.62-30.315-17.432-45.472c-0.909-2.369-0.337-3.499,2.162-4.116c1.557-0.384,3.15-0.559,4.755-0.51
				c0.682,0.021,0.827-0.229,0.683-0.84c-0.221-0.932-0.428-1.869-0.592-2.812c-0.1-0.569-0.39-0.659-0.914-0.613
				c-6.824,0.592-13.657,0.56-20.493,0.211C288.488,53.957,286.977,53.894,285.351,53.819z M134.815,151.384
				c0.007-0.061,0.014-0.122,0.02-0.183c0.378,0,0.756,0,1.134,0c4.559,0,9.119,0.001,13.678-0.001
				c0.359-0.001,0.723,0.013,1.077-0.038c0.402-0.058,0.799-0.208,0.98-0.606c0.235-0.519-0.268-0.702-0.539-0.932
				c-1.767-1.501-3.576-2.953-5.326-4.472c-0.566-0.491-0.817-0.316-1.183,0.199c-0.81,1.141-1.723,2.209-2.501,3.368
				c-0.438,0.654-0.941,0.821-1.688,0.815c-4.439-0.032-8.886-0.181-13.315,0.03c-4.561,0.217-8.879-0.402-13.017-2.362
				c-1.297-0.614-1.33-0.518-1.346,0.969c-0.121,10.871,0.424,21.759-0.717,32.606c-0.659,6.264-1.944,12.378-4.562,18.156
				c-0.15,0.331-0.703,0.719-0.143,1.12c0.583,0.419,0.861-0.186,1.172-0.483c2.443-2.347,4.405-5.054,5.944-8.069
				c3.399-6.662,4.496-13.85,4.797-21.209c0.246-5.995,0.12-11.995,0.106-17.994c-0.002-0.903,0.226-1.137,1.124-1.12
				c3.198,0.058,6.4,0.077,9.597-0.008c1.1-0.029,1.245,0.359,1.125,1.293c-0.198,1.545-0.294,3.103-0.444,4.654
				c-0.14,1.459-0.374,1.637-1.815,1.347c-0.348-0.069-0.683-0.217-1.016-0.351c-1.553-0.628-3.113-1.24-4.65-1.906
				c-0.641-0.277-0.898-0.278-0.896,0.548c0.023,7.559,0.02,15.117,0.001,22.676c-0.001,0.616,0.153,0.836,0.798,0.824
				c1.677-0.031,3.236-0.445,4.686-1.272c0.337-0.192,0.779-0.389,0.724-0.865c-0.094-0.812,0.388-0.791,0.944-0.762
				c0.438,0.023,0.886,0.055,1.318-0.006c0.879-0.122,1.143,0.168,1.131,1.092c-0.056,4.278-0.023,8.558-0.025,12.837
				c-0.001,1.588-0.114,1.713-1.721,1.659c-1.558-0.053-3.115-0.158-4.672-0.228c-0.252-0.011-0.595-0.134-0.666,0.288
				c-0.063,0.371,0.196,0.48,0.487,0.549c0.233,0.055,0.469,0.1,0.7,0.16c2.703,0.704,3.871,2.062,4.184,4.861
				c0.221,1.969,0.221,1.969,2.229,1.604c0.039-0.007,0.08-0.008,0.119-0.015c3.852-0.729,5.716-2.655,5.854-6.569
				c0.167-4.713,0.085-9.435,0.104-14.153c0.008-2.081,0.004-2.011,2.043-2.104c1.064-0.049,1.345,0.335,1.179,1.275
				c-0.146,0.82,0.242,0.994,0.996,0.969c1.542-0.051,2.986-0.448,4.421-0.975c0.792-0.291,1.066-0.733,1.058-1.599
				c-0.047-4.679,0.003-9.358-0.041-14.037c-0.01-1.095-0.041-1.99,1.34-2.295c0.812-0.179,0.842-0.644,0.089-1.181
				c-1.627-1.158-3.214-2.376-4.78-3.617c-0.53-0.421-0.907-0.422-1.258,0.133c-1.429,2.258-3.513,2.848-6.048,2.529
				c-1.142-0.144-2.317-0.013-3.476-0.033c-0.283-0.005-0.633,0.154-0.928-0.297c2.269-1.242,3.392-3.923,6.085-4.631
				c0.317-0.083,0.687-0.426,0.603-0.806c-0.071-0.326-0.514-0.295-0.817-0.367C137.655,152.063,136.235,151.724,134.815,151.384z
				 M266.602,53.521c-3.998,0-7.995,0.012-11.993-0.011c-0.676-0.004-1.063,0.005-0.778,0.882c0.281,0.868,0.433,1.787,0.547,2.696
				c0.077,0.606,0.354,0.791,0.919,0.845c1.152,0.109,2.308,0.237,3.445,0.445c2.729,0.5,3.33,1.251,3.33,4.034
				c0.001,17.596,0.001,35.191-0.001,52.787c0,0.44,0.02,0.883-0.03,1.319c-0.14,1.229-0.701,2.106-2.023,2.319
				c-1.261,0.203-2.517,0.441-3.779,0.627c-1.019,0.149-2.451-0.175-2.951,0.514c-0.499,0.688,0.295,1.961,0.345,2.987
				c0.051,1.051,0.554,1.18,1.456,1.156c6.995-0.179,13.989-0.381,20.987-0.068c1.089,0.049,2.721,0.563,3.147-0.188
				c0.438-0.771-0.295-2.188-0.469-3.329c-0.085-0.564-0.313-0.782-0.909-0.824c-1.073-0.074-2.143-0.245-3.207-0.419
				c-2.963-0.481-3.548-1.179-3.548-4.189c-0.001-17.516-0.001-35.032,0.001-52.547c0-0.479,0.019-0.959,0.048-1.438
				c0.079-1.28,0.722-2.093,2.007-2.318c1.298-0.228,2.602-0.419,3.901-0.631c0.978-0.16,2.434,0.199,2.818-0.496
				c0.394-0.712-0.223-1.961-0.339-2.981c-0.1-0.879-0.406-1.225-1.412-1.202C274.278,53.575,270.439,53.524,266.602,53.521z
				 M257.89,158.168c0.112-0.04,0.225-0.08,0.337-0.12c-0.087,1.313,0.643,1.396,1.597,1.384c3.439-0.045,6.88,0.01,10.319-0.037
				c0.836-0.012,1.077,0.213,1.069,1.061c-0.042,4.559-0.052,9.119,0.006,13.679c0.012,0.95-0.297,1.097-1.146,1.086
				c-3.68-0.046-7.359-0.026-11.039-0.005c-0.268,0.001-0.858-0.279-0.751,0.376c0.109,0.668,0.16,1.353,1.251,1.328
				c3.558-0.081,7.119-0.008,10.678-0.049c0.778-0.009,1.004,0.197,0.999,0.99c-0.034,5.719-0.046,11.439,0.009,17.158
				c0.009,0.977-0.342,1.077-1.165,1.071c-4.64-0.036-9.279-0.021-13.919-0.011c-0.338,0.001-0.817-0.19-0.988,0.153
				c-0.198,0.401,0.082,0.871,0.259,1.254c0.237,0.516,0.78,0.262,1.179,0.263c12.438,0.014,24.878,0.012,37.317,0.009
				c0.437,0,0.88,0.057,1.301-0.131c0.746-0.33,1.054-0.702,0.263-1.364c-1.9-1.592-3.786-3.201-5.65-4.835
				c-0.473-0.414-0.726-0.432-1.105,0.117c-0.865,1.248-1.846,2.416-2.693,3.674c-0.462,0.686-0.995,0.897-1.79,0.87
				c-1.598-0.056-3.201-0.068-4.798,0.004c-0.857,0.039-1.053-0.229-1.048-1.061c0.038-5.679,0.04-11.358-0.001-17.038
				c-0.006-0.875,0.179-1.144,1.103-1.131c3.999,0.058,7.999,0.027,11.999,0.021c0.475-0.001,0.96,0.06,1.413-0.171
				c0.63-0.319,0.88-0.679,0.225-1.243c-1.789-1.538-3.571-3.084-5.345-4.64c-0.347-0.305-0.603-0.324-0.868,0.082
				c-0.195,0.301-0.423,0.582-0.64,0.868c-0.844,1.112-1.474,2.665-2.595,3.214c-1.168,0.573-2.813,0.128-4.244,0.224
				c-0.856,0.057-1.056-0.22-1.047-1.054c0.043-4.52,0.056-9.04-0.007-13.559c-0.015-1.047,0.324-1.227,1.279-1.215
				c4.359,0.052,8.72,0.026,13.079,0.018c0.517-0.002,1.056,0.009,1.545-0.129c0.845-0.236,0.949-0.759,0.29-1.331
				c-1.812-1.573-3.66-3.104-5.454-4.696c-0.558-0.495-0.815-0.339-1.193,0.186c-0.865,1.199-1.824,2.33-2.678,3.537
				c-0.396,0.562-0.841,0.724-1.499,0.718c-3.359-0.028-6.72-0.013-10.079-0.013c-4.88,0-9.76-0.018-14.639,0.017
				c-0.802,0.006-0.986-0.189-0.7-0.933c0.287-0.743,0.512-1.511,0.739-2.275c0.102-0.343,0.461-0.761-0.143-1.001
				c-0.601-0.239-0.646,0.301-0.798,0.627c-0.777,1.663-1.526,3.339-2.305,5.001c-3.314,7.082-6.473,14.237-9.914,21.262
				c-0.925,1.888-2.057,2.924-4.233,2.527c-0.312-0.057-0.914-0.343-0.997,0.435c-0.078,0.731,0.381,0.694,0.877,0.778
				c2.234,0.377,2.934,1.174,3.277,3.458c0.448,2.97,0.091,5.904-0.305,8.837c-0.332,2.467,1.302,4.203,3.779,3.968
				c2.543-0.242,4.275-2.089,4.456-4.665c0.184-2.629-0.473-5.078-1.547-7.428c-0.87-1.904-0.93-3.827-0.521-5.848
				c1.103-5.453,2.963-10.685,4.578-15.987C256.113,163.682,257.015,160.929,257.89,158.168z M382.605,163.219
				c0.146,1.33,0.693,1.753,1.997,1.478c1.714-0.361,3.489-0.421,5.225-0.694c0.778-0.123,1.091-0.039,1.222,0.856
				c0.92,6.263,2.399,12.382,5.031,18.17c0.341,0.749,0.316,1.25-0.172,1.918c-3.556,4.855-7.81,8.979-12.759,12.396
				c-0.319,0.221-0.857,0.357-0.548,0.99c0.334,0.683,0.742,0.243,1.082,0.089c5.201-2.366,9.978-5.384,14.163-9.299
				c0.286-0.269,0.583-0.526,0.926-0.836c1.831,2.875,3.851,5.498,6.199,7.86c1.63,1.639,3.475,2.944,5.69,3.658
				c1.358,0.438,2.729,0.588,4.092-0.04c1.116-0.516,1.642-1.324,1.443-2.585c-0.201-1.289-0.756-2.437-1.374-3.553
				c-0.344-0.62-0.493-1.204-0.375-1.927c0.433-2.642,0.817-5.291,1.176-7.942c0.058-0.423,0.408-1.084-0.137-1.278
				c-0.649-0.232-0.64,0.554-0.828,0.929c-1.038,2.069-2.032,4.16-3.231,6.145c-0.467,0.774-0.968,1.141-1.8,0.401
				c-2.166-1.926-4.041-4.089-5.606-6.531c-0.33-0.516-0.312-0.858,0.047-1.364c2.79-3.921,5.017-8.153,6.894-12.579
				c0.467-1.1,0.613-2.568,2.44-2.297c0.305,0.046,0.748-0.279,0.766-0.652c0.021-0.453-0.489-0.42-0.793-0.533
				c-2.204-0.825-4.424-1.611-6.619-2.458c-0.706-0.272-1-0.218-1.219,0.605c-0.699,2.622-1.568,5.195-2.595,7.709
				c-0.64,1.567-1.228,3.164-2.223,4.804c-1.609-4.362-2.569-8.655-3.115-13.051c-0.093-0.749,0.445-0.606,0.849-0.656
				c4.64-0.572,9.281-1.137,13.921-1.712c0.99-0.123,1.979-0.269,2.965-0.428c0.466-0.075,0.824-0.362,0.974-0.801
				c0.193-0.566-0.386-0.631-0.672-0.822c-1.692-1.134-3.434-2.196-5.106-3.358c-0.732-0.509-1.049-0.309-1.445,0.38
				c-0.678,1.176-1.465,2.288-2.178,3.443c-0.25,0.404-0.532,0.616-1.033,0.673c-2.501,0.281-5,0.59-7.493,0.934
				c-0.793,0.109-1.125-0.054-1.19-0.939c-0.275-3.71-0.521-7.42-0.471-11.143c0.016-1.16-0.41-2.523,1.423-2.818
				c0.398-0.064,0.776-0.578,0.655-1.024c-0.096-0.358-0.624-0.255-0.96-0.29c-2.385-0.249-4.777-0.434-7.158-0.723
				c-0.77-0.093-0.942,0.089-0.939,0.842c0.02,5.402,0.241,10.793,0.886,16.16c0.078,0.651,0.007,0.898-0.715,0.976
				C387.494,162.558,385.082,162.9,382.605,163.219z M167.511,158.64c0.159,1.735,0.159,1.735,1.73,1.735c0.759,0,1.519,0,2.279,0
				c2.618,0,2.674,0.01,2.229,2.606c-1.329,7.739-3.243,15.298-7.112,22.226c-0.22,0.394-0.476,0.743,0.06,1.113
				c0.555,0.384,0.71-0.169,0.942-0.397c2.654-2.622,4.992-5.5,6.974-8.665c0.143-0.228,0.162-0.623,0.625-0.618
				c0,0.459,0,0.897,0,1.335c0,7.116,0.02,14.232-0.023,21.349c-0.005,0.926,0.261,1.133,1.14,1.108
				c1.551-0.043,2.994-0.41,4.384-1.064c0.833-0.392,1.214-0.943,1.209-1.955c-0.044-9.635-0.026-19.269-0.026-28.903
				c0-0.411,0-0.821,0-1.231c1.335,2.237,2.088,4.604,2.361,7.119c0.039,0.354,0.042,0.678,0.349,0.967
				c1.742,1.644,4.529,0.912,5.205-1.391c0.481-1.639-0.048-3.072-0.969-4.398c-1.076-1.55-2.499-2.864-4.233-3.412
				c-2.538-0.802-3.035-2.375-2.76-4.723c0.107-0.919,0.334-1.13,1.182-1.081c1.195,0.067,2.398,0.021,3.597,0.016
				c1.159-0.007,2.318-0.014,3.477-0.044c0.466-0.013,0.883-0.223,1.057-0.664c0.172-0.437-0.281-0.621-0.519-0.848
				c-1.33-1.27-2.676-2.521-4.028-3.768c-1.109-1.021-1.115-1.013-2.01,0.229c-0.817,1.133-1.638,2.264-2.457,3.395
				c-0.251-3.451-0.247-6.759-0.254-10.066c-0.002-1.048-0.254-2.218,1.382-2.28c0.166-0.006,0.34-0.199,0.48-0.337
				c0.202-0.199,0.366-0.451,0.316-0.745c-0.068-0.407-0.433-0.264-0.679-0.29c-2.224-0.24-4.448-0.482-6.675-0.692
				c-1.501-0.143-1.504-0.12-1.504,1.339c0,4.038-0.018,8.076,0.016,12.113c0.006,0.72-0.158,0.962-0.919,0.943
				C172.064,158.605,169.791,158.64,167.511,158.64z M344.873,184.142c0,4.997,0.015,9.994-0.016,14.99
				c-0.004,0.769,0.086,1.127,1.006,1.11c1.806-0.033,3.466-0.474,5.03-1.347c0.829-0.462,1.221-1.059,1.216-2.104
				c-0.049-9.194-0.013-18.39-0.052-27.584c-0.004-0.96,0.265-1.187,1.194-1.175c4.116,0.051,8.234,0.023,12.353,0.019
				c0.479,0,0.961-0.012,1.435-0.07c0.411-0.052,0.79-0.253,0.927-0.666c0.148-0.446-0.297-0.611-0.543-0.824
				c-1.481-1.28-2.973-2.55-4.481-3.798c-1.91-1.578-2.119-1.683-3.354,0.46c-1.496,2.599-3.434,3.66-6.404,3.223
				c-0.966-0.142-1.125-0.384-1.119-1.244c0.033-5.356,0.024-10.713,0.01-16.07c-0.003-1.023-0.206-2.104,1.309-2.23
				c0.17-0.014,0.348-0.197,0.478-0.342c0.211-0.233,0.473-0.496,0.326-0.841c-0.138-0.324-0.489-0.18-0.746-0.207
				c-2.503-0.26-5.017-0.438-7.507-0.788c-1.021-0.145-1.079,0.209-1.076,1.035c0.028,6.516-0.005,13.032,0.039,19.548
				c0.006,0.914-0.241,1.119-1.124,1.106c-3.838-0.051-7.676-0.022-11.514-0.021c-1.167,0-1.251,0.191-0.853,1.297
				c0.232,0.643,0.699,0.423,1.081,0.425c3.757,0.018,7.516,0.04,11.272-0.01c0.885-0.012,1.146,0.201,1.137,1.117
				C344.847,174.147,344.873,179.145,344.873,184.142z M69.638,172.199c0,6.479,0.002,12.959-0.001,19.438
				c-0.001,1.846-0.226,2.099-2.084,2.021c-2.876-0.12-5.749-0.317-8.624-0.451c-0.325-0.016-0.903-0.326-0.944,0.338
				c-0.036,0.589,0.561,0.46,0.9,0.55c1.001,0.266,2.023,0.451,3.025,0.716c2.563,0.679,4.392,2.085,4.693,4.92
				c0.061,0.579,0.315,0.715,0.862,0.638c1.384-0.196,2.774-0.352,4.127-0.718c3.376-0.914,4.763-2.654,4.917-6.17
				c0.02-0.438,0.012-0.879,0.012-1.319c0-12.479,0.014-24.957-0.019-37.436c-0.003-1.357-0.139-2.638,1.644-2.927
				c0.073-0.013,0.136-0.081,0.205-0.122c0.549-0.337,0.583-0.618,0.015-1.031c-1.099-0.798-2.14-1.675-3.215-2.507
				c-0.944-0.731-1.933-2.054-2.845-2.008c-1.033,0.053-1.716,1.61-2.494,2.557c-0.537,0.654-1.114,0.854-1.945,0.851
				c-7.878-0.031-15.758-0.022-23.637-0.007c-0.353,0.001-0.913-0.27-1.032,0.213c-0.092,0.373,0.098,0.879,0.304,1.246
				c0.261,0.468,0.797,0.241,1.207,0.241c7.919,0.013,15.838,0.025,23.757-0.012c0.936-0.005,1.201,0.229,1.195,1.183
				C69.618,159.001,69.638,165.601,69.638,172.199z M429.592,168.566c0,7.395,0.001,14.789,0,22.183
				c-0.001,1.618-0.162,1.797-1.802,1.744c-2.037-0.065-4.071-0.211-6.107-0.256c-0.471-0.01-1.298-0.468-1.383,0.297
				c-0.08,0.72,0.83,0.526,1.3,0.644c2.837,0.705,4.989,2.037,5.479,5.237c0.313,2.043,0.397,2.03,2.443,1.727
				c5.227-0.774,7.036-2.873,7.039-8.161c0-0.2,0-0.399,0-0.6c0-13.869,0.003-27.738-0.006-41.607c0-1.164-0.279-2.438,1.448-2.645
				c0.104-0.013,0.208-0.12,0.288-0.205c0.22-0.232,0.494-0.485,0.389-0.823c-0.107-0.341-0.478-0.192-0.728-0.218
				c-2.424-0.25-4.857-0.423-7.271-0.746c-0.952-0.128-1.113,0.113-1.109,1.007C429.608,153.618,429.592,161.093,429.592,168.566z
				 M188.029,164.4c-0.057,1.409,0.551,1.81,1.883,1.768c3.316-0.104,6.639-0.014,9.958-0.05c0.756-0.008,1.025,0.163,1.021,0.983
				c-0.031,8.199-0.035,16.397-0.001,24.597c0.005,1.189-0.496,1.572-1.593,1.495c-1.954-0.139-3.91-0.257-5.866-0.353
				c-0.327-0.016-0.859-0.372-0.94,0.317c-0.065,0.55,0.406,0.471,0.741,0.542c3.856,0.819,5.396,2.141,5.596,5.868
				c0.002,0.039,0.016,0.079,0.017,0.118c0.016,0.495,0.204,0.683,0.752,0.606c1.506-0.21,3.002-0.425,4.422-1.012
				c2.05-0.848,3.278-2.322,3.64-4.535c0.137-0.836,0.182-1.667,0.182-2.507c0-8.318,0.018-16.639-0.024-24.957
				c-0.005-0.972,0.281-1.181,1.201-1.17c4.039,0.05,8.079,0.024,12.118,0.019c0.479-0.001,0.973,0.016,1.432-0.092
				c0.924-0.218,1.074-0.764,0.37-1.366c-1.944-1.663-3.932-3.275-5.867-4.949c-0.567-0.491-0.827-0.306-1.19,0.213
				c-0.872,1.243-1.832,2.426-2.685,3.681c-0.407,0.598-0.854,0.802-1.571,0.799c-7.2-0.026-14.399-0.016-21.598-0.016
				C189.352,164.4,188.678,164.4,188.029,164.4z M327.122,186.994c0-7.36,0.019-14.514-0.021-21.667
				c-0.006-1.085,0.05-1.879,1.354-2.152c0.827-0.174,1.112-0.685,0.205-1.342c-0.904-0.655-1.723-1.427-2.585-2.14
				c-0.8-0.662-1.588-1.808-2.417-1.841c-0.935-0.036-1.614,1.266-2.329,2.046c-0.657,0.72-1.357,0.948-2.307,0.922
				c-2.276-0.063-4.556-0.007-6.834-0.03c-0.591-0.007-0.769,0.125-0.595,0.744c0.196,0.702,0.475,1.051,1.3,1.023
				c2.076-0.068,4.158,0.035,6.233-0.047c1.028-0.041,1.246,0.303,1.241,1.276c-0.04,7.354-0.082,14.709,0.019,22.063
				c0.026,1.957-0.521,3.351-2.288,4.178c-0.683,0.319-0.597,0.64-0.232,1.169c1.357,1.974,2.708,3.953,3.991,5.976
				c0.495,0.781,0.828,0.611,1.315,0.054c0.729-0.834,1.119-1.885,2.023-2.635c3.913-3.238,7.589-6.739,11.107-10.402
				c0.303-0.315,0.975-0.604,0.641-1.129c-0.355-0.561-0.859,0.015-1.232,0.174C332.895,184.435,330.098,185.684,327.122,186.994z
				 M44.359,165.787c0,2.997,0,5.832,0,8.666c0,4.796,0.021,9.592-0.02,14.387c-0.007,0.85,0.221,1.09,1.064,1.044
				c1.548-0.085,2.981-0.486,4.344-1.202c0.551-0.289,0.819-0.688,0.792-1.338c-0.041-0.997,0.016-1.999-0.02-2.996
				c-0.02-0.564,0.154-0.769,0.741-0.758c1.878,0.032,3.757,0.032,5.634-0.001c0.608-0.011,0.858,0.148,0.826,0.796
				c-0.048,0.957,0.017,1.919-0.022,2.876c-0.024,0.587,0.203,0.754,0.764,0.75c1.583-0.01,3.07-0.394,4.537-0.958
				c0.753-0.289,0.994-0.729,0.987-1.529c-0.038-4.275,0.015-8.552-0.04-12.828c-0.014-1.119,0.013-2.011,1.353-2.314
				c0.624-0.142,0.719-0.51,0.099-0.944c-1.046-0.731-2.05-1.525-3.073-2.292c-2.322-1.743-2.346-1.765-4.277,0.359
				c-0.611,0.673-1.245,0.904-2.156,0.971c-3.427,0.253-6.656-0.302-9.696-1.928C45.676,166.269,45.103,166.091,44.359,165.787z
				 M23.111,160.52c0.041,1.247,0.412,1.892,1.784,1.763c1.545-0.145,3.12,0.043,4.672-0.06c1.058-0.07,1.218,0.319,1.213,1.271
				c-0.04,7.516-0.089,15.032,0.021,22.547c0.03,2.052-0.507,3.492-2.415,4.316c-0.483,0.209-0.668,0.446-0.305,0.98
				c1.415,2.08,2.8,4.181,4.167,6.292c0.355,0.548,0.636,0.461,1.009,0.056c0.436-0.475,0.869-0.974,1.055-1.584
				c0.373-1.223,1.16-2.161,1.922-3.135c2.142-2.738,4.19-5.546,6.111-8.444c0.132-0.2,0.253-0.409,0.4-0.597
				c0.223-0.285,0.284-0.562,0.042-0.866c-0.335-0.423-0.583-0.01-0.805,0.12c-1.485,0.868-2.953,1.767-4.581,2.749
				c0-7,0.011-13.715-0.01-20.43c-0.003-1.236-0.221-2.447,1.576-2.69c0.775-0.104,0.879-0.66,0.142-1.213
				c-0.894-0.67-1.724-1.426-2.587-2.137c-0.801-0.66-1.584-1.793-2.42-1.835c-0.942-0.048-1.608,1.26-2.326,2.031
				c-0.633,0.68-1.299,0.905-2.201,0.882C27.423,160.481,25.27,160.52,23.111,160.52z M417.832,168.12
				c0,5.84,0.017,11.68-0.018,17.519c-0.005,0.814,0.167,1.126,1.041,1.075c1.456-0.084,2.833-0.404,4.179-0.951
				c0.927-0.377,1.28-0.946,1.275-1.999c-0.044-9.799-0.028-19.599-0.022-29.397c0-1.236-0.424-2.677,1.472-3.047
				c0.363-0.07,0.673-0.552,0.612-0.951c-0.073-0.474-0.583-0.301-0.905-0.33c-2.189-0.204-4.391-0.309-6.567-0.6
				c-1.007-0.134-1.087,0.204-1.083,1.043C417.846,156.361,417.832,162.241,417.832,168.12z M102.878,200.57
				c2.325,0.04,4.249-1.607,4.643-4.02c0.446-2.724-0.051-5.341-1.114-7.838c-1.107-2.603-1.239-5.229-0.667-7.968
				c1.76-8.435,3.974-16.757,6.067-25.109c0.122-0.488,0.894-1.296-0.142-1.587c-0.922-0.26-0.795,0.773-0.981,1.242
				c-3.248,8.187-6.36,16.425-9.673,24.586c-0.756,1.862-1.751,2.94-3.895,2.551c-0.336-0.062-0.989-0.371-1.089,0.473
				c-0.099,0.837,0.521,0.747,0.985,0.851c2.244,0.498,2.766,1.065,3.098,3.321c0.482,3.284,0.1,6.533-0.371,9.779
				C99.464,198.75,100.966,200.538,102.878,200.57z M223.439,188.883c-0.018-0.319-0.002-0.644-0.058-0.956
				c-1.348-7.535-6.645-11.901-12.626-15.719c-0.297-0.189-0.547-0.05-0.774,0.103c-0.397,0.266,0.003,0.501,0.096,0.693
				c0.591,1.22,1.25,2.406,1.833,3.629c2.321,4.87,4.395,9.826,5.077,15.242c0.05,0.397,0.263,0.641,0.553,0.876
				c2.231,1.813,4.826,1.021,5.608-1.738C223.343,190.324,223.489,189.613,223.439,188.883z M200.63,174.425
				c-0.097-0.272-0.353-0.311-0.561-0.396c-2.396-0.98-4.808-1.922-7.186-2.946c-0.893-0.384-0.787,0.205-0.875,0.698
				c-1.316,7.342-3.437,14.408-7.167,20.923c-0.08,0.139-0.162,0.275-0.24,0.415c-0.143,0.255-0.029,0.446,0.143,0.639
				c0.229,0.255,0.419,0.118,0.611-0.037c0.31-0.252,0.625-0.498,0.923-0.763c5.09-4.492,8.704-10.039,11.487-16.168
				c0.394-0.868,0.734-1.64,1.894-1.599C200.104,175.207,200.461,174.875,200.63,174.425z M278.647,152.852
				c-0.008-0.135,0.005-0.378-0.039-0.611c-0.461-2.431-2.045-3.987-4.076-5.183c-2.595-1.526-5.474-2.126-8.406-2.539
				c-0.28-0.04-0.592-0.076-0.758,0.207c-0.243,0.411,0.195,0.536,0.388,0.729c2.895,2.913,5.366,6.105,6.714,10.051
				c0.125,0.365,0.363,0.577,0.708,0.749C275.868,157.6,278.627,155.942,278.647,152.852z M330.25,153.148
				c-0.041-0.271-0.07-0.631-0.152-0.978c-0.517-2.178-1.995-3.599-3.813-4.712c-2.605-1.597-5.524-2.236-8.501-2.682
				c-0.305-0.046-0.595-0.009-0.758,0.229c-0.265,0.387,0.16,0.552,0.349,0.757c2.746,2.987,5.183,6.183,6.762,9.961
				c0.112,0.269,0.252,0.479,0.529,0.607c1.253,0.582,2.523,0.803,3.792,0.099C329.697,155.744,330.16,154.59,330.25,153.148z
				 M131.003,184.373c-0.027-0.416-0.412-0.423-0.671-0.544c-1.984-0.925-3.988-1.81-5.956-2.768
				c-0.691-0.336-0.875-0.229-1.099,0.522c-1.543,5.187-3.729,10.074-6.939,14.471c-0.229,0.314-0.912,0.565-0.369,1.166
				c0.53,0.586,0.884-0.021,1.21-0.23c4.503-2.885,8.101-6.691,11.111-11.075c0.389-0.567,0.743-0.975,1.504-0.894
				C130.288,185.074,130.724,184.845,131.003,184.373z M151.271,192.254c-0.029-1.926-1.116-3.708-2.598-5.28
				c-2.149-2.28-4.837-3.741-7.703-4.914c-0.378-0.154-0.804-0.374-1.106-0.019c-0.365,0.431,0.172,0.708,0.362,0.999
				c2.367,3.618,4.455,7.365,5.41,11.635c0.101,0.453,0.349,0.695,0.7,0.896c1.057,0.604,2.169,0.875,3.296,0.257
				C150.893,195.137,151.261,193.939,151.271,192.254z M190.898,150.199c0.454,0.792,0.114,1.77,1.495,1.76
				c8.584-0.06,17.168-0.028,25.752-0.036c0.392-0.001,0.814-0.019,1.17-0.16c0.654-0.26,1.034-0.632,0.271-1.272
				c-1.803-1.515-3.593-3.045-5.358-4.603c-0.44-0.388-0.683-0.358-1.017,0.1c-0.845,1.161-1.753,2.277-2.581,3.45
				c-0.413,0.585-0.887,0.781-1.598,0.777c-5.549-0.028-11.1-0.016-16.649-0.016C191.954,150.199,191.522,150.199,190.898,150.199z
				 M35.374,155.778c1.646,0.012,2.946-0.957,3.286-2.572c0.527-2.505-0.799-4.21-2.645-5.585c-2.296-1.712-5.004-2.394-7.771-2.873
				c-0.302-0.052-0.679-0.163-0.863,0.194c-0.189,0.369,0.187,0.565,0.365,0.801c1.88,2.486,3.643,5.039,4.724,7.996
				C33.027,155.267,33.737,155.767,35.374,155.778z M252.098,155.57c2.223,0.036,3.777-1.616,3.571-3.833
				c-0.174-1.88-1.328-3.116-2.834-4.061c-2.436-1.527-5.188-1.964-7.984-2.201c-0.381-0.033-0.874-0.199-1.099,0.224
				c-0.259,0.486,0.302,0.66,0.544,0.914c2.047,2.149,3.975,4.408,5.053,7.199C249.89,155.214,250.837,155.525,252.098,155.57z
				 M54.873,160.841c3.754,0,7.509,0.001,11.263-0.001c0.399-0.001,0.8-0.003,1.196-0.043c0.419-0.043,0.781-0.254,0.954-0.637
				c0.207-0.459-0.262-0.624-0.5-0.835c-1.554-1.376-3.152-2.703-4.688-4.1c-0.556-0.506-0.817-0.327-1.183,0.182
				c-0.721,1.004-1.529,1.947-2.231,2.965c-0.412,0.596-0.887,0.768-1.594,0.764c-5.152-0.03-10.305,0.007-15.457-0.037
				c-0.955-0.009-1.012,0.273-0.797,1.084c0.193,0.733,0.659,0.66,1.176,0.659C46.965,160.84,50.919,160.841,54.873,160.841z
				 M109.704,151.352c-0.081-1.754-1.062-3.013-2.471-3.978c-2.234-1.531-4.791-2.121-7.432-2.418
				c-0.369-0.041-0.864-0.267-1.084,0.19c-0.187,0.39,0.276,0.612,0.483,0.874c1.794,2.271,3.341,4.673,4.11,7.506
				c0.072,0.266,0.143,0.527,0.424,0.688c1.28,0.729,2.606,1.034,3.995,0.361C109.038,153.939,109.659,152.843,109.704,151.352z
				 M250.639,165.048c-0.043-1.679-1.158-2.979-2.707-3.965c-2.254-1.434-4.808-1.864-7.41-2.094
				c-0.428-0.038-0.977-0.237-1.204,0.231c-0.217,0.446,0.346,0.653,0.601,0.918c2.07,2.15,3.817,4.506,4.779,7.372
				c0.102,0.303,0.178,0.59,0.515,0.756c1.213,0.599,2.454,0.779,3.677,0.128C250.084,167.759,250.628,166.683,250.639,165.048z
				 M101.895,167.971c1.648-0.021,3.013-1.127,3.303-2.758c0.32-1.799-0.577-3.094-1.93-4.095c-2.271-1.681-4.96-2.102-7.675-2.409
				c-0.307-0.035-0.584,0.055-0.708,0.326c-0.121,0.265,0.155,0.421,0.305,0.594c1.604,1.86,2.941,3.879,3.711,6.233
				C99.375,167.311,100.334,167.99,101.895,167.971z M401.107,146.887c-0.233,0-0.354-0.007-0.473,0.001
				c-0.421,0.027-1.001-0.188-1.186,0.297c-0.168,0.443,0.423,0.604,0.693,0.859c1.935,1.827,3.586,3.85,4.563,6.363
				c0.111,0.287,0.199,0.584,0.55,0.732c1.121,0.475,2.233,0.603,3.333-0.021c1.063-0.603,1.597-1.54,1.585-2.757
				c-0.019-1.857-1.143-2.996-2.622-3.857C405.528,147.327,403.271,147.058,401.107,146.887z"/>
			<path fill-rule="evenodd" clip-rule="evenodd" fill="#385D36" d="M412.916,41.523c-6.911,0.096-13.124,2.172-18.651,6.388
				c-3.824,2.917-8.234,4.29-13.046,4.413c-8.903,0.229-17.186-2.3-25.303-5.615c-8.124-3.318-15.625-7.795-23.085-12.351
				c-0.855-0.522-1.591-1.175-2.131-2.052c-0.27-0.438-0.271-0.691,0.172-0.97c0.638-0.404,1.219-0.903,1.879-1.262
				c8.201-4.459,16.804-7.873,25.996-9.63c4.378-0.837,8.814-1.413,13.289-1.224c8.93,0.376,17.079,3.065,24.284,8.442
				c0.783,0.585,1.336,1.365,1.891,2.144c2.486,3.492,5.896,5.162,10.151,5.238c3.438,0.062,6.838-0.486,10.275-0.553
				c2.798-0.054,4.569-2.088,6.185-4.19c2.305-2.998,4.682-5.941,7.046-8.894c1.089-1.36,1.939-1.379,3.139-0.131
				c2.295,2.387,2.55,4.507,0.744,7.267c-3.741,5.717-7.872,11.159-11.882,16.687c-2.038,2.81-2.81,5.944-2.246,9.441
				c0.397,2.47,0.572,4.98,0.763,7.479c0.355,4.663,2.621,8.063,6.677,10.301c1.178,0.65,2.388,1.232,3.445,2.084
				c2.676,2.157,3.265,5.132,3.335,8.329c0.111,5.076,0.254,10.155-0.017,15.226c-0.561,10.472-1.796,20.851-4.806,30.944
				c-0.539,1.808-1.076,3.642-2.107,5.259c-1.229,1.926-3.043,2.087-4.318,0.218c-6.25-9.167-11.533-18.787-13.753-29.826
				c-0.637-3.166-1.079-6.345-1.153-9.568c-0.139-6.111,1.082-11.938,3.482-17.575c2.324-5.458,3.15-11.196,2.547-17.124
				c-0.186-1.823-0.268-3.656-0.415-5.483c-0.045-0.557-0.097-1.183-0.741-1.377c-0.639-0.192-1.145,0.168-1.574,0.617
				c-1.713,1.791-3.465,3.545-5.126,5.383c-2.806,3.104-5.462,6.334-7.673,9.898c-1.487,2.398-2.515,5.006-3.225,7.737
				c-1.272,4.899-5.77,7.992-10.54,8.033c-2.286,0.02-4.404-0.437-6.378-1.547c-1.824-1.026-2.376-2.473-1.966-4.529
				c1.459-7.317,6.074-11.828,12.851-14.305c3.511-1.283,6.501-3.247,9.096-5.889c4.709-4.793,9.436-9.567,14.13-14.374
				c0.634-0.649,1.134-1.433,1.675-2.17c0.482-0.657,0.188-0.896-0.516-0.891C414.515,41.527,413.715,41.523,412.916,41.523z
				 M337.246,32.755c0.761,1.142,1.968,1.037,3.032,1.042c2.359,0.011,4.69,0.311,7.013,0.615c3.668,0.479,7.351,0.771,11.03,1.104
				c3.052,0.276,6.111,0.478,9.16,0.778c3.479,0.344,6.951,0.748,10.424,1.149c2.838,0.328,5.67,0.698,8.506,1.037
				c2.379,0.284,4.749,0.386,7.09-0.308c0.563-0.167,1.155-0.391,1.246-0.963c0.106-0.673-0.403-1.17-0.952-1.529
				c-0.262-0.171-0.564-0.329-0.867-0.38c-2.783-0.471-5.584-0.892-8.401-0.952c-4.468-0.095-8.933-0.066-13.396-0.474
				c-3.969-0.363-7.965-0.412-11.949-0.589c-3.71-0.165-7.424-0.105-11.136-0.33c-2.981-0.18-5.954-0.565-8.948-0.557
				C338.47,32.401,337.848,32.414,337.246,32.755z M424.531,93.944c0.204-4.241-0.281-8.468-0.239-12.708
				c0.009-0.928-0.285-1.878-0.556-2.783c-0.157-0.523-0.526-0.956-1.222-0.953c-0.645,0.002-1.045,0.257-1.313,0.83
				c-0.289,0.617-0.556,1.225-0.482,1.932c0.244,2.373,0.484,4.746,0.72,7.119c0.339,3.403,0.662,6.808,1.01,10.209
				c0.372,3.639,0.792,7.274,1.144,10.916c0.29,3.011,0.451,6.035,0.791,9.04c0.113,0.995,0.109,1.989,0.228,2.978
				c0.031,0.265,0.146,0.606,0.465,0.613c0.348,0.007,0.377-0.355,0.417-0.616c0.041-0.274,0.04-0.559,0.025-0.837
				c-0.148-2.669-0.353-5.336-0.447-8.007C424.863,105.766,424.708,99.855,424.531,93.944z"/>
			<path fill-rule="evenodd" clip-rule="evenodd" fill="#3A5E38" d="M209.985,92.604c4.757-0.083,9.518-0.052,14.265-0.412
				c0.877-0.066,1.312,0.108,1.38,1.072c0.073,1.03,0.76,2.326,0.349,2.996c-0.43,0.698-1.907,0.318-2.923,0.439
				c-2.916,0.345-4.054,1.448-4.154,4.534c-0.129,3.995-0.093,7.996-0.134,11.994c-0.006,0.64-0.137,1.292-0.049,1.916
				c0.376,2.665-0.979,3.919-3.297,4.977c-8.642,3.94-17.686,5.332-27.09,4.792c-5.227-0.3-10.314-1.293-15.054-3.579
				c-10.234-4.937-16.131-13.177-17.958-24.3c-1.196-7.276-1.006-14.555,1.741-21.492c4.668-11.786,13.584-18.75,25.715-21.752
				c7.478-1.851,14.993-1.347,22.48,0.09c3.606,0.692,7.202,1.445,10.816,2.091c0.907,0.162,1.27,0.563,1.389,1.423
				c0.577,4.147,0.269,8.3,0.112,12.452c-0.034,0.878-0.135,1.754-0.174,2.633c-0.025,0.577-0.185,0.829-0.862,0.787
				c-1.9-0.116-1.967-0.066-2.305-1.993c-1.115-6.347-4.876-10.312-10.905-12.28c-6.229-2.033-12.568-2.346-18.912-0.801
				c-7.788,1.896-12.891,7.052-16.232,14.118c-5.119,10.828-3.793,26.896,2.931,36.724c4.688,6.852,11.266,10.333,19.428,10.926
				c4.079,0.297,8.151,0.151,12.1-1.138c1.297-0.423,2.525-0.984,3.672-1.726c2.274-1.472,3.575-3.491,3.55-6.266
				c-0.026-2.958,0.029-5.919-0.094-8.874c-0.125-3.024-1.283-4.296-4.26-4.88c-2.361-0.464-4.765-0.545-7.164-0.534
				c-0.782,0.003-1.154-0.206-1.26-0.992c-0.105-0.79-0.267-1.577-0.478-2.345c-0.242-0.878,0.041-1.087,0.914-1.013
				C201.667,92.542,205.829,92.477,209.985,92.604z"/>
			<path fill-rule="evenodd" clip-rule="evenodd" fill="#3A5E38" d="M94.09,123.826c-1.998-0.09-3.872-0.163-5.744-0.261
				c-6.398-0.336-12.793-0.318-19.177,0.253c-0.845,0.076-1.138-0.213-1.225-0.975c-0.063-0.554-0.197-1.1-0.309-1.647
				c-0.334-1.622-0.336-1.625,1.371-1.661c1.606-0.034,3.197-0.198,4.711-0.76c1.636-0.606,2.034-1.43,1.46-3.061
				c-1.895-5.387-4.31-10.561-6.525-15.816c-0.214-0.509-0.534-0.597-1.019-0.596c-7.719,0.01-15.439,0.015-23.158-0.009
				c-0.618-0.002-0.824,0.283-0.999,0.771c-1.479,4.131-3.005,8.246-4.441,12.393c-1.134,3.272-0.043,5.22,3.28,6.151
				c1.239,0.348,2.508,0.532,3.778,0.608c0.714,0.043,0.955,0.325,1.088,0.954c0.198,0.936,0.424,1.872,0.728,2.777
				c0.28,0.835-0.061,0.93-0.775,0.895c-1.997-0.1-3.997-0.139-5.995-0.217c-5.279-0.207-10.555-0.11-15.825,0.216
				c-0.782,0.048-1.147-0.148-1.276-0.942c-0.19-1.172-0.473-2.33-0.721-3.516c0.915-0.142,1.784-0.25,2.642-0.415
				c3.684-0.708,6.311-2.788,7.852-6.195c1.942-4.293,3.403-8.775,5.051-13.182c5.575-14.908,11.114-29.83,16.637-44.757
				c0.297-0.802,0.661-1.137,1.534-1.067c1.192,0.095,2.677-0.364,3.512,0.196c0.831,0.558,1.03,2.075,1.477,3.184
				c7.251,17.98,14.498,35.962,21.748,53.943c0.627,1.556,1.394,3.045,2.158,4.539c1.297,2.53,3.354,3.791,6.153,3.836
				c0.736,0.012,1.053,0.236,1.188,0.959C93.474,121.518,93.786,122.592,94.09,123.826z M55.13,68.137
				c-3.117,8.564-6.116,16.841-9.158,25.104c-0.338,0.917,0.078,0.885,0.733,0.884c6.112-0.011,12.224-0.005,18.335-0.013
				c0.297,0,0.626,0.113,0.962-0.185C62.424,85.438,58.84,76.936,55.13,68.137z"/>
			<path fill-rule="evenodd" clip-rule="evenodd" fill="#385D36" d="M115.014,87.817c0,8.8-0.002,17.6,0.005,26.399
				c0.001,0.637,0.056,1.276,0.126,1.91c0.191,1.74,1.229,2.729,2.883,3.086c2.12,0.457,4.276,0.603,6.438,0.538
				c0.859-0.025,1.323,0.174,1.416,1.115c0.102,1.025,0.975,2.282,0.478,2.96c-0.507,0.689-1.933,0.221-2.946,0.183
				c-7.879-0.293-15.756-0.079-23.632,0.116c-0.96,0.023-1.393-0.233-1.408-1.213c-0.008-0.513-0.164-1.023-0.256-1.534
				c-0.29-1.595-0.29-1.584,1.357-1.806c1.346-0.181,2.688-0.38,4.03-0.59c1.449-0.228,2.275-1.078,2.44-2.539
				c0.059-0.515,0.091-1.034,0.091-1.552c0.005-17.44,0.004-34.879,0.004-52.319c0-2.842-0.59-3.602-3.368-4.162
				c-1.133-0.228-2.29-0.366-3.442-0.464c-0.619-0.053-0.915-0.283-1.012-0.894c-0.139-0.867-0.323-1.727-0.521-2.583
				c-0.152-0.656-0.128-1.016,0.747-0.966c9.036,0.516,18.07-0.033,27.106-0.057c4.959-0.013,9.768,0.827,14.325,2.925
				c6.194,2.853,9.003,7.87,9.343,14.461c0.272,5.284-0.723,10.227-4.551,14.179c-3.271,3.378-7.428,5.192-11.934,6.253
				c-4.228,0.996-8.51,1.423-12.848,0.911c-1.875-0.221-3.113-2.264-2.53-4.066c0.195-0.602,0.581-0.353,0.958-0.328
				c4.016,0.274,7.991,0.174,11.815-1.3c6.618-2.549,10.279-8.388,9.693-15.458c-0.119-1.436-0.288-2.858-0.737-4.239
				c-1.5-4.608-5.048-6.825-9.436-7.964c-4.243-1.102-8.566-0.892-12.876-0.473c-1.278,0.125-1.755,0.772-1.755,2.108
				C115.013,69.578,115.014,78.698,115.014,87.817z"/>
			<path fill-rule="evenodd" clip-rule="evenodd" fill="#3A5E38" d="M285.351,53.819c1.626,0.075,3.137,0.138,4.647,0.215
				c6.836,0.349,13.669,0.381,20.493-0.211c0.524-0.045,0.814,0.044,0.914,0.613c0.164,0.943,0.371,1.88,0.592,2.812
				c0.145,0.611-0.001,0.86-0.683,0.84c-1.604-0.049-3.198,0.125-4.755,0.51c-2.499,0.617-3.071,1.747-2.162,4.116
				c5.812,15.157,11.621,30.315,17.432,45.472c0.125,0.325,0.262,0.645,0.497,1.224c0.43-1.136,0.782-2.037,1.113-2.946
				c4.947-13.606,9.894-27.212,14.83-40.823c0.203-0.558,0.349-1.145,0.454-1.731c0.376-2.089-0.354-3.576-2.245-4.545
				c-1.631-0.836-3.414-1.109-5.209-1.243c-0.596-0.044-0.856-0.265-0.96-0.795c-0.038-0.196-0.098-0.387-0.139-0.583
				c-0.202-0.963-1.055-2.103-0.526-2.793c0.351-0.457,1.799-0.101,2.754-0.063c6.514,0.259,13.028,0.401,19.537-0.089
				c1.023-0.077,1.428,0.223,1.564,1.204c0.138,0.983,0.414,1.948,0.639,2.958c-0.902,0.147-1.769,0.255-2.62,0.432
				c-3.723,0.77-6.29,2.979-7.854,6.397c-1.578,3.45-2.75,7.059-4.074,10.607c-5.886,15.769-11.757,31.543-17.595,47.33
				c-0.337,0.91-0.765,1.241-1.71,1.14c-1.144-0.123-2.581,0.438-3.376-0.204c-0.779-0.631-0.942-2.042-1.342-3.123
				c-6.621-17.92-13.237-35.842-19.849-53.766c-0.611-1.656-1.507-3.165-2.329-4.715c-1.289-2.43-3.209-3.844-6.009-3.854
				c-0.81-0.003-1.097-0.361-1.24-1.078C285.931,56.072,285.646,55.034,285.351,53.819z"/>
			<path fill-rule="evenodd" clip-rule="evenodd" fill="#3A5E38" d="M134.815,151.384c1.419,0.34,2.839,0.679,4.259,1.018
				c0.303,0.072,0.746,0.041,0.817,0.367c0.083,0.38-0.286,0.723-0.603,0.806c-2.694,0.708-3.816,3.389-6.085,4.631
				c0.295,0.451,0.645,0.292,0.928,0.297c1.159,0.021,2.334-0.11,3.476,0.033c2.535,0.318,4.619-0.271,6.048-2.529
				c0.351-0.555,0.728-0.554,1.258-0.133c1.566,1.241,3.153,2.459,4.78,3.617c0.753,0.537,0.723,1.002-0.089,1.181
				c-1.381,0.305-1.35,1.2-1.34,2.295c0.044,4.679-0.006,9.358,0.041,14.037c0.008,0.865-0.266,1.308-1.058,1.599
				c-1.435,0.526-2.878,0.924-4.421,0.975c-0.753,0.025-1.141-0.148-0.996-0.969c0.167-0.94-0.114-1.324-1.179-1.275
				c-2.039,0.093-2.035,0.022-2.043,2.104c-0.02,4.719,0.063,9.44-0.104,14.153c-0.139,3.914-2.002,5.841-5.854,6.569
				c-0.04,0.007-0.08,0.008-0.119,0.015c-2.008,0.365-2.008,0.365-2.229-1.604c-0.313-2.8-1.481-4.157-4.184-4.861
				c-0.231-0.061-0.467-0.105-0.7-0.16c-0.291-0.068-0.549-0.178-0.487-0.549c0.071-0.422,0.414-0.299,0.666-0.288
				c1.558,0.069,3.114,0.175,4.672,0.228c1.607,0.054,1.72-0.071,1.721-1.659c0.002-4.279-0.03-8.559,0.025-12.837
				c0.012-0.924-0.252-1.214-1.131-1.092c-0.432,0.061-0.88,0.029-1.318,0.006c-0.556-0.029-1.038-0.05-0.944,0.762
				c0.055,0.477-0.387,0.673-0.724,0.865c-1.45,0.827-3.009,1.241-4.686,1.272c-0.645,0.012-0.8-0.208-0.798-0.824
				c0.019-7.559,0.022-15.117-0.001-22.676c-0.002-0.826,0.255-0.825,0.896-0.548c1.537,0.666,3.097,1.278,4.65,1.906
				c0.333,0.134,0.667,0.281,1.016,0.351c1.441,0.29,1.675,0.112,1.815-1.347c0.149-1.552,0.246-3.109,0.444-4.654
				c0.12-0.934-0.025-1.322-1.125-1.293c-3.197,0.085-6.399,0.065-9.597,0.008c-0.898-0.017-1.126,0.217-1.124,1.12
				c0.013,5.999,0.139,11.999-0.106,17.994c-0.301,7.359-1.398,14.547-4.797,21.209c-1.539,3.016-3.5,5.723-5.944,8.069
				c-0.311,0.298-0.588,0.902-1.172,0.483c-0.56-0.401-0.007-0.789,0.143-1.12c2.618-5.778,3.902-11.893,4.562-18.156
				c1.141-10.848,0.596-21.735,0.717-32.606c0.017-1.486,0.049-1.583,1.346-0.969c4.137,1.96,8.456,2.579,13.017,2.362
				c4.429-0.211,8.876-0.063,13.315-0.03c0.747,0.006,1.249-0.161,1.688-0.815c0.778-1.159,1.691-2.228,2.501-3.368
				c0.366-0.516,0.617-0.69,1.183-0.199c1.75,1.519,3.559,2.971,5.326,4.472c0.271,0.229,0.774,0.413,0.539,0.932
				c-0.181,0.398-0.578,0.549-0.98,0.606c-0.354,0.051-0.718,0.037-1.077,0.038c-4.559,0.002-9.119,0.001-13.678,0.001
				c-0.378,0-0.756,0-1.134,0C134.829,151.262,134.822,151.323,134.815,151.384z M135.358,160.283c-1.957,0-3.915,0.028-5.872-0.016
				c-0.688-0.016-0.875,0.208-0.86,0.876c0.042,1.796,0.033,3.595,0.003,5.392c-0.009,0.555,0.131,0.76,0.726,0.757
				c3.914-0.024,7.829-0.023,11.743-0.002c0.573,0.004,0.754-0.169,0.744-0.744c-0.033-1.757-0.047-3.516,0.005-5.271
				c0.022-0.761-0.167-1.038-0.978-1.011C139.035,160.325,137.196,160.283,135.358,160.283z M135.113,175.64
				c1.955,0,3.909-0.014,5.862,0.008c0.555,0.006,0.889-0.055,0.871-0.755c-0.044-1.713-0.033-3.429-0.004-5.144
				c0.009-0.564-0.165-0.762-0.745-0.758c-3.908,0.02-7.816,0.021-11.725-0.001c-0.583-0.003-0.75,0.194-0.741,0.757
				c0.029,1.715,0.041,3.431-0.004,5.145c-0.019,0.695,0.303,0.764,0.864,0.757C131.364,175.625,133.239,175.64,135.113,175.64z"/>
			<path fill-rule="evenodd" clip-rule="evenodd" fill="#385D36" d="M266.602,53.522c3.837,0.001,7.676,0.052,11.512-0.033
				c1.006-0.022,1.313,0.323,1.412,1.202c0.116,1.021,0.732,2.27,0.339,2.981c-0.385,0.695-1.841,0.336-2.818,0.496
				c-1.3,0.212-2.604,0.403-3.901,0.631c-1.285,0.225-1.928,1.038-2.007,2.318c-0.029,0.479-0.048,0.958-0.048,1.438
				c-0.002,17.516-0.002,35.032-0.001,52.547c0,3.01,0.585,3.708,3.548,4.189c1.064,0.174,2.134,0.345,3.207,0.419
				c0.596,0.042,0.824,0.26,0.909,0.824c0.174,1.142,0.906,2.559,0.469,3.329c-0.427,0.75-2.059,0.236-3.147,0.188
				c-6.998-0.313-13.992-0.11-20.987,0.068c-0.902,0.023-1.405-0.105-1.456-1.156c-0.05-1.026-0.844-2.299-0.345-2.987
				c0.5-0.688,1.933-0.364,2.951-0.514c1.263-0.186,2.519-0.424,3.779-0.627c1.322-0.213,1.884-1.091,2.023-2.319
				c0.05-0.436,0.03-0.879,0.03-1.319c0.002-17.596,0.002-35.191,0.001-52.787c0-2.783-0.601-3.534-3.33-4.034
				c-1.138-0.208-2.293-0.336-3.445-0.445c-0.565-0.054-0.842-0.239-0.919-0.845c-0.114-0.909-0.266-1.828-0.547-2.696
				c-0.284-0.876,0.103-0.886,0.778-0.882C258.607,53.532,262.604,53.521,266.602,53.522z"/>
			<path fill-rule="evenodd" clip-rule="evenodd" fill="#385D36" d="M257.89,158.168c-0.875,2.761-1.777,5.514-2.621,8.285
				c-1.615,5.303-3.476,10.534-4.578,15.987c-0.408,2.021-0.349,3.943,0.521,5.848c1.074,2.35,1.73,4.799,1.547,7.428
				c-0.181,2.576-1.913,4.423-4.456,4.665c-2.478,0.235-4.111-1.501-3.779-3.968c0.396-2.933,0.753-5.867,0.305-8.837
				c-0.344-2.284-1.043-3.081-3.277-3.458c-0.496-0.084-0.955-0.047-0.877-0.778c0.083-0.777,0.686-0.491,0.997-0.435
				c2.177,0.396,3.309-0.64,4.233-2.527c3.441-7.024,6.6-14.18,9.914-21.262c0.778-1.662,1.527-3.338,2.305-5.001
				c0.152-0.326,0.197-0.866,0.798-0.627c0.604,0.24,0.244,0.658,0.143,1.001c-0.228,0.765-0.452,1.532-0.739,2.275
				c-0.286,0.743-0.102,0.938,0.7,0.933c4.879-0.034,9.759-0.017,14.639-0.017c3.359,0,6.72-0.016,10.079,0.013
				c0.658,0.006,1.103-0.156,1.499-0.718c0.854-1.207,1.813-2.338,2.678-3.537c0.378-0.524,0.636-0.681,1.193-0.186
				c1.794,1.593,3.643,3.123,5.454,4.696c0.659,0.572,0.555,1.095-0.29,1.331c-0.489,0.138-1.028,0.127-1.545,0.129
				c-4.359,0.009-8.72,0.034-13.079-0.018c-0.955-0.012-1.294,0.168-1.279,1.215c0.063,4.519,0.05,9.039,0.007,13.559
				c-0.009,0.834,0.19,1.11,1.047,1.054c1.431-0.096,3.076,0.35,4.244-0.224c1.121-0.549,1.751-2.102,2.595-3.214
				c0.217-0.286,0.444-0.567,0.64-0.868c0.266-0.406,0.521-0.387,0.868-0.082c1.773,1.556,3.556,3.102,5.345,4.64
				c0.655,0.564,0.405,0.924-0.225,1.243c-0.453,0.23-0.938,0.17-1.413,0.171c-4,0.006-8,0.036-11.999-0.021
				c-0.924-0.013-1.108,0.256-1.103,1.131c0.041,5.68,0.039,11.359,0.001,17.038c-0.005,0.832,0.19,1.1,1.048,1.061
				c1.597-0.072,3.2-0.06,4.798-0.004c0.795,0.027,1.328-0.185,1.79-0.87c0.848-1.258,1.828-2.426,2.693-3.674
				c0.38-0.549,0.633-0.531,1.105-0.117c1.864,1.634,3.75,3.243,5.65,4.835c0.791,0.662,0.483,1.034-0.263,1.364
				c-0.421,0.188-0.864,0.131-1.301,0.131c-12.439,0.003-24.879,0.005-37.317-0.009c-0.398-0.001-0.941,0.253-1.179-0.263
				c-0.177-0.383-0.457-0.853-0.259-1.254c0.171-0.344,0.65-0.152,0.988-0.153c4.64-0.011,9.279-0.025,13.919,0.011
				c0.823,0.006,1.174-0.095,1.165-1.071c-0.055-5.719-0.043-11.439-0.009-17.158c0.005-0.793-0.221-0.999-0.999-0.99
				c-3.559,0.041-7.12-0.032-10.678,0.049c-1.091,0.024-1.142-0.66-1.251-1.328c-0.107-0.655,0.483-0.375,0.751-0.376
				c3.68-0.021,7.359-0.041,11.039,0.005c0.849,0.011,1.157-0.136,1.146-1.086c-0.058-4.56-0.048-9.12-0.006-13.679
				c0.008-0.848-0.233-1.072-1.069-1.061c-3.439,0.047-6.88-0.008-10.319,0.037c-0.954,0.012-1.684-0.071-1.597-1.384
				C258.115,158.088,258.002,158.128,257.89,158.168z"/>
			<path fill-rule="evenodd" clip-rule="evenodd" fill="#3A5E38" d="M382.605,163.219c2.477-0.318,4.889-0.661,7.31-0.92
				c0.722-0.077,0.793-0.324,0.715-0.976c-0.645-5.367-0.866-10.758-0.886-16.16c-0.003-0.753,0.17-0.935,0.939-0.842
				c2.381,0.289,4.773,0.474,7.158,0.723c0.336,0.035,0.864-0.068,0.96,0.29c0.121,0.446-0.257,0.96-0.655,1.024
				c-1.833,0.295-1.407,1.658-1.423,2.818c-0.05,3.723,0.195,7.433,0.471,11.143c0.065,0.886,0.397,1.049,1.19,0.939
				c2.493-0.344,4.992-0.652,7.493-0.934c0.501-0.057,0.783-0.269,1.033-0.673c0.713-1.155,1.5-2.268,2.178-3.443
				c0.396-0.688,0.713-0.889,1.445-0.38c1.673,1.162,3.414,2.225,5.106,3.358c0.286,0.191,0.865,0.256,0.672,0.822
				c-0.149,0.438-0.508,0.726-0.974,0.801c-0.985,0.159-1.975,0.305-2.965,0.428c-4.64,0.575-9.281,1.14-13.921,1.712
				c-0.403,0.05-0.941-0.093-0.849,0.656c0.546,4.396,1.506,8.688,3.115,13.051c0.995-1.64,1.583-3.236,2.223-4.804
				c1.026-2.514,1.896-5.087,2.595-7.709c0.219-0.823,0.513-0.878,1.219-0.605c2.195,0.847,4.415,1.633,6.619,2.458
				c0.304,0.113,0.814,0.08,0.793,0.533c-0.018,0.373-0.461,0.698-0.766,0.652c-1.827-0.271-1.974,1.197-2.44,2.297
				c-1.877,4.426-4.104,8.658-6.894,12.579c-0.358,0.506-0.377,0.849-0.047,1.364c1.565,2.442,3.44,4.605,5.606,6.531
				c0.832,0.739,1.333,0.373,1.8-0.401c1.199-1.984,2.193-4.075,3.231-6.145c0.188-0.375,0.179-1.161,0.828-0.929
				c0.545,0.194,0.194,0.855,0.137,1.278c-0.358,2.651-0.743,5.301-1.176,7.942c-0.118,0.723,0.031,1.307,0.375,1.927
				c0.618,1.116,1.173,2.264,1.374,3.553c0.198,1.261-0.327,2.069-1.443,2.585c-1.362,0.628-2.733,0.479-4.092,0.04
				c-2.216-0.714-4.061-2.02-5.69-3.658c-2.349-2.362-4.368-4.985-6.199-7.86c-0.343,0.31-0.64,0.567-0.926,0.836
				c-4.186,3.915-8.962,6.933-14.163,9.299c-0.34,0.154-0.748,0.594-1.082-0.089c-0.31-0.633,0.229-0.77,0.548-0.99
				c4.949-3.416,9.203-7.54,12.759-12.396c0.488-0.668,0.513-1.169,0.172-1.918c-2.632-5.788-4.111-11.907-5.031-18.17
				c-0.131-0.896-0.443-0.979-1.222-0.856c-1.735,0.273-3.511,0.333-5.225,0.694C383.298,164.972,382.75,164.549,382.605,163.219z"
				/>
			<path fill-rule="evenodd" clip-rule="evenodd" fill="#3A5E38" d="M167.511,158.64c2.28,0,4.553-0.034,6.824,0.019
				c0.761,0.019,0.925-0.224,0.919-0.943c-0.034-4.037-0.017-8.075-0.016-12.113c0-1.459,0.003-1.481,1.504-1.339
				c2.227,0.21,4.451,0.452,6.675,0.692c0.246,0.026,0.61-0.117,0.679,0.29c0.05,0.294-0.114,0.546-0.316,0.745
				c-0.14,0.138-0.314,0.331-0.48,0.337c-1.636,0.063-1.385,1.232-1.382,2.28c0.007,3.308,0.003,6.615,0.254,10.066
				c0.819-1.131,1.639-2.262,2.457-3.395c0.896-1.241,0.901-1.25,2.01-0.229c1.352,1.246,2.699,2.498,4.028,3.768
				c0.238,0.227,0.69,0.411,0.519,0.848c-0.174,0.441-0.591,0.651-1.057,0.664c-1.159,0.03-2.317,0.037-3.477,0.044
				c-1.199,0.006-2.402,0.052-3.597-0.016c-0.848-0.049-1.075,0.162-1.182,1.081c-0.274,2.348,0.222,3.921,2.76,4.723
				c1.735,0.548,3.158,1.862,4.233,3.412c0.92,1.326,1.45,2.76,0.969,4.398c-0.676,2.303-3.463,3.034-5.205,1.391
				c-0.307-0.289-0.31-0.612-0.349-0.967c-0.273-2.516-1.025-4.882-2.361-7.119c0,0.41,0,0.82,0,1.231
				c0,9.635-0.018,19.269,0.026,28.903c0.005,1.012-0.376,1.563-1.209,1.955c-1.39,0.654-2.833,1.021-4.384,1.064
				c-0.879,0.024-1.146-0.183-1.14-1.108c0.043-7.116,0.023-14.232,0.023-21.349c0-0.438,0-0.876,0-1.335
				c-0.463-0.005-0.482,0.391-0.625,0.618c-1.982,3.165-4.32,6.043-6.974,8.665c-0.232,0.229-0.387,0.781-0.942,0.397
				c-0.535-0.37-0.279-0.72-0.06-1.113c3.869-6.928,5.783-14.486,7.112-22.226c0.445-2.597,0.389-2.606-2.229-2.606
				c-0.76,0-1.52,0-2.279,0C167.67,160.375,167.67,160.375,167.511,158.64z"/>
			<path fill-rule="evenodd" clip-rule="evenodd" fill="#385D36" d="M344.873,184.142c0-4.997-0.025-9.994,0.023-14.991
				c0.009-0.916-0.252-1.129-1.137-1.117c-3.757,0.05-7.516,0.027-11.272,0.01c-0.382-0.002-0.849,0.218-1.081-0.425
				c-0.398-1.105-0.314-1.297,0.853-1.297c3.838-0.002,7.676-0.03,11.514,0.021c0.883,0.013,1.13-0.192,1.124-1.106
				c-0.044-6.516-0.011-13.032-0.039-19.548c-0.003-0.826,0.055-1.18,1.076-1.035c2.49,0.351,5.004,0.528,7.507,0.788
				c0.257,0.027,0.608-0.117,0.746,0.207c0.146,0.345-0.115,0.607-0.326,0.841c-0.13,0.145-0.308,0.328-0.478,0.342
				c-1.515,0.126-1.312,1.207-1.309,2.23c0.015,5.357,0.023,10.714-0.01,16.07c-0.006,0.86,0.153,1.103,1.119,1.244
				c2.971,0.438,4.908-0.624,6.404-3.223c1.234-2.143,1.443-2.038,3.354-0.46c1.509,1.248,3,2.518,4.481,3.798
				c0.246,0.213,0.691,0.378,0.543,0.824c-0.137,0.413-0.516,0.614-0.927,0.666c-0.474,0.059-0.956,0.07-1.435,0.07
				c-4.118,0.005-8.236,0.032-12.353-0.019c-0.93-0.012-1.198,0.215-1.194,1.175c0.039,9.194,0.003,18.39,0.052,27.584
				c0.005,1.046-0.387,1.643-1.216,2.104c-1.564,0.873-3.225,1.313-5.03,1.347c-0.92,0.017-1.01-0.342-1.006-1.11
				C344.887,194.136,344.873,189.139,344.873,184.142z"/>
			<path fill-rule="evenodd" clip-rule="evenodd" fill="#3A5E38" d="M69.638,172.199c0-6.599-0.02-13.198,0.023-19.797
				c0.006-0.954-0.259-1.188-1.195-1.183c-7.919,0.037-15.838,0.024-23.757,0.012c-0.41,0-0.946,0.227-1.207-0.241
				c-0.206-0.367-0.396-0.873-0.304-1.246c0.119-0.482,0.68-0.212,1.032-0.213c7.879-0.016,15.758-0.024,23.637,0.007
				c0.831,0.004,1.409-0.196,1.945-0.851c0.777-0.946,1.461-2.504,2.494-2.557c0.913-0.046,1.901,1.276,2.845,2.008
				c1.075,0.832,2.116,1.709,3.215,2.507c0.569,0.413,0.535,0.694-0.015,1.031c-0.068,0.041-0.132,0.109-0.205,0.122
				c-1.782,0.289-1.647,1.569-1.644,2.927c0.033,12.479,0.02,24.957,0.019,37.436c0,0.44,0.007,0.881-0.012,1.319
				c-0.155,3.516-1.541,5.256-4.917,6.17c-1.353,0.366-2.744,0.521-4.127,0.718c-0.547,0.077-0.801-0.059-0.862-0.638
				c-0.301-2.835-2.13-4.241-4.693-4.92c-1.001-0.265-2.024-0.45-3.025-0.716c-0.34-0.09-0.936,0.039-0.9-0.55
				c0.041-0.664,0.619-0.354,0.944-0.338c2.875,0.134,5.748,0.331,8.624,0.451c1.858,0.077,2.083-0.176,2.084-2.021
				C69.64,185.158,69.638,178.679,69.638,172.199z"/>
			<path fill-rule="evenodd" clip-rule="evenodd" fill="#385D36" d="M429.592,168.566c0-7.474,0.016-14.948-0.02-22.423
				c-0.004-0.894,0.157-1.135,1.109-1.007c2.413,0.323,4.847,0.496,7.271,0.746c0.25,0.025,0.62-0.123,0.728,0.218
				c0.105,0.338-0.169,0.591-0.389,0.823c-0.08,0.085-0.185,0.192-0.288,0.205c-1.728,0.206-1.448,1.48-1.448,2.645
				c0.009,13.869,0.006,27.738,0.006,41.607c0,0.2,0,0.399,0,0.6c-0.003,5.288-1.813,7.387-7.039,8.161
				c-2.046,0.304-2.131,0.316-2.443-1.727c-0.489-3.2-2.642-4.532-5.479-5.237c-0.47-0.117-1.38,0.076-1.3-0.644
				c0.085-0.765,0.912-0.307,1.383-0.297c2.036,0.045,4.07,0.19,6.107,0.256c1.64,0.053,1.801-0.126,1.802-1.744
				C429.593,183.355,429.592,175.961,429.592,168.566z"/>
			<path fill-rule="evenodd" clip-rule="evenodd" fill="#385D36" d="M188.029,164.4c0.649,0,1.323,0,1.997,0
				c7.199,0,14.398-0.011,21.598,0.016c0.717,0.003,1.164-0.201,1.571-0.799c0.853-1.255,1.813-2.438,2.685-3.681
				c0.364-0.519,0.623-0.704,1.19-0.213c1.935,1.674,3.922,3.286,5.867,4.949c0.705,0.603,0.554,1.148-0.37,1.366
				c-0.459,0.107-0.954,0.091-1.432,0.092c-4.04,0.006-8.079,0.031-12.118-0.019c-0.919-0.011-1.206,0.198-1.201,1.17
				c0.042,8.318,0.024,16.639,0.024,24.957c0,0.84-0.045,1.671-0.182,2.507c-0.362,2.213-1.59,3.688-3.64,4.535
				c-1.42,0.587-2.917,0.802-4.422,1.012c-0.548,0.076-0.736-0.111-0.752-0.606c-0.001-0.039-0.015-0.079-0.017-0.118
				c-0.2-3.728-1.74-5.049-5.596-5.868c-0.335-0.071-0.806,0.008-0.741-0.542c0.081-0.689,0.613-0.333,0.94-0.317
				c1.957,0.096,3.912,0.214,5.866,0.353c1.097,0.077,1.598-0.306,1.593-1.495c-0.033-8.199-0.03-16.397,0.001-24.597
				c0.003-0.82-0.266-0.991-1.021-0.983c-3.319,0.036-6.642-0.054-9.958,0.05C188.58,166.21,187.972,165.81,188.029,164.4z"/>
			<path fill-rule="evenodd" clip-rule="evenodd" fill="#3A5E38" d="M327.122,186.994c2.977-1.311,5.773-2.56,8.59-3.761
				c0.373-0.159,0.877-0.734,1.232-0.174c0.334,0.524-0.338,0.813-0.641,1.129c-3.519,3.663-7.194,7.164-11.107,10.402
				c-0.904,0.75-1.294,1.801-2.023,2.635c-0.487,0.558-0.82,0.728-1.315-0.054c-1.283-2.022-2.634-4.002-3.991-5.976
				c-0.364-0.529-0.45-0.85,0.232-1.169c1.767-0.827,2.314-2.221,2.288-4.178c-0.101-7.354-0.059-14.708-0.019-22.063
				c0.005-0.974-0.213-1.317-1.241-1.276c-2.075,0.082-4.157-0.021-6.233,0.047c-0.825,0.027-1.104-0.321-1.3-1.023
				c-0.174-0.619,0.004-0.751,0.595-0.744c2.278,0.023,4.558-0.033,6.834,0.03c0.949,0.026,1.649-0.202,2.307-0.922
				c0.715-0.78,1.395-2.082,2.329-2.046c0.829,0.033,1.617,1.179,2.417,1.841c0.862,0.713,1.681,1.484,2.585,2.14
				c0.907,0.657,0.622,1.168-0.205,1.342c-1.304,0.273-1.359,1.067-1.354,2.152C327.14,172.48,327.122,179.634,327.122,186.994z"/>
			<path fill-rule="evenodd" clip-rule="evenodd" fill="#3A5E38" d="M44.359,165.787c0.743,0.304,1.317,0.481,1.837,0.76
				c3.041,1.626,6.269,2.181,9.696,1.928c0.911-0.066,1.545-0.298,2.156-0.971c1.931-2.124,1.955-2.103,4.277-0.359
				c1.022,0.767,2.026,1.561,3.073,2.292c0.62,0.435,0.525,0.803-0.099,0.944c-1.34,0.304-1.367,1.195-1.353,2.314
				c0.055,4.276,0.002,8.553,0.04,12.828c0.007,0.8-0.233,1.24-0.987,1.529c-1.467,0.564-2.955,0.948-4.537,0.958
				c-0.561,0.004-0.788-0.163-0.764-0.75c0.039-0.957-0.026-1.919,0.022-2.876c0.032-0.647-0.218-0.807-0.826-0.796
				c-1.877,0.033-3.756,0.033-5.634,0.001c-0.587-0.011-0.761,0.193-0.741,0.758c0.036,0.997-0.021,1.999,0.02,2.996
				c0.026,0.649-0.241,1.049-0.792,1.338c-1.363,0.716-2.796,1.117-4.344,1.202c-0.844,0.046-1.072-0.194-1.064-1.044
				c0.042-4.795,0.02-9.591,0.02-14.387C44.359,171.619,44.359,168.784,44.359,165.787z M57.71,175.914
				c0-1.636-0.011-3.271,0.007-4.906c0.006-0.544-0.035-0.884-0.754-0.864c-1.913,0.053-3.829,0.031-5.743,0.01
				c-0.504-0.006-0.7,0.146-0.697,0.673c0.017,3.43,0.016,6.86,0.001,10.29c-0.002,0.552,0.17,0.781,0.754,0.772
				c1.874-0.026,3.75-0.031,5.623,0.002c0.636,0.012,0.829-0.222,0.819-0.832C57.691,179.344,57.71,177.629,57.71,175.914z"/>
			<path fill-rule="evenodd" clip-rule="evenodd" fill="#3A5E38" d="M23.111,160.52c2.159,0,4.313-0.038,6.464,0.018
				c0.902,0.023,1.568-0.202,2.201-0.882c0.718-0.771,1.384-2.079,2.326-2.031c0.836,0.042,1.62,1.175,2.42,1.835
				c0.863,0.711,1.693,1.467,2.587,2.137c0.737,0.553,0.634,1.108-0.142,1.213c-1.797,0.243-1.58,1.454-1.576,2.69
				c0.021,6.715,0.01,13.43,0.01,20.43c1.628-0.982,3.096-1.881,4.581-2.749c0.222-0.13,0.469-0.543,0.805-0.12
				c0.242,0.305,0.181,0.581-0.042,0.866c-0.147,0.188-0.268,0.396-0.4,0.597c-1.921,2.898-3.969,5.706-6.111,8.444
				c-0.762,0.974-1.55,1.912-1.922,3.135c-0.186,0.61-0.619,1.109-1.055,1.584c-0.373,0.405-0.654,0.492-1.009-0.056
				c-1.368-2.111-2.752-4.212-4.167-6.292c-0.364-0.534-0.179-0.771,0.305-0.98c1.907-0.824,2.445-2.265,2.415-4.316
				c-0.11-7.515-0.061-15.031-0.021-22.547c0.005-0.952-0.155-1.342-1.213-1.271c-1.552,0.103-3.127-0.085-4.672,0.06
				C23.522,162.411,23.152,161.767,23.111,160.52z"/>
			<path fill-rule="evenodd" clip-rule="evenodd" fill="#3A5E38" d="M417.832,168.12c0-5.879,0.015-11.759-0.017-17.639
				c-0.004-0.839,0.076-1.177,1.083-1.043c2.177,0.291,4.378,0.396,6.567,0.6c0.322,0.029,0.832-0.144,0.905,0.33
				c0.061,0.399-0.249,0.881-0.612,0.951c-1.896,0.37-1.472,1.811-1.472,3.047c-0.006,9.799-0.021,19.599,0.022,29.397
				c0.005,1.053-0.349,1.622-1.275,1.999c-1.346,0.547-2.723,0.867-4.179,0.951c-0.874,0.051-1.046-0.261-1.041-1.075
				C417.848,179.8,417.832,173.96,417.832,168.12z"/>
			<path fill-rule="evenodd" clip-rule="evenodd" fill="#3A5E38" d="M102.878,200.57c-1.912-0.032-3.414-1.82-3.138-3.719
				c0.47-3.246,0.853-6.495,0.371-9.779c-0.332-2.256-0.854-2.823-3.098-3.321c-0.463-0.104-1.083-0.014-0.985-0.851
				c0.1-0.844,0.752-0.534,1.089-0.473c2.144,0.39,3.138-0.688,3.895-2.551c3.313-8.161,6.426-16.399,9.673-24.586
				c0.186-0.469,0.06-1.502,0.981-1.242c1.036,0.291,0.264,1.099,0.142,1.587c-2.094,8.353-4.307,16.675-6.067,25.109
				c-0.572,2.738-0.44,5.365,0.667,7.968c1.063,2.497,1.56,5.114,1.114,7.838C107.126,198.963,105.203,200.61,102.878,200.57z"/>
			<path fill-rule="evenodd" clip-rule="evenodd" fill="#3A5E38" d="M223.439,188.883c0.049,0.73-0.096,1.441-0.292,2.13
				c-0.782,2.759-3.377,3.551-5.608,1.738c-0.29-0.235-0.503-0.479-0.553-0.876c-0.683-5.416-2.756-10.372-5.077-15.242
				c-0.583-1.223-1.242-2.409-1.833-3.629c-0.093-0.192-0.494-0.428-0.096-0.693c0.228-0.152,0.477-0.292,0.774-0.103
				c5.981,3.817,11.278,8.184,12.626,15.719C223.437,188.239,223.422,188.563,223.439,188.883z"/>
			<path fill-rule="evenodd" clip-rule="evenodd" fill="#3A5E38" d="M200.63,174.425c-0.168,0.45-0.526,0.782-0.969,0.767
				c-1.16-0.041-1.5,0.73-1.894,1.599c-2.783,6.129-6.397,11.676-11.487,16.168c-0.299,0.265-0.613,0.511-0.923,0.763
				c-0.192,0.155-0.383,0.292-0.611,0.037c-0.172-0.192-0.286-0.384-0.143-0.639c0.078-0.14,0.16-0.276,0.24-0.415
				c3.73-6.515,5.851-13.581,7.167-20.923c0.088-0.493-0.018-1.082,0.875-0.698c2.377,1.024,4.79,1.966,7.186,2.946
				C200.277,174.114,200.533,174.152,200.63,174.425z"/>
			<path fill-rule="evenodd" clip-rule="evenodd" fill="#3A5E38" d="M278.647,152.852c-0.02,3.091-2.779,4.748-5.47,3.403
				c-0.345-0.172-0.583-0.384-0.708-0.749c-1.348-3.945-3.819-7.138-6.714-10.051c-0.192-0.193-0.631-0.318-0.388-0.729
				c0.166-0.283,0.478-0.247,0.758-0.207c2.933,0.413,5.812,1.013,8.406,2.539c2.031,1.195,3.615,2.752,4.076,5.183
				C278.652,152.474,278.639,152.717,278.647,152.852z"/>
			<path fill-rule="evenodd" clip-rule="evenodd" fill="#3A5E38" d="M330.25,153.148c-0.091,1.441-0.554,2.596-1.793,3.282
				c-1.269,0.704-2.539,0.483-3.792-0.099c-0.277-0.129-0.417-0.339-0.529-0.607c-1.579-3.778-4.016-6.974-6.762-9.961
				c-0.188-0.205-0.613-0.37-0.349-0.757c0.163-0.238,0.453-0.275,0.758-0.229c2.977,0.445,5.896,1.085,8.501,2.682
				c1.818,1.113,3.297,2.534,3.813,4.712C330.18,152.518,330.209,152.878,330.25,153.148z"/>
			<path fill-rule="evenodd" clip-rule="evenodd" fill="#3A5E38" d="M131.003,184.373c-0.28,0.472-0.715,0.701-1.209,0.648
				c-0.761-0.081-1.115,0.326-1.504,0.894c-3.01,4.384-6.608,8.19-11.111,11.075c-0.326,0.209-0.68,0.816-1.21,0.23
				c-0.542-0.601,0.14-0.852,0.369-1.166c3.21-4.396,5.396-9.284,6.939-14.471c0.224-0.752,0.408-0.858,1.099-0.522
				c1.968,0.958,3.972,1.843,5.956,2.768C130.591,183.95,130.977,183.957,131.003,184.373z"/>
			<path fill-rule="evenodd" clip-rule="evenodd" fill="#3A5E38" d="M151.271,192.254c-0.011,1.686-0.378,2.883-1.639,3.574
				c-1.126,0.618-2.239,0.348-3.296-0.257c-0.351-0.201-0.599-0.443-0.7-0.896c-0.955-4.27-3.042-8.017-5.41-11.635
				c-0.19-0.291-0.727-0.568-0.362-0.999c0.302-0.355,0.728-0.136,1.106,0.019c2.865,1.173,5.554,2.634,7.703,4.914
				C150.155,188.546,151.243,190.328,151.271,192.254z"/>
			<path fill-rule="evenodd" clip-rule="evenodd" fill="#3A5E38" d="M190.898,150.199c0.624,0,1.055,0,1.486,0
				c5.55,0,11.1-0.013,16.649,0.016c0.711,0.004,1.185-0.192,1.598-0.777c0.828-1.173,1.736-2.289,2.581-3.45
				c0.333-0.458,0.577-0.487,1.017-0.1c1.766,1.558,3.556,3.088,5.358,4.603c0.763,0.641,0.383,1.013-0.271,1.272
				c-0.356,0.142-0.778,0.159-1.17,0.16c-8.584,0.008-17.168-0.023-25.752,0.036C191.013,151.969,191.353,150.991,190.898,150.199z"
				/>
			<path fill-rule="evenodd" clip-rule="evenodd" fill="#3A5E38" d="M35.374,155.778c-1.636-0.012-2.346-0.512-2.904-2.039
				c-1.081-2.957-2.844-5.51-4.724-7.996c-0.178-0.235-0.555-0.432-0.365-0.801c0.184-0.357,0.562-0.246,0.863-0.194
				c2.767,0.479,5.475,1.161,7.771,2.873c1.845,1.375,3.171,3.08,2.645,5.585C38.319,154.821,37.02,155.79,35.374,155.778z"/>
			<path fill-rule="evenodd" clip-rule="evenodd" fill="#3A5E38" d="M252.098,155.57c-1.261-0.045-2.208-0.356-2.749-1.758
				c-1.078-2.791-3.006-5.05-5.053-7.199c-0.242-0.254-0.803-0.428-0.544-0.914c0.225-0.423,0.718-0.257,1.099-0.224
				c2.797,0.237,5.549,0.674,7.984,2.201c1.506,0.944,2.66,2.181,2.834,4.061C255.875,153.954,254.321,155.606,252.098,155.57z"/>
			<path fill-rule="evenodd" clip-rule="evenodd" fill="#3A5E38" d="M54.873,160.841c-3.954,0-7.908-0.001-11.862,0.001
				c-0.517,0.001-0.982,0.074-1.176-0.659c-0.214-0.811-0.158-1.093,0.797-1.084c5.152,0.044,10.304,0.007,15.457,0.037
				c0.708,0.004,1.183-0.168,1.594-0.764c0.703-1.018,1.51-1.961,2.231-2.965c0.365-0.509,0.626-0.688,1.183-0.182
				c1.536,1.396,3.134,2.724,4.688,4.1c0.238,0.211,0.707,0.376,0.5,0.835c-0.173,0.383-0.535,0.594-0.954,0.637
				c-0.396,0.04-0.797,0.042-1.196,0.043C62.382,160.842,58.627,160.841,54.873,160.841z"/>
			<path fill-rule="evenodd" clip-rule="evenodd" fill="#3A5E38" d="M109.704,151.352c-0.045,1.491-0.667,2.588-1.975,3.224
				c-1.389,0.673-2.715,0.368-3.995-0.361c-0.281-0.16-0.353-0.422-0.424-0.688c-0.769-2.833-2.315-5.234-4.11-7.506
				c-0.207-0.262-0.67-0.484-0.483-0.874c0.22-0.457,0.715-0.231,1.084-0.19c2.641,0.297,5.198,0.887,7.432,2.418
				C108.642,148.339,109.624,149.598,109.704,151.352z"/>
			<path fill-rule="evenodd" clip-rule="evenodd" fill="#3A5E38" d="M250.639,165.048c-0.011,1.635-0.555,2.711-1.75,3.347
				c-1.223,0.651-2.464,0.471-3.677-0.128c-0.337-0.166-0.413-0.453-0.515-0.756c-0.962-2.866-2.709-5.222-4.779-7.372
				c-0.255-0.265-0.818-0.472-0.601-0.918c0.228-0.469,0.776-0.27,1.204-0.231c2.603,0.229,5.156,0.66,7.41,2.094
				C249.481,162.068,250.596,163.369,250.639,165.048z"/>
			<path fill-rule="evenodd" clip-rule="evenodd" fill="#3A5E38" d="M101.895,167.971c-1.561,0.02-2.52-0.66-2.994-2.108
				c-0.771-2.354-2.108-4.373-3.711-6.233c-0.149-0.173-0.426-0.329-0.305-0.594c0.124-0.271,0.401-0.361,0.708-0.326
				c2.714,0.308,5.404,0.729,7.675,2.409c1.353,1.001,2.25,2.296,1.93,4.095C104.908,166.844,103.543,167.949,101.895,167.971z"/>
			<path fill-rule="evenodd" clip-rule="evenodd" fill="#3A5E38" d="M401.107,146.887c2.164,0.171,4.421,0.44,6.443,1.618
				c1.479,0.861,2.604,2,2.622,3.857c0.012,1.217-0.521,2.154-1.585,2.757c-1.1,0.623-2.212,0.495-3.333,0.021
				c-0.351-0.148-0.438-0.445-0.55-0.732c-0.977-2.514-2.628-4.536-4.563-6.363c-0.271-0.256-0.861-0.416-0.693-0.859
				c0.185-0.485,0.765-0.27,1.186-0.297C400.753,146.88,400.874,146.887,401.107,146.887z"/>
			<path fill-rule="evenodd" clip-rule="evenodd" fill="#FEFEFE" d="M337.246,32.755c0.603-0.341,1.225-0.354,1.851-0.356
				c2.994-0.008,5.967,0.377,8.948,0.557c3.712,0.224,7.426,0.165,11.136,0.33c3.984,0.177,7.98,0.226,11.949,0.589
				c4.464,0.408,8.929,0.379,13.396,0.474c2.817,0.06,5.618,0.481,8.401,0.952c0.303,0.051,0.605,0.208,0.867,0.38
				c0.549,0.359,1.059,0.856,0.952,1.529c-0.091,0.572-0.684,0.796-1.246,0.963c-2.341,0.693-4.711,0.592-7.09,0.308
				c-2.836-0.339-5.668-0.709-8.506-1.037c-3.473-0.401-6.945-0.806-10.424-1.149c-3.049-0.301-6.108-0.502-9.16-0.778
				c-3.68-0.333-7.362-0.624-11.03-1.104c-2.322-0.304-4.653-0.604-7.013-0.615C339.213,33.792,338.006,33.896,337.246,32.755z"/>
			<path fill-rule="evenodd" clip-rule="evenodd" fill="#FEFEFE" d="M424.532,93.944c0.177,5.911,0.331,11.822,0.539,17.731
				c0.095,2.671,0.299,5.338,0.447,8.007c0.015,0.278,0.016,0.563-0.025,0.837c-0.04,0.261-0.069,0.623-0.417,0.616
				c-0.318-0.007-0.434-0.349-0.465-0.613c-0.118-0.988-0.114-1.982-0.228-2.978c-0.34-3.004-0.501-6.029-0.791-9.04
				c-0.352-3.642-0.771-7.276-1.144-10.916c-0.348-3.402-0.671-6.807-1.01-10.209c-0.235-2.373-0.476-4.746-0.72-7.119
				c-0.073-0.707,0.193-1.315,0.482-1.932c0.268-0.572,0.668-0.827,1.313-0.83c0.695-0.002,1.064,0.43,1.222,0.953
				c0.271,0.905,0.564,1.855,0.556,2.783C424.25,85.476,424.735,89.703,424.532,93.944z"/>
			<path fill-rule="evenodd" clip-rule="evenodd" fill="#FEFEFE" d="M55.13,68.137c3.709,8.798,7.293,17.301,10.873,25.79
				c-0.335,0.298-0.665,0.184-0.962,0.185c-6.112,0.008-12.224,0.001-18.335,0.013c-0.655,0.001-1.071,0.034-0.733-0.884
				C49.014,84.979,52.013,76.701,55.13,68.137z"/>
			<path fill-rule="evenodd" clip-rule="evenodd" fill="#FEFEFE" d="M135.358,160.283c1.837,0,3.676,0.042,5.512-0.02
				c0.812-0.027,1,0.25,0.978,1.011c-0.052,1.756-0.038,3.515-0.005,5.271c0.01,0.575-0.17,0.748-0.744,0.744
				c-3.915-0.021-7.829-0.022-11.743,0.002c-0.595,0.003-0.735-0.202-0.726-0.757c0.029-1.797,0.038-3.596-0.003-5.392
				c-0.016-0.668,0.171-0.892,0.86-0.876C131.443,160.312,133.401,160.283,135.358,160.283z"/>
			<path fill-rule="evenodd" clip-rule="evenodd" fill="#FEFEFE" d="M135.113,175.64c-1.874,0-3.749-0.015-5.623,0.009
				c-0.561,0.007-0.882-0.062-0.864-0.757c0.045-1.714,0.033-3.43,0.004-5.145c-0.009-0.563,0.158-0.76,0.741-0.757
				c3.908,0.021,7.816,0.021,11.725,0.001c0.58-0.004,0.754,0.193,0.745,0.758c-0.028,1.715-0.04,3.431,0.004,5.144
				c0.018,0.7-0.315,0.761-0.871,0.755C139.021,175.626,137.067,175.64,135.113,175.64z"/>
			<path fill-rule="evenodd" clip-rule="evenodd" fill="#FEFEFE" d="M57.71,175.914c0,1.715-0.019,3.43,0.01,5.145
				c0.01,0.61-0.183,0.844-0.819,0.832c-1.874-0.033-3.749-0.028-5.623-0.002c-0.583,0.009-0.756-0.221-0.754-0.772
				c0.015-3.43,0.016-6.86-0.001-10.29c-0.003-0.527,0.193-0.679,0.697-0.673c1.914,0.021,3.83,0.043,5.743-0.01
				c0.72-0.02,0.76,0.32,0.754,0.864C57.699,172.643,57.71,174.278,57.71,175.914z"/>
		</g>
	</g>
</g>
</svg>
