<?xml version="1.0" encoding="utf-8"?>
<!-- Generator: Adobe Illustrator 16.0.0, SVG Export Plug-In . SVG Version: 6.00 Build 0)  -->
<!DOCTYPE svg PUBLIC "-//W3C//DTD SVG 1.1//EN" "http://www.w3.org/Graphics/SVG/1.1/DTD/svg11.dtd">
<svg version="1.1" id="Group_1_1_" xmlns="http://www.w3.org/2000/svg" xmlns:xlink="http://www.w3.org/1999/xlink" x="0px" y="0px"
	 width="480px" height="230.4px" viewBox="0 0 480 230.4" enable-background="new 0 0 480 230.4" xml:space="preserve">
<g id="Layer_4_xA0_Image_1_">
	<g>
		<g>
			<path fill-rule="evenodd" clip-rule="evenodd" fill="#FEFEFE" d="M240.36,203.521c-70.08,0-140.16-0.003-210.24,0.022
				c-0.899,0-1.103-0.203-1.102-1.103c0.024-67.04,0.024-134.081,0-201.121c0-0.899,0.203-1.103,1.102-1.102
				c140.24,0.023,280.48,0.023,420.72,0c0.899,0,1.103,0.203,1.103,1.102c-0.024,67.04-0.024,134.081,0,201.121
				c0,0.899-0.203,1.103-1.103,1.102C380.68,203.518,310.52,203.521,240.36,203.521z M419.111,44.165c0.84,0,1.68-0.001,2.52,0
				c0.672,0.001,0.892,0.267,0.464,0.851c-0.54,0.737-1.034,1.525-1.668,2.175c-4.722,4.835-9.478,9.638-14.214,14.459
				c-2.568,2.614-5.532,4.558-9.001,5.824c-6.778,2.475-11.413,6.952-12.875,14.276c-0.407,2.042,0.076,3.451,1.812,4.48
				c6.157,3.651,15.186,1.214,17.1-6.586c0.364-1.487,0.861-2.951,1.528-4.341c3.509-7.32,9.087-13.021,14.694-18.689
				c0.946-0.956,1.877-0.563,2.029,0.802c0.208,1.86,0.266,3.736,0.453,5.599c0.603,6.008-0.257,11.798-2.628,17.341
				c-1.949,4.559-3.117,9.301-3.374,14.238c-0.258,4.955,0.378,9.84,1.538,14.658c1.887,7.834,5.257,15.031,9.445,21.869
				c1.201,1.96,2.443,3.897,3.732,5.801c1.421,2.1,3.281,2.022,4.609-0.14c0.188-0.304,0.375-0.617,0.496-0.95
				c0.593-1.629,1.253-3.24,1.728-4.903c2.774-9.736,3.996-19.722,4.555-29.794c0.292-5.268,0.173-10.55,0.021-15.825
				c-0.087-3.014-0.636-5.843-3.115-7.945c-1.104-0.936-2.363-1.582-3.618-2.255c-3.924-2.108-6.176-5.377-6.689-9.796
				c-0.308-2.647-0.378-5.328-0.788-7.957c-0.559-3.585,0.257-6.753,2.36-9.643c3.974-5.455,8.053-10.836,11.739-16.493
				c1.846-2.83,1.587-4.961-0.769-7.358c-1.165-1.185-1.994-1.166-3.056,0.155c-2.371,2.947-4.753,5.887-7.054,8.888
				c-1.64,2.138-3.429,4.194-6.284,4.234c-3.438,0.049-6.837,0.627-10.275,0.545c-3.864-0.093-7.084-1.48-9.533-4.544
				c-0.792-0.991-1.441-2.098-2.494-2.882c-7.145-5.317-15.22-7.987-24.06-8.393c-4.554-0.209-9.068,0.381-13.526,1.238
				c-9.11,1.753-17.65,5.105-25.777,9.542c-3.024,1.651-3.08,2.47-0.096,4.317c7.467,4.622,15.021,9.091,23.185,12.418
				c8.04,3.277,16.249,5.78,25.07,5.586c4.899-0.107,9.37-1.495,13.27-4.462C406.058,46.324,412.243,44.264,419.111,44.165z
				 M224.009,66.936c0.01-2.317,0.058-4.634-0.313-6.938c-0.126-0.789-0.409-1.215-1.3-1.374c-3.654-0.65-7.288-1.417-10.934-2.115
				c-7.813-1.497-15.649-1.969-23.409,0.155c-11.917,3.262-20.585,10.357-24.969,22.109c-2.532,6.787-2.69,13.865-1.52,20.933
				c1.841,11.119,7.745,19.354,17.985,24.28c4.705,2.263,9.752,3.254,14.938,3.56c9.91,0.582,19.414-0.935,28.383-5.395
				c1.455-0.724,2.005-1.62,2.057-3.201c0.14-4.278,0.105-8.556,0.128-12.834c0.007-1.279,0.022-2.555,0.311-3.815
				c0.336-1.466,1.157-2.4,2.67-2.721c1.18-0.25,2.369-0.395,3.566-0.403c0.656-0.004,0.843-0.208,0.711-0.834
				c-0.189-0.898-0.368-1.801-0.483-2.711c-0.082-0.65-0.353-0.873-1.014-0.812c-1.233,0.112-2.473,0.17-3.71,0.211
				c-7.836,0.255-15.671,0.303-23.499-0.21c-0.855-0.056-0.938,0.249-0.773,0.938c0.194,0.815,0.374,1.636,0.499,2.464
				c0.107,0.707,0.417,0.964,1.166,0.956c2.239-0.024,4.474,0.12,6.695,0.428c3.379,0.469,4.706,1.832,4.838,5.262
				c0.111,2.875,0.049,5.756,0.068,8.635c0.019,2.726-1.254,4.722-3.476,6.185c-1.174,0.772-2.439,1.349-3.776,1.783
				c-3.871,1.257-7.862,1.406-11.863,1.14c-8.163-0.543-14.79-3.94-19.513-10.771c-6.773-9.796-8.201-25.944-3.15-36.711
				c3.331-7.102,8.41-12.345,16.25-14.274c6.385-1.572,12.758-1.258,19.027,0.788c6.089,1.987,9.887,6.025,10.853,12.428
				c0.219,1.457,0.802,1.791,2.119,1.84c0.941,0.035,1.047-0.322,1.092-1.066C223.824,72.209,223.999,69.577,224.009,66.936z
				 M29.558,122.036c0.24,1.143,0.513,2.265,0.702,3.4c0.131,0.792,0.42,1.099,1.311,1.053c4.391-0.226,8.782-0.438,13.186-0.285
				c3.149,0.108,6.306,0.021,9.529,0.021c-0.282-1.082-0.635-2.303-0.908-3.541c-0.124-0.563-0.351-0.765-0.939-0.812
				c-1.271-0.1-2.541-0.257-3.781-0.597c-3.461-0.947-4.532-2.907-3.338-6.306c1.428-4.064,2.921-8.106,4.36-12.167
				c0.212-0.6,0.465-0.876,1.171-0.873c7.639,0.03,15.279,0.024,22.918,0.009c0.584-0.001,0.921,0.125,1.177,0.724
				c2.145,5.026,4.394,10.009,6.298,15.136c0.865,2.329,0.353,3.242-2.097,3.879c-1.559,0.405-3.152,0.537-4.755,0.508
				c-0.656-0.013-0.858,0.22-0.708,0.851c0.185,0.776,0.376,1.556,0.479,2.346c0.112,0.862,0.455,1.153,1.381,1.07
				c7.667-0.688,15.339-0.532,23.011-0.05c0.569,0.036,1.144,0.005,1.756,0.005c-0.268-1.111-0.539-2.112-0.745-3.127
				c-0.159-0.782-0.433-1.19-1.379-1.198c-2.708-0.022-4.697-1.297-5.967-3.723c-0.797-1.521-1.572-3.05-2.214-4.644
				c-7.265-18.018-14.528-36.036-21.797-54.052c-0.431-1.07-0.631-2.533-1.434-3.068c-0.811-0.54-2.248-0.071-3.395-0.192
				c-1.004-0.106-1.364,0.33-1.687,1.2c-5.664,15.3-11.348,30.593-17.056,45.877c-1.493,3.997-2.813,8.063-4.591,11.949
				c-1.534,3.351-4.101,5.443-7.745,6.151C31.404,121.753,30.498,121.881,29.558,122.036z M121.254,90.392
				c0-9.08-0.001-18.16,0.001-27.24c0-1.372,0.448-2.029,1.702-2.154c4.35-0.435,8.714-0.643,12.994,0.479
				c4.388,1.15,7.918,3.401,9.395,8.012c0.442,1.381,0.606,2.807,0.719,4.243c0.562,7.185-3.302,13.133-10.095,15.546
				c-3.734,1.327-7.591,1.424-11.484,1.134c-0.35-0.026-0.681-0.218-0.878,0.288c-0.634,1.63,0.625,3.905,2.344,4.099
				c5.279,0.594,10.447-0.005,15.504-1.585c2.805-0.876,5.425-2.156,7.726-3.995c5.424-4.335,6.729-10.21,6.18-16.766
				c-0.594-7.096-4.384-11.691-10.958-14.174c-3.283-1.24-6.678-1.88-10.162-2.116c-2.277-0.154-4.557-0.105-6.835-0.028
				c-7.517,0.253-15.033,0.376-22.55,0.014c-0.856-0.042-1.141,0.169-0.912,1.03c0.215,0.809,0.382,1.635,0.5,2.464
				c0.096,0.676,0.428,0.904,1.093,0.958c1.152,0.094,2.309,0.236,3.44,0.471c2.731,0.565,3.303,1.308,3.303,4.089
				c0,17.48,0.001,34.959-0.004,52.439c0,0.517-0.045,1.036-0.107,1.549c-0.168,1.414-0.979,2.225-2.374,2.463
				c-0.866,0.147-1.737,0.267-2.599,0.437c-1.009,0.2-2.485-0.156-2.919,0.577c-0.406,0.688,0.263,1.968,0.34,2.996
				c0.069,0.919,0.437,1.158,1.352,1.147c5.319-0.059,10.634-0.372,15.955-0.262c3.319,0.068,6.638,0.103,9.956,0.202
				c0.788,0.023,0.998-0.194,0.777-0.941c-0.226-0.765-0.466-1.54-0.553-2.326c-0.099-0.89-0.523-1.078-1.343-1.051
				c-2.122,0.069-4.239-0.073-6.323-0.501c-1.945-0.397-2.804-1.333-3.083-3.306c-0.083-0.59-0.097-1.194-0.097-1.793
				C121.252,107.992,121.254,99.192,121.254,90.392z M335.649,56.587c0.293,1.097,0.616,2.24,0.899,3.394
				c0.133,0.539,0.396,0.73,0.975,0.78c1.873,0.161,3.737,0.421,5.413,1.372c1.717,0.974,2.375,2.376,2.059,4.315
				c-0.109,0.672-0.29,1.319-0.523,1.961c-4.923,13.53-9.834,27.064-14.751,40.597c-0.343,0.944-0.713,1.877-1.168,3.072
				c-0.867-2.252-1.626-4.214-2.379-6.179c-5.181-13.52-10.359-27.04-15.541-40.56c-0.892-2.329-0.352-3.447,2.066-4.075
				c1.552-0.403,3.147-0.597,4.751-0.529c0.832,0.035,0.938-0.292,0.77-0.981c-0.209-0.853-0.39-1.713-0.545-2.577
				c-0.101-0.566-0.334-0.772-0.955-0.718c-6.784,0.594-13.577,0.566-20.373,0.218c-1.552-0.08-3.103-0.144-4.747-0.22
				c0.278,1.161,0.57,2.232,0.785,3.319c0.143,0.728,0.452,1.062,1.249,1.067c2.743,0.018,4.657,1.372,5.94,3.762
				c0.849,1.582,1.765,3.124,2.39,4.817c6.611,17.924,13.228,35.847,19.849,53.767c0.399,1.081,0.561,2.554,1.35,3.103
				c0.789,0.55,2.232,0.104,3.377,0.218c0.962,0.096,1.37-0.262,1.701-1.156c5.77-15.6,11.564-31.189,17.384-46.771
				c1.395-3.734,2.623-7.536,4.29-11.165c1.524-3.318,3.991-5.515,7.624-6.341c0.931-0.211,2.348,0.063,2.677-0.69
				c0.323-0.74-0.362-1.89-0.505-2.875c-0.13-0.896-0.537-1.136-1.427-1.072c-6.069,0.438-12.145,0.363-18.22,0.155
				C338.629,56.545,337.193,56.587,335.649,56.587z M141.07,154.025c0.013-0.062,0.025-0.123,0.037-0.185
				c4.918,0,9.837,0.002,14.755-0.003c0.438-0.001,0.894,0.021,1.309-0.089c0.91-0.239,1.05-0.783,0.342-1.389
				c-1.823-1.559-3.689-3.065-5.511-4.625c-0.458-0.392-0.688-0.322-1.02,0.14c-0.861,1.202-1.801,2.348-2.649,3.559
				c-0.386,0.552-0.812,0.745-1.481,0.741c-4.439-0.029-8.888-0.193-13.315,0.033c-4.647,0.238-9.034-0.44-13.249-2.402
				c-1.214-0.564-1.245-0.479-1.258,0.861c-0.102,10.074,0.331,20.158-0.479,30.22c-0.576,7.162-1.836,14.173-4.843,20.773
				c-0.141,0.308-0.621,0.645-0.12,1.025c0.521,0.396,0.797-0.091,1.094-0.373c2.455-2.338,4.434-5.035,5.981-8.044
				c3.438-6.688,4.556-13.913,4.858-21.314c0.246-6.036,0.094-12.076,0.13-18.114c0.003-0.499-0.151-1.024,0.719-1.015
				c3.479,0.039,6.958,0.031,10.438,0.002c0.623-0.005,0.74,0.222,0.686,0.772c-0.174,1.75-0.305,3.504-0.474,5.255
				c-0.128,1.331-0.326,1.482-1.665,1.275c-0.349-0.054-0.688-0.2-1.02-0.333c-1.629-0.651-3.268-1.284-4.876-1.985
				c-0.689-0.3-0.802-0.098-0.801,0.561c0.014,7.559,0.019,15.117-0.006,22.676c-0.002,0.716,0.247,0.864,0.898,0.846
				c1.634-0.044,3.154-0.455,4.569-1.257c0.338-0.191,0.785-0.385,0.741-0.854c-0.073-0.765,0.327-0.839,0.923-0.788
				c0.437,0.036,0.889,0.063,1.317-0.005c0.994-0.158,1.161,0.294,1.151,1.188c-0.044,4.239-0.019,8.479-0.02,12.718
				c-0.001,1.614-0.107,1.737-1.697,1.685c-1.558-0.053-3.115-0.159-4.672-0.227c-0.249-0.011-0.597-0.152-0.685,0.263
				c-0.096,0.456,0.266,0.514,0.571,0.601c0.191,0.055,0.392,0.077,0.585,0.128c2.757,0.716,3.93,2.094,4.214,4.96
				c0.04,0.398,0.065,0.798,0.076,1.197c0.01,0.395,0.168,0.59,0.585,0.545c3.747-0.394,7.266-1.622,7.529-6.433
				c0.278-5.073,0.1-10.155,0.079-15.232c-0.005-1.189,0.33-1.586,1.453-1.383c0.116,0.021,0.242,0.02,0.359,0
				c1.064-0.174,1.695,0.095,1.448,1.345c-0.131,0.667,0.16,0.886,0.845,0.874c1.585-0.026,3.072-0.421,4.542-0.969
				c0.771-0.287,1.092-0.694,1.083-1.581c-0.051-4.718-0.002-9.438-0.041-14.156c-0.009-1.059-0.002-1.905,1.318-2.187
				c0.745-0.159,0.936-0.612,0.126-1.18c-1.472-1.032-2.93-2.097-4.294-3.264c-0.879-0.753-1.513-0.85-2.165,0.177
				c-1.153,1.813-2.803,2.343-4.902,2.127c-1.67-0.171-3.372-0.034-5.06-0.034c-0.033-0.105-0.065-0.211-0.098-0.315
				c2.27-1.16,3.3-3.872,5.97-4.55c0.371-0.094,0.79-0.435,0.723-0.854c-0.062-0.394-0.573-0.322-0.905-0.403
				C143.837,154.69,142.454,154.359,141.07,154.025z M259.912,56.162c0.261,1.305,0.526,2.505,0.729,3.717
				c0.085,0.511,0.357,0.631,0.807,0.68c1.151,0.125,2.306,0.247,3.445,0.444c2.797,0.485,3.418,1.246,3.418,4.082
				c0.001,17.596,0,35.191,0,52.787c-0.001,0.4,0.015,0.803-0.022,1.199c-0.133,1.437-0.663,2.058-2.067,2.407
				c-1.594,0.396-3.224,0.563-4.854,0.718c-2.037,0.193-2.038,0.194-1.704,2.148c0.074,0.433,0.225,0.864,0.224,1.296
				c0,0.963,0.468,1.147,1.354,1.124c7.074-0.18,14.149-0.394,21.227-0.055c0.838,0.041,1.679,0.021,2.519,0.043
				c0.396,0.01,0.738,0,0.619-0.557c-0.26-1.21-0.243-2.59-0.86-3.573c-0.408-0.65-1.779-0.352-2.718-0.485
				c-0.355-0.051-0.707-0.13-1.062-0.189c-3.081-0.517-3.635-1.158-3.635-4.237c-0.001-17.516-0.001-35.032,0.002-52.548
				c0-0.519,0.024-1.039,0.067-1.556c0.097-1.186,0.741-1.927,1.903-2.146c1.333-0.25,2.68-0.431,4.019-0.654
				c0.973-0.162,2.426,0.212,2.805-0.515c0.382-0.733-0.263-1.97-0.363-2.995c-0.092-0.944-0.489-1.195-1.443-1.157
				c-7.754,0.315-15.51,0.33-23.265,0.023C260.702,56.149,260.347,56.162,259.912,56.162z M264.115,160.817
				c0.118-0.059,0.236-0.117,0.354-0.176c-0.132,1.507,0.758,1.432,1.69,1.424c3.399-0.027,6.8,0.014,10.199-0.028
				c0.802-0.01,1.103,0.151,1.094,1.035c-0.046,4.6-0.041,9.199-0.003,13.799c0.007,0.794-0.221,0.994-0.996,0.985
				c-3.64-0.039-7.28-0.021-10.92-0.01c-0.339,0.001-0.882-0.183-0.976,0.142c-0.105,0.367,0.082,0.859,0.246,1.254
				c0.203,0.49,0.698,0.276,1.065,0.277c3.52,0.016,7.039,0.028,10.559-0.006c0.74-0.007,1.029,0.133,1.023,0.964
				c-0.038,5.76-0.038,11.52,0,17.279c0.005,0.821-0.269,0.975-1.018,0.97c-4.68-0.031-9.359-0.019-14.039-0.01
				c-0.344,0.001-0.83-0.18-1.004,0.137c-0.215,0.394,0.093,0.854,0.241,1.257c0.19,0.516,0.692,0.279,1.049,0.28
				c12.56,0.013,25.118,0.011,37.678,0.007c0.317,0,0.649,0.001,0.949-0.084c0.975-0.277,1.095-0.793,0.319-1.465
				c-1.842-1.6-3.724-3.152-5.551-4.769c-0.552-0.488-0.803-0.356-1.182,0.181c-0.896,1.275-1.877,2.489-2.777,3.762
				c-0.36,0.511-0.752,0.721-1.386,0.704c-1.679-0.045-3.36-0.06-5.038,0.004c-0.817,0.03-1.081-0.164-1.074-1.034
				c0.042-5.719,0.042-11.438,0-17.158c-0.007-0.878,0.273-1.036,1.079-1.028c3.999,0.041,7.999,0.022,11.999,0.014
				c0.436-0.001,0.894,0.002,1.302-0.124c0.845-0.261,0.947-0.752,0.28-1.344c-1.705-1.512-3.449-2.979-5.148-4.499
				c-0.502-0.448-0.801-0.363-1.115,0.165c-0.162,0.273-0.428,0.493-0.559,0.777c-1.356,2.946-3.677,3.845-6.771,3.379
				c-0.771-0.116-1.076-0.178-1.067-1.05c0.048-4.56,0.05-9.119-0.001-13.679c-0.01-0.914,0.247-1.125,1.134-1.116
				c4.438,0.047,8.879,0.026,13.318,0.015c0.515-0.001,1.065,0.007,1.535-0.165c0.681-0.249,0.967-0.675,0.23-1.291
				c-1.87-1.565-3.722-3.153-5.558-4.759c-0.445-0.389-0.694-0.34-1.033,0.127c-0.869,1.196-1.816,2.337-2.67,3.543
				c-0.437,0.618-0.92,0.84-1.688,0.836c-6.84-0.034-13.68-0.02-20.519-0.02c-1.635,0-3.269,0-5.052,0
				c0.316-1.013,0.646-1.908,0.862-2.829c0.1-0.426,0.745-1.004-0.006-1.333c-0.789-0.345-0.742,0.522-0.937,0.908
				c-0.61,1.211-1.143,2.46-1.717,3.689c-3.43,7.338-6.711,14.743-10.254,22.028c-0.952,1.956-2.086,3.226-4.451,2.754
				c-0.355-0.071-0.899-0.229-0.91,0.539c-0.01,0.693,0.435,0.6,0.86,0.674c2.256,0.394,2.958,1.172,3.3,3.44
				c0.459,3.051,0.084,6.063-0.338,9.074c-0.271,1.935,1.132,3.688,3.069,3.773c2.899,0.127,5.027-1.854,5.209-4.774
				c0.161-2.587-0.486-4.997-1.54-7.31c-0.868-1.903-0.943-3.823-0.542-5.847c0.88-4.437,2.322-8.71,3.654-13.016
				C261.741,168.329,262.934,164.575,264.115,160.817z M406.989,179.368c-1.611-4.35-2.555-8.545-3.11-12.835
				c-0.071-0.55-0.067-0.867,0.643-0.949c4.565-0.528,9.124-1.103,13.685-1.67c1.149-0.143,2.299-0.296,3.441-0.482
				c0.462-0.075,0.817-0.401,0.931-0.847c0.119-0.471-0.383-0.555-0.654-0.734c-1.73-1.148-3.492-2.252-5.212-3.416
				c-0.592-0.4-0.915-0.395-1.297,0.27c-0.697,1.21-1.498,2.36-2.24,3.545c-0.242,0.388-0.49,0.655-1.008,0.713
				c-2.541,0.283-5.079,0.6-7.613,0.942c-0.75,0.101-1.053-0.075-1.115-0.896c-0.288-3.79-0.504-7.58-0.49-11.383
				c0.004-1.15-0.197-2.295,1.396-2.6c0.415-0.08,0.797-0.568,0.699-1.006c-0.101-0.449-0.67-0.305-1.032-0.343
				c-2.424-0.26-4.855-0.453-7.276-0.74c-0.775-0.092-0.737,0.302-0.738,0.816c-0.01,5.402,0.225,10.794,0.868,16.16
				c0.087,0.725-0.016,0.955-0.779,1.035c-2.42,0.253-4.829,0.601-7.253,0.913c0.458,1.603,0.459,1.613,1.95,1.439
				c1.786-0.208,3.573-0.407,5.352-0.668c0.714-0.104,1.021-0.041,1.147,0.813c0.925,6.302,2.406,12.462,5.069,18.281
				c0.331,0.724,0.285,1.188-0.172,1.815c-3.521,4.831-7.753,8.923-12.642,12.351c-0.364,0.257-1.1,0.386-0.653,1.133
				c0.422,0.706,0.858,0.101,1.206-0.057c5.206-2.36,9.983-5.388,14.115-9.358c0.744-0.715,0.978-0.501,1.431,0.227
				c0.696,1.117,1.473,2.191,2.297,3.218c1.956,2.435,3.948,4.845,6.738,6.403c1.519,0.849,3.109,1.474,4.896,1.333
				c2.371-0.188,3.342-1.604,2.67-3.855c-0.299-1.001-0.747-1.937-1.261-2.839c-0.287-0.505-0.401-0.99-0.306-1.589
				c0.435-2.722,0.837-5.449,1.199-8.181c0.053-0.401,0.44-1.058-0.205-1.232c-0.556-0.151-0.57,0.548-0.748,0.905
				c-1.047,2.11-2.062,4.235-3.285,6.252c-0.446,0.734-0.954,1.055-1.727,0.374c-2.201-1.945-4.101-4.143-5.682-6.622
				c-0.308-0.483-0.273-0.806,0.057-1.267c2.756-3.848,4.944-8.013,6.812-12.352c0.523-1.215,0.661-2.781,2.615-2.588
				c0.313,0.031,0.717-0.313,0.723-0.695c0.005-0.297-0.4-0.319-0.655-0.414c-2.32-0.856-4.645-1.701-6.957-2.58
				c-0.581-0.221-0.823-0.114-0.997,0.512c-0.427,1.537-0.906,3.061-1.42,4.571C409.479,173.9,408.426,176.555,406.989,179.368z
				 M188.434,161.291c-0.091-0.042-0.182-0.085-0.272-0.128c0-3.271,0-6.541,0-9.813c0-1.063-0.328-2.313,1.394-2.39
				c0.165-0.008,0.339-0.202,0.476-0.343c0.198-0.202,0.363-0.453,0.301-0.749c-0.084-0.397-0.445-0.249-0.691-0.274
				c-2.344-0.248-4.693-0.452-7.032-0.735c-0.882-0.107-1.168,0.088-1.155,1.039c0.056,4.117-0.001,8.235,0.045,12.353
				c0.009,0.851-0.225,1.076-1.061,1.048c-1.917-0.063-3.837-0.038-5.756-0.002c-0.323,0.007-1.021-0.357-0.905,0.455
				c0.08,0.559-0.018,1.325,1.002,1.278c1.396-0.063,2.797-0.016,4.197-0.016c1.445,0.001,1.47,0.006,1.227,1.445
				c-1.383,8.175-3.28,16.189-7.39,23.508c-0.185,0.328-0.336,0.586,0.04,0.929c0.426,0.39,0.627,0.081,0.877-0.167
				c0.368-0.367,0.732-0.737,1.091-1.113c2.456-2.564,4.609-5.365,6.488-8.467c0.281,0.468,0.161,0.867,0.162,1.241
				c0.009,7.116,0.038,14.232-0.024,21.349c-0.01,1.162,0.367,1.384,1.404,1.327c1.465-0.08,2.828-0.45,4.142-1.066
				c0.839-0.394,1.199-0.959,1.195-1.964c-0.044-9.635-0.026-19.27-0.026-28.904c0-0.406,0-0.813,0-1.472
				c1.256,2.192,2.047,4.729,2.361,7.393c0.042,0.356,0.053,0.676,0.361,0.961c1.772,1.64,4.527,0.9,5.196-1.417
				c0.475-1.642-0.059-3.072-0.982-4.396c-1.152-1.652-2.708-2.97-4.554-3.578c-2.13-0.702-2.622-1.938-2.416-3.958
				c0.167-1.637,0.034-1.647,1.663-1.65c2.119-0.005,4.237-0.011,6.356-0.022c0.501-0.002,0.985-0.13,1.23-0.599
				c0.296-0.565-0.295-0.764-0.57-1.027c-1.44-1.385-2.945-2.704-4.367-4.106c-0.59-0.582-0.846-0.408-1.243,0.178
				C190.312,158.746,189.359,160.01,188.434,161.291z M351.113,186.733c0,4.997,0.03,9.994-0.026,14.99
				c-0.012,0.992,0.317,1.17,1.207,1.15c1.766-0.039,3.378-0.515,4.899-1.377c0.791-0.448,1.157-1.03,1.152-2.019
				c-0.042-9.154-0.002-18.31-0.054-27.464c-0.007-1.138,0.337-1.36,1.392-1.345c4.076,0.06,8.154,0.026,12.232,0.021
				c0.479-0.001,0.961-0.015,1.434-0.084c0.361-0.053,0.693-0.25,0.842-0.606c0.192-0.462-0.247-0.628-0.492-0.839
				c-1.514-1.304-3.034-2.601-4.574-3.873c-1.854-1.531-2.071-1.638-3.269,0.466c-1.511,2.655-3.503,3.73-6.503,3.247
				c-0.782-0.126-1.061-0.206-1.054-1.063c0.042-5.356,0.017-10.713,0.024-16.07c0.002-1.048-0.361-2.32,1.363-2.431
				c0.163-0.011,0.338-0.212,0.463-0.361c0.176-0.21,0.391-0.444,0.296-0.746c-0.115-0.367-0.468-0.221-0.718-0.246
				c-2.463-0.257-4.941-0.41-7.387-0.784c-1.209-0.184-1.252,0.267-1.246,1.219c0.033,6.276,0.018,12.553,0.018,18.829
				c0,1.612,0,1.612-1.653,1.612c-3.718,0-7.436,0.017-11.153-0.014c-0.731-0.006-0.991,0.099-0.776,0.918
				c0.18,0.688,0.486,0.85,1.148,0.844c3.797-0.029,7.596,0.012,11.393-0.034c0.846-0.01,1.066,0.233,1.061,1.068
				C351.093,176.738,351.113,181.735,351.113,186.733z M75.878,174.762c0,6.439,0.001,12.879,0,19.317
				c0,2.11-0.16,2.303-2.247,2.215c-2.876-0.121-5.749-0.314-8.624-0.459c-0.276-0.014-0.698-0.212-0.786,0.273
				c-0.1,0.556,0.396,0.514,0.711,0.588c0.971,0.229,1.959,0.387,2.922,0.645c2.649,0.709,4.699,2.046,4.999,5.07
				c0.063,0.627,0.402,0.655,0.895,0.589c1.464-0.199,2.933-0.365,4.354-0.795c3.133-0.946,4.385-2.501,4.629-5.768
				c0.039-0.518,0.03-1.039,0.03-1.56c0.001-12.358,0-24.717,0.003-37.075c0-1.441-0.423-3.081,1.754-3.478
				c0.454-0.082,0.825-0.481,0.149-0.993c-1.912-1.447-3.792-2.938-5.663-4.438c-0.402-0.322-0.638-0.321-0.966,0.086
				c-0.652,0.809-1.394,1.548-2.02,2.375c-0.485,0.642-1.049,0.824-1.834,0.821c-7.919-0.027-15.838-0.019-23.757-0.01
				c-0.337,0.001-0.833-0.192-0.984,0.146c-0.199,0.447,0.097,0.957,0.317,1.356c0.219,0.398,0.73,0.206,1.111,0.206
				c7.879,0.009,15.758,0.026,23.637-0.017c1.053-0.006,1.41,0.203,1.399,1.347C75.847,161.724,75.878,168.242,75.878,174.762z
				 M435.833,171.119c0,7.475,0.002,14.949-0.002,22.424c-0.001,1.403-0.206,1.634-1.595,1.593c-2.076-0.063-4.15-0.212-6.228-0.253
				c-0.491-0.01-1.328-0.476-1.455,0.211c-0.166,0.906,0.85,0.596,1.32,0.72c2.77,0.732,4.923,2,5.422,5.155
				c0.344,2.173,0.428,2.16,2.617,1.795c5.174-0.863,6.886-2.895,6.888-8.175c0-0.2,0-0.4,0-0.6c0-13.91,0.003-27.819-0.005-41.729
				c-0.001-1.092-0.252-2.279,1.371-2.45c0.105-0.012,0.211-0.111,0.301-0.188c0.246-0.213,0.505-0.473,0.466-0.799
				c-0.057-0.476-0.506-0.271-0.774-0.3c-2.383-0.253-4.778-0.408-7.149-0.742c-1.097-0.154-1.202,0.21-1.197,1.155
				C435.849,156.33,435.833,163.725,435.833,171.119z M194.221,167.04c0.351,1.733,0.351,1.733,1.949,1.733
				c3.32,0.001,6.64,0.024,9.959-0.017c0.787-0.01,1.003,0.214,1,1.005c-0.029,8.198-0.03,16.397-0.003,24.597
				c0.004,1.097-0.416,1.547-1.49,1.475c-2.034-0.138-4.069-0.261-6.105-0.373c-0.307-0.017-0.772-0.269-0.809,0.356
				c-0.026,0.468,0.33,0.462,0.648,0.512c3.386,0.529,5.639,2.155,5.699,5.899c0.001,0.079,0.029,0.158,0.034,0.237
				c0.027,0.404,0.217,0.531,0.632,0.479c1.708-0.219,3.404-0.464,4.977-1.227c1.74-0.844,2.782-2.211,3.145-4.114
				c0.166-0.869,0.225-1.74,0.225-2.623c-0.005-8.279,0.015-16.559-0.025-24.838c-0.005-1.041,0.185-1.423,1.339-1.399
				c3.998,0.082,7.999,0.034,11.998,0.027c0.478,0,0.974,0.017,1.432-0.095c0.914-0.224,1.049-0.767,0.335-1.376
				c-1.945-1.662-3.926-3.282-5.87-4.946c-0.48-0.411-0.744-0.391-1.115,0.144c-0.889,1.279-1.88,2.488-2.755,3.777
				c-0.411,0.605-0.87,0.784-1.58,0.782c-7.439-0.025-14.878-0.016-22.318-0.016C195.098,167.04,194.67,167.04,194.221,167.04z
				 M317.78,163.439c-0.018,1.303,0.442,1.854,1.782,1.767c1.91-0.123,3.839,0.043,5.752-0.06c1.112-0.059,1.301,0.335,1.295,1.349
				c-0.043,7.354-0.081,14.71,0.016,22.063c0.025,1.914-0.529,3.273-2.244,4.079c-0.753,0.354-0.631,0.688-0.236,1.256
				c1.321,1.901,2.647,3.804,3.858,5.775c0.594,0.968,1.075,0.826,1.509,0.04c0.79-1.432,1.939-2.497,3.17-3.523
				c1.196-0.998,2.36-2.038,3.484-3.117c2.248-2.158,4.461-4.354,6.682-6.541c0.242-0.238,0.631-0.495,0.324-0.898
				c-0.267-0.352-0.57-0.03-0.844,0.079c-0.333,0.133-0.659,0.282-0.988,0.426c-2.619,1.146-5.238,2.291-7.979,3.489
				c0-0.597,0-1.027,0-1.459c0-6.675,0.018-13.351-0.017-20.025c-0.006-1.131-0.046-2.07,1.413-2.352
				c0.763-0.146,1.038-0.656,0.182-1.28c-0.935-0.681-1.781-1.481-2.677-2.217c-0.799-0.655-1.637-1.82-2.415-1.787
				c-0.781,0.033-1.563,1.224-2.247,1.994c-0.635,0.716-1.318,0.994-2.287,0.967C322.804,163.392,320.291,163.439,317.78,163.439z
				 M50.6,168.436c0,0.597,0,1.033,0,1.47c0,7.154,0.021,14.309-0.024,21.462c-0.006,0.97,0.273,1.217,1.196,1.151
				c1.503-0.105,2.897-0.504,4.223-1.2c0.554-0.292,0.812-0.696,0.786-1.344c-0.041-0.997,0.017-1.998-0.02-2.996
				c-0.021-0.573,0.167-0.76,0.75-0.75c1.878,0.033,3.757,0.035,5.635,0c0.621-0.012,0.848,0.171,0.816,0.806
				c-0.046,0.917,0.031,1.841-0.025,2.756c-0.044,0.712,0.24,0.88,0.898,0.863c1.541-0.038,2.987-0.419,4.417-0.964
				c0.761-0.29,0.983-0.744,0.976-1.537c-0.037-4.236-0.002-8.473-0.028-12.709c-0.007-1.098-0.119-2.132,1.353-2.431
				c0.655-0.133,0.667-0.527,0.076-0.943c-1.11-0.781-2.18-1.62-3.268-2.434c-2.122-1.588-2.162-1.622-3.904,0.34
				c-0.725,0.815-1.482,1.072-2.565,1.147c-3.272,0.225-6.335-0.319-9.232-1.858C52.067,168.951,51.412,168.759,50.6,168.436z
				 M43.643,188.565c0-0.562,0-0.876,0-1.19c0-6.437,0.013-12.873-0.011-19.31c-0.005-1.208-0.196-2.348,1.538-2.596
				c0.873-0.125,0.879-0.718,0.127-1.283c-0.957-0.721-1.847-1.529-2.776-2.286c-0.739-0.604-1.512-1.668-2.239-1.643
				c-0.714,0.025-1.452,1.112-2.067,1.83c-0.708,0.825-1.491,1.155-2.594,1.098c-1.834-0.097-3.677-0.036-5.516-0.016
				c-0.267,0.003-0.672-0.202-0.778,0.269c-0.148,0.66,0.546,1.445,1.278,1.448c1.719,0.007,3.441,0.063,5.156-0.021
				c0.977-0.047,1.269,0.195,1.262,1.222c-0.048,7.596-0.085,15.193,0.015,22.788c0.025,1.924-0.52,3.271-2.271,4.033
				c-0.815,0.355-0.691,0.722-0.272,1.33c1.246,1.809,2.435,3.655,3.647,5.486c0.813,1.229,0.979,1.23,1.859-0.009
				c0.207-0.292,0.443-0.596,0.536-0.931c0.366-1.315,1.249-2.295,2.056-3.331c2.186-2.806,4.276-5.681,6.233-8.652
				c0.242-0.367,0.601-0.744,0.15-1.152c-0.382-0.345-0.642,0.122-0.913,0.279C46.656,186.745,45.266,187.593,43.643,188.565z
				 M424.072,170.64c0,5.88,0.016,11.76-0.019,17.639c-0.005,0.814,0.168,1.126,1.041,1.075c1.456-0.083,2.833-0.404,4.179-0.951
				c0.927-0.377,1.281-0.945,1.276-1.999c-0.045-9.799-0.029-19.598-0.023-29.397c0.001-1.236-0.423-2.677,1.473-3.047
				c0.362-0.07,0.673-0.552,0.611-0.95c-0.072-0.475-0.583-0.301-0.905-0.331c-2.188-0.204-4.39-0.309-6.566-0.599
				c-1.007-0.135-1.088,0.203-1.083,1.042C424.086,158.961,424.072,164.801,424.072,170.64z M109.201,203.21
				c2.352-0.022,4.185-1.664,4.573-4.101c0.462-2.903-0.239-5.631-1.3-8.292c-0.755-1.895-1.06-3.817-0.729-5.857
				c0.979-6.033,2.634-11.909,4.079-17.834c0.765-3.137,1.598-6.257,2.396-9.386c0.115-0.45,0.366-0.96-0.379-1.122
				c-0.731-0.16-0.598,0.508-0.728,0.834c-3.303,8.292-6.442,16.648-9.801,24.921c-0.787,1.937-1.791,3.128-4.034,2.67
				c-0.153-0.031-0.319,0.001-0.479-0.003c-0.318-0.006-0.556,0.078-0.517,0.465c0.03,0.291-0.136,0.673,0.346,0.762
				c0.196,0.036,0.392,0.077,0.587,0.12c2.316,0.508,2.803,1.047,3.145,3.407c0.47,3.244,0.088,6.455-0.374,9.661
				C105.703,201.431,107.228,203.229,109.201,203.21z M229.667,191.666c0.003-2.377-0.906-5.061-2.55-7.584
				c-2.335-3.584-5.512-6.289-9.078-8.563c-0.514-0.328-1.098-1.188-1.742-0.553c-0.5,0.494,0.246,1.088,0.5,1.59
				c2.891,5.704,5.56,11.485,6.421,17.915c0.06,0.444,0.292,0.71,0.621,0.964c2.292,1.771,4.812,0.942,5.565-1.854
				C229.582,192.927,229.725,192.258,229.667,191.666z M206.904,176.922c-2.502-1.026-5.012-2.032-7.498-3.093
				c-0.76-0.324-1.026-0.306-1.19,0.644c-1.211,7.03-3.263,13.792-6.684,20.092c-0.209,0.386-0.433,0.763-0.662,1.137
				c-0.185,0.302-0.072,0.524,0.155,0.733c0.254,0.232,0.431,0.033,0.612-0.109c0.251-0.197,0.5-0.398,0.741-0.607
				c5.181-4.521,8.835-10.133,11.651-16.337c0.376-0.828,0.708-1.557,1.809-1.537C206.33,177.853,206.726,177.528,206.904,176.922z
				 M284.887,155.08c-0.149-2.053-1.594-3.767-3.625-5.081c-2.712-1.756-5.784-2.402-8.919-2.845
				c-0.285-0.04-0.586-0.05-0.753,0.226c-0.215,0.354,0.159,0.479,0.332,0.65c2.939,2.927,5.434,6.151,6.795,10.136
				c0.109,0.319,0.312,0.528,0.608,0.692C281.962,160.323,284.877,158.604,284.887,155.08z M336.489,155.69
				c-0.046-0.259-0.09-0.615-0.175-0.962c-0.461-1.901-1.703-3.221-3.26-4.282c-2.713-1.849-5.821-2.538-8.997-3.025
				c-0.354-0.055-0.697-0.001-0.846,0.286c-0.151,0.29,0.192,0.479,0.375,0.676c2.753,2.979,5.193,6.173,6.776,9.95
				c0.108,0.26,0.226,0.488,0.513,0.623c1.249,0.589,2.518,0.823,3.791,0.13C335.958,158.384,336.423,157.192,336.489,155.69z
				 M129.982,183.448c-0.443,0.022-0.343,0.477-0.433,0.771c-1.567,5.095-3.696,9.918-6.818,14.273
				c-0.273,0.38-1.066,0.715-0.514,1.341c0.635,0.718,1.077-0.141,1.483-0.402c4.079-2.627,7.37-6.076,10.213-9.976
				c0.66-0.905,1.104-2.057,2.58-1.87c0.274,0.034,0.65-0.222,0.718-0.551c0.093-0.445-0.373-0.438-0.627-0.558
				c-2.018-0.947-4.045-1.875-6.07-2.808C130.37,183.603,130.22,183.547,129.982,183.448z M157.513,194.927
				c-0.023-1.945-1.108-3.729-2.588-5.303c-2.147-2.282-4.833-3.746-7.7-4.918c-0.377-0.153-0.794-0.383-1.108-0.034
				c-0.391,0.434,0.156,0.709,0.343,0.995c2.367,3.618,4.456,7.365,5.415,11.633c0.101,0.449,0.336,0.703,0.689,0.904
				c1.055,0.604,2.167,0.883,3.296,0.271C157.125,197.79,157.497,196.595,157.513,194.927z M197.282,152.969
				c0.26,0.704-0.016,1.638,1.353,1.629c8.584-0.057,17.169-0.027,25.753-0.035c0.392-0.001,0.814-0.019,1.17-0.161
				c0.655-0.261,1.032-0.633,0.27-1.273c-1.804-1.514-3.594-3.044-5.36-4.602c-0.441-0.389-0.683-0.355-1.016,0.102
				c-0.845,1.161-1.754,2.276-2.582,3.449c-0.413,0.586-0.887,0.781-1.598,0.777c-5.55-0.028-11.1-0.018-16.65-0.01
				C198.192,152.845,197.746,152.746,197.282,152.969z M41.599,158.418c1.647,0.016,2.954-0.948,3.298-2.557
				c0.535-2.504-0.786-4.215-2.628-5.592c-2.294-1.715-5.002-2.399-7.769-2.88c-0.301-0.052-0.675-0.166-0.871,0.18
				c-0.209,0.37,0.171,0.568,0.348,0.803c1.881,2.484,3.645,5.037,4.727,7.993C39.267,157.906,39.964,158.402,41.599,158.418z
				 M258.381,158.211c2.166,0.017,3.705-1.596,3.537-3.758c-0.149-1.933-1.33-3.201-2.88-4.16c-2.479-1.534-5.271-1.965-8.11-2.19
				c-0.354-0.028-0.797-0.12-0.968,0.265c-0.188,0.421,0.292,0.598,0.52,0.834c2.06,2.138,3.996,4.395,5.076,7.182
				C256.118,157.83,257.07,158.176,258.381,158.211z M115.945,154.036c-0.068-1.779-1.046-3.045-2.455-4.012
				c-2.306-1.58-4.944-2.169-7.672-2.456c-0.313-0.032-0.69-0.151-0.872,0.192c-0.198,0.373,0.215,0.554,0.396,0.78
				c1.832,2.296,3.416,4.723,4.2,7.598c0.071,0.262,0.128,0.536,0.41,0.699c1.276,0.738,2.6,1.05,3.995,0.387
				C115.262,156.599,115.888,155.506,115.945,154.036z M47.984,161.759c0.106,1.722,0.106,1.722,1.682,1.722
				c7.549,0,15.097,0.002,22.646-0.003c0.478,0,0.974,0.029,1.429-0.083c0.887-0.219,1.011-0.764,0.334-1.389
				c-0.938-0.867-1.884-1.729-2.869-2.542c-0.82-0.677-1.611-1.952-2.49-1.828c-0.747,0.105-1.436,1.398-1.94,2.285
				c-0.879,1.547-2.087,1.929-3.822,1.884C57.969,161.676,52.978,161.759,47.984,161.759z M256.878,167.688
				c-0.043-1.68-1.159-2.98-2.708-3.966c-2.254-1.434-4.809-1.863-7.411-2.094c-0.428-0.037-0.978-0.235-1.203,0.234
				c-0.213,0.444,0.349,0.652,0.604,0.918c2.069,2.151,3.817,4.506,4.777,7.372c0.102,0.304,0.178,0.59,0.516,0.756
				c1.213,0.596,2.455,0.778,3.678,0.126C256.326,170.396,256.869,169.32,256.878,167.688z M108.084,170.609
				c1.645,0.007,3.003-1.09,3.35-2.706c0.354-1.65-0.547-3.321-2.474-4.524c-2.162-1.35-4.604-1.741-7.075-2.027
				c-0.306-0.035-0.595,0.022-0.739,0.28c-0.181,0.326,0.165,0.489,0.332,0.686c1.567,1.838,2.881,3.825,3.65,6.136
				C105.625,169.942,106.519,170.604,108.084,170.609z M407.335,149.526c-0.247,0-0.368-0.008-0.487,0.001
				c-0.416,0.032-0.995-0.193-1.161,0.32c-0.142,0.438,0.44,0.595,0.713,0.854c1.934,1.828,3.581,3.854,4.553,6.369
				c0.113,0.293,0.218,0.579,0.563,0.722c1.168,0.484,2.323,0.593,3.438-0.104c1.033-0.647,1.517-1.616,1.459-2.83
				c-0.083-1.743-1.146-2.838-2.539-3.667C411.823,149.973,409.526,149.695,407.335,149.526z"/>
			<path fill-rule="evenodd" clip-rule="evenodd" fill="#385D36" d="M419.111,44.165c-6.868,0.099-13.053,2.159-18.547,6.341
				c-3.899,2.967-8.37,4.355-13.27,4.462c-8.821,0.193-17.03-2.309-25.07-5.586c-8.163-3.327-15.718-7.797-23.185-12.418
				c-2.984-1.847-2.929-2.667,0.096-4.317c8.127-4.436,16.667-7.789,25.777-9.542c4.458-0.857,8.973-1.448,13.526-1.238
				c8.84,0.406,16.915,3.076,24.06,8.393c1.053,0.784,1.702,1.891,2.494,2.882c2.449,3.064,5.669,4.451,9.533,4.544
				c3.438,0.083,6.837-0.496,10.275-0.545c2.855-0.041,4.645-2.096,6.284-4.234c2.301-3.001,4.683-5.94,7.054-8.888
				c1.062-1.32,1.891-1.34,3.056-0.155c2.355,2.397,2.614,4.528,0.769,7.358c-3.687,5.657-7.766,11.038-11.739,16.493
				c-2.104,2.889-2.919,6.057-2.36,9.643c0.41,2.629,0.48,5.309,0.788,7.957c0.514,4.418,2.766,7.688,6.689,9.796
				c1.255,0.674,2.515,1.319,3.618,2.255c2.479,2.102,3.028,4.931,3.115,7.945c0.152,5.275,0.271,10.557-0.021,15.825
				c-0.559,10.072-1.78,20.058-4.555,29.794c-0.475,1.663-1.135,3.274-1.728,4.903c-0.121,0.333-0.309,0.646-0.496,0.95
				c-1.328,2.162-3.188,2.239-4.609,0.14c-1.289-1.903-2.531-3.841-3.732-5.801c-4.188-6.838-7.559-14.034-9.445-21.869
				c-1.16-4.818-1.796-9.704-1.538-14.658c0.257-4.937,1.425-9.679,3.374-14.238c2.371-5.543,3.23-11.333,2.628-17.341
				c-0.188-1.863-0.245-3.739-0.453-5.599c-0.152-1.366-1.083-1.758-2.029-0.802c-5.607,5.667-11.186,11.369-14.694,18.689
				c-0.667,1.391-1.164,2.854-1.528,4.341c-1.914,7.801-10.942,10.238-17.1,6.586c-1.735-1.029-2.219-2.438-1.812-4.48
				c1.462-7.324,6.097-11.802,12.875-14.276c3.469-1.266,6.433-3.21,9.001-5.824c4.736-4.821,9.492-9.624,14.214-14.459
				c0.634-0.649,1.128-1.438,1.668-2.175c0.428-0.584,0.208-0.85-0.464-0.851C420.791,44.164,419.951,44.165,419.111,44.165z
				 M343.473,35.35c0.393,0.621,0.887,0.82,1.517,0.949c1.429,0.29,2.872,0.08,4.3,0.259c3.112,0.392,6.224,0.801,9.345,1.106
				c3.208,0.313,6.432,0.465,9.641,0.77c4.511,0.428,9.012,0.957,13.521,1.396c3.753,0.366,7.479,0.935,11.221,1.367
				c2.235,0.258,4.528,0.34,6.744-0.387c0.553-0.181,1.14-0.396,1.229-0.982c0.095-0.625-0.372-1.108-0.875-1.453
				c-0.29-0.198-0.63-0.38-0.97-0.438c-2.742-0.474-5.507-0.914-8.281-0.941c-5.43-0.052-10.84-0.249-16.255-0.699
				c-4.61-0.383-9.252-0.442-13.882-0.517c-4.51-0.073-9.007-0.265-13.497-0.698C346.014,34.965,344.755,34.864,343.473,35.35z
				 M430.771,96.574c0.203-4.241-0.286-8.468-0.238-12.708c0.011-0.891-0.259-1.804-0.515-2.673
				c-0.167-0.566-0.521-1.047-1.273-1.054c-0.719-0.007-1.09,0.348-1.361,0.946c-0.267,0.584-0.493,1.165-0.425,1.826
				c0.245,2.373,0.484,4.746,0.721,7.119c0.339,3.403,0.662,6.808,1.011,10.209c0.372,3.639,0.791,7.274,1.142,10.916
				c0.29,3.011,0.452,6.035,0.794,9.04c0.112,0.995,0.103,1.989,0.228,2.977c0.032,0.262,0.148,0.608,0.472,0.604
				c0.339-0.004,0.372-0.363,0.409-0.627c0.039-0.274,0.039-0.559,0.023-0.837c-0.148-2.669-0.354-5.336-0.447-8.007
				C431.102,108.396,430.948,102.485,430.771,96.574z"/>
			<path fill-rule="evenodd" clip-rule="evenodd" fill="#3A5E38" d="M224.009,66.936c-0.01,2.641-0.185,5.274-0.345,7.908
				c-0.045,0.745-0.151,1.102-1.092,1.066c-1.317-0.049-1.9-0.383-2.119-1.84c-0.966-6.403-4.764-10.44-10.853-12.428
				c-6.269-2.046-12.642-2.36-19.027-0.788c-7.84,1.929-12.918,7.173-16.25,14.274c-5.051,10.767-3.623,26.915,3.15,36.711
				c4.723,6.831,11.35,10.229,19.513,10.771c4.001,0.267,7.992,0.117,11.863-1.14c1.337-0.435,2.602-1.011,3.776-1.783
				c2.222-1.463,3.495-3.459,3.476-6.185c-0.02-2.878,0.043-5.76-0.068-8.635c-0.132-3.431-1.459-4.793-4.838-5.262
				c-2.222-0.308-4.456-0.452-6.695-0.428c-0.749,0.008-1.059-0.249-1.166-0.956c-0.125-0.828-0.305-1.649-0.499-2.464
				c-0.165-0.689-0.082-0.994,0.773-0.938c7.828,0.513,15.663,0.465,23.499,0.21c1.238-0.041,2.478-0.099,3.71-0.211
				c0.661-0.061,0.932,0.162,1.014,0.812c0.115,0.91,0.294,1.813,0.483,2.711c0.132,0.626-0.056,0.83-0.711,0.834
				c-1.197,0.008-2.386,0.153-3.566,0.403c-1.513,0.321-2.334,1.255-2.67,2.721c-0.289,1.26-0.304,2.536-0.311,3.815
				c-0.023,4.278,0.012,8.556-0.128,12.834c-0.052,1.581-0.602,2.478-2.057,3.201c-8.969,4.46-18.474,5.977-28.383,5.395
				c-5.186-0.306-10.233-1.297-14.938-3.56c-10.24-4.926-16.144-13.161-17.985-24.28c-1.17-7.068-1.012-14.146,1.52-20.933
				c4.384-11.752,13.053-18.847,24.969-22.109c7.76-2.125,15.597-1.652,23.409-0.155c3.646,0.698,7.28,1.465,10.934,2.115
				c0.891,0.159,1.174,0.585,1.3,1.374C224.066,62.301,224.019,64.618,224.009,66.936z"/>
			<path fill-rule="evenodd" clip-rule="evenodd" fill="#3A5E38" d="M29.558,122.036c0.94-0.155,1.846-0.283,2.742-0.457
				c3.644-0.708,6.211-2.801,7.745-6.151c1.778-3.886,3.098-7.952,4.591-11.949c5.708-15.284,11.393-30.577,17.056-45.877
				c0.322-0.87,0.683-1.306,1.687-1.2c1.147,0.121,2.584-0.347,3.395,0.192c0.803,0.535,1.003,1.999,1.434,3.068
				c7.269,18.016,14.532,36.034,21.797,54.052c0.643,1.594,1.417,3.122,2.214,4.644c1.271,2.426,3.26,3.7,5.967,3.723
				c0.946,0.008,1.22,0.416,1.379,1.198c0.206,1.015,0.477,2.016,0.745,3.127c-0.612,0-1.187,0.031-1.756-0.005
				c-7.672-0.482-15.344-0.639-23.011,0.05c-0.926,0.083-1.27-0.208-1.381-1.07c-0.103-0.79-0.293-1.569-0.479-2.346
				c-0.151-0.631,0.052-0.863,0.708-0.851c1.603,0.029,3.196-0.103,4.755-0.508c2.45-0.637,2.962-1.55,2.097-3.879
				c-1.904-5.126-4.154-10.109-6.298-15.136c-0.255-0.599-0.593-0.725-1.177-0.724c-7.639,0.015-15.279,0.021-22.918-0.009
				c-0.706-0.003-0.958,0.273-1.171,0.873c-1.439,4.061-2.933,8.102-4.36,12.167c-1.194,3.399-0.123,5.359,3.338,6.306
				c1.241,0.34,2.51,0.497,3.781,0.597c0.589,0.047,0.815,0.249,0.939,0.812c0.272,1.238,0.625,2.459,0.908,3.541
				c-3.223,0-6.38,0.088-9.529-0.021c-4.404-0.152-8.795,0.06-13.186,0.285c-0.89,0.046-1.179-0.261-1.311-1.053
				C30.071,124.301,29.798,123.179,29.558,122.036z M72.326,96.758c-3.674-8.709-7.265-17.222-10.956-25.972
				c-2.852,7.827-5.598,15.349-8.326,22.877c-0.35,0.966-1.294,2.22-0.841,2.845c0.528,0.728,1.99,0.231,3.042,0.237
				C60.875,96.772,66.505,96.758,72.326,96.758z"/>
			<path fill-rule="evenodd" clip-rule="evenodd" fill="#385D36" d="M121.254,90.392c0,8.8-0.001,17.6,0.004,26.399
				c0,0.599,0.014,1.203,0.097,1.793c0.279,1.973,1.138,2.908,3.083,3.306c2.084,0.428,4.201,0.57,6.323,0.501
				c0.819-0.027,1.244,0.161,1.343,1.051c0.087,0.786,0.328,1.562,0.553,2.326c0.221,0.747,0.011,0.965-0.777,0.941
				c-3.318-0.1-6.637-0.134-9.956-0.202c-5.321-0.11-10.636,0.203-15.955,0.262c-0.916,0.011-1.283-0.229-1.352-1.147
				c-0.077-1.028-0.746-2.309-0.34-2.996c0.434-0.733,1.91-0.377,2.919-0.577c0.861-0.17,1.732-0.289,2.599-0.437
				c1.394-0.238,2.205-1.049,2.374-2.463c0.062-0.513,0.107-1.032,0.107-1.549c0.005-17.48,0.005-34.959,0.004-52.439
				c0-2.781-0.572-3.524-3.303-4.089c-1.131-0.234-2.288-0.377-3.44-0.471c-0.666-0.054-0.997-0.282-1.093-0.958
				c-0.119-0.829-0.286-1.655-0.5-2.464c-0.229-0.861,0.056-1.072,0.912-1.03c7.517,0.363,15.033,0.24,22.55-0.014
				c2.278-0.077,4.558-0.126,6.835,0.028c3.484,0.236,6.879,0.876,10.162,2.116c6.575,2.483,10.364,7.078,10.958,14.174
				c0.549,6.556-0.756,12.431-6.18,16.766c-2.301,1.839-4.92,3.119-7.726,3.995c-5.057,1.58-10.225,2.179-15.504,1.585
				c-1.719-0.194-2.978-2.469-2.344-4.099c0.197-0.506,0.529-0.314,0.878-0.288c3.893,0.29,7.75,0.192,11.484-1.134
				c6.793-2.413,10.657-8.361,10.095-15.546c-0.112-1.436-0.276-2.862-0.719-4.243c-1.477-4.611-5.007-6.862-9.395-8.012
				c-4.279-1.122-8.644-0.914-12.994-0.479c-1.254,0.125-1.702,0.782-1.702,2.154C121.253,72.232,121.254,81.312,121.254,90.392z"/>
			<path fill-rule="evenodd" clip-rule="evenodd" fill="#3A5E38" d="M335.649,56.587c1.544,0,2.98-0.042,4.414,0.007
				c6.075,0.208,12.15,0.283,18.22-0.155c0.89-0.064,1.297,0.176,1.427,1.072c0.143,0.985,0.828,2.135,0.505,2.875
				c-0.329,0.753-1.746,0.479-2.677,0.69c-3.633,0.826-6.1,3.022-7.624,6.341c-1.667,3.629-2.896,7.431-4.29,11.165
				c-5.819,15.581-11.614,31.171-17.384,46.771c-0.331,0.895-0.739,1.252-1.701,1.156c-1.145-0.114-2.588,0.332-3.377-0.218
				c-0.789-0.549-0.95-2.021-1.35-3.103c-6.621-17.92-13.237-35.842-19.849-53.767c-0.625-1.694-1.541-3.236-2.39-4.817
				c-1.283-2.39-3.197-3.744-5.94-3.762c-0.797-0.005-1.106-0.34-1.249-1.067c-0.215-1.087-0.507-2.159-0.785-3.319
				c1.645,0.076,3.195,0.141,4.747,0.22c6.796,0.348,13.589,0.375,20.373-0.218c0.621-0.054,0.854,0.152,0.955,0.718
				c0.155,0.864,0.336,1.725,0.545,2.577c0.169,0.689,0.063,1.017-0.77,0.981c-1.604-0.068-3.199,0.125-4.751,0.529
				c-2.418,0.628-2.958,1.747-2.066,4.075c5.182,13.52,10.36,27.04,15.541,40.56c0.753,1.965,1.512,3.927,2.379,6.179
				c0.455-1.194,0.825-2.128,1.168-3.072c4.917-13.533,9.828-27.067,14.751-40.597c0.233-0.642,0.414-1.289,0.523-1.961
				c0.316-1.939-0.342-3.341-2.059-4.315c-1.676-0.951-3.54-1.211-5.413-1.372c-0.578-0.05-0.842-0.241-0.975-0.78
				C336.265,58.828,335.942,57.684,335.649,56.587z"/>
			<path fill-rule="evenodd" clip-rule="evenodd" fill="#3A5E38" d="M141.07,154.025c1.384,0.334,2.768,0.665,4.15,1.002
				c0.333,0.081,0.843,0.01,0.905,0.403c0.067,0.42-0.352,0.761-0.723,0.854c-2.67,0.678-3.7,3.39-5.97,4.55
				c0.032,0.104,0.065,0.21,0.098,0.315c1.688,0,3.39-0.137,5.06,0.034c2.099,0.216,3.749-0.313,4.902-2.127
				c0.652-1.026,1.286-0.93,2.165-0.177c1.364,1.167,2.822,2.231,4.294,3.264c0.81,0.567,0.618,1.021-0.126,1.18
				c-1.321,0.281-1.327,1.128-1.318,2.187c0.039,4.719-0.01,9.438,0.041,14.156c0.009,0.887-0.313,1.294-1.083,1.581
				c-1.471,0.548-2.957,0.942-4.542,0.969c-0.685,0.012-0.977-0.207-0.845-0.874c0.247-1.25-0.384-1.519-1.448-1.345
				c-0.117,0.02-0.243,0.021-0.359,0c-1.123-0.203-1.458,0.193-1.453,1.383c0.021,5.077,0.2,10.159-0.079,15.232
				c-0.264,4.811-3.783,6.039-7.529,6.433c-0.417,0.045-0.575-0.15-0.585-0.545c-0.01-0.399-0.036-0.799-0.076-1.197
				c-0.285-2.866-1.457-4.244-4.214-4.96c-0.193-0.051-0.394-0.073-0.585-0.128c-0.305-0.087-0.667-0.145-0.571-0.601
				c0.087-0.415,0.436-0.273,0.685-0.263c1.558,0.067,3.114,0.174,4.672,0.227c1.59,0.053,1.696-0.07,1.697-1.685
				c0.001-4.239-0.024-8.479,0.02-12.718c0.009-0.894-0.158-1.346-1.151-1.188c-0.429,0.068-0.88,0.041-1.317,0.005
				c-0.596-0.051-0.997,0.023-0.923,0.788c0.044,0.47-0.402,0.663-0.741,0.854c-1.415,0.802-2.936,1.213-4.569,1.257
				c-0.651,0.019-0.9-0.13-0.898-0.846c0.025-7.559,0.021-15.117,0.006-22.676c-0.001-0.658,0.112-0.86,0.801-0.561
				c1.608,0.701,3.247,1.334,4.876,1.985c0.332,0.133,0.671,0.279,1.02,0.333c1.339,0.207,1.537,0.056,1.665-1.275
				c0.169-1.751,0.299-3.505,0.474-5.255c0.055-0.551-0.063-0.777-0.686-0.772c-3.479,0.029-6.958,0.037-10.438-0.002
				c-0.87-0.01-0.716,0.516-0.719,1.015c-0.036,6.038,0.116,12.078-0.13,18.114c-0.302,7.401-1.419,14.627-4.858,21.314
				c-1.547,3.009-3.527,5.706-5.981,8.044c-0.297,0.282-0.573,0.769-1.094,0.373c-0.501-0.381-0.021-0.718,0.12-1.025
				c3.006-6.601,4.267-13.611,4.843-20.773c0.81-10.062,0.377-20.146,0.479-30.22c0.014-1.34,0.044-1.426,1.258-0.861
				c4.215,1.962,8.602,2.641,13.249,2.402c4.428-0.227,8.876-0.063,13.315-0.033c0.669,0.004,1.095-0.189,1.481-0.741
				c0.848-1.211,1.788-2.356,2.649-3.559c0.332-0.462,0.562-0.531,1.02-0.14c1.822,1.56,3.688,3.066,5.511,4.625
				c0.708,0.605,0.567,1.149-0.342,1.389c-0.416,0.109-0.872,0.088-1.309,0.089c-4.918,0.005-9.836,0.003-14.755,0.003
				C141.095,153.902,141.083,153.964,141.07,154.025z M141.398,169.919c1.958,0,3.915-0.022,5.872,0.014
				c0.616,0.011,0.831-0.151,0.816-0.797c-0.042-1.797-0.036-3.595-0.003-5.392c0.011-0.598-0.12-0.841-0.783-0.836
				c-3.875,0.029-7.75,0.027-11.624,0.001c-0.624-0.004-0.823,0.17-0.809,0.805c0.04,1.796,0.05,3.596-0.003,5.392
				c-0.021,0.733,0.273,0.838,0.903,0.826C137.644,169.896,139.521,169.919,141.398,169.919z M141.499,178.279
				c1.875,0,3.75-0.027,5.623,0.014c0.694,0.016,1-0.119,0.969-0.906c-0.063-1.633-0.052-3.271-0.004-4.904
				c0.021-0.708-0.242-0.859-0.896-0.854c-3.828,0.026-7.657,0.023-11.485,0.002c-0.593-0.003-0.856,0.118-0.839,0.783
				c0.044,1.674,0.047,3.351-0.001,5.024c-0.021,0.704,0.231,0.869,0.891,0.855C137.669,178.254,139.584,178.279,141.499,178.279z"
				/>
			<path fill-rule="evenodd" clip-rule="evenodd" fill="#3A5E38" d="M259.912,56.162c0.436,0,0.79-0.012,1.144,0.001
				c7.755,0.306,15.511,0.292,23.265-0.023c0.954-0.039,1.352,0.213,1.443,1.157c0.101,1.025,0.745,2.261,0.363,2.995
				c-0.379,0.727-1.832,0.353-2.805,0.515c-1.339,0.224-2.686,0.404-4.019,0.654c-1.162,0.219-1.807,0.96-1.903,2.146
				c-0.043,0.517-0.067,1.038-0.067,1.556c-0.003,17.516-0.003,35.032-0.002,52.548c0,3.079,0.554,3.721,3.635,4.237
				c0.354,0.06,0.706,0.139,1.062,0.189c0.938,0.134,2.31-0.165,2.718,0.485c0.617,0.983,0.601,2.363,0.86,3.573
				c0.119,0.557-0.224,0.566-0.619,0.557c-0.84-0.021-1.681-0.002-2.519-0.043c-7.077-0.339-14.152-0.125-21.227,0.055
				c-0.887,0.023-1.354-0.161-1.354-1.124c0.001-0.432-0.149-0.863-0.224-1.296c-0.334-1.954-0.333-1.955,1.704-2.148
				c1.631-0.154,3.261-0.322,4.854-0.718c1.404-0.35,1.935-0.971,2.067-2.407c0.037-0.396,0.021-0.799,0.022-1.199
				c0-17.596,0.001-35.191,0-52.787c0-2.836-0.621-3.597-3.418-4.082c-1.14-0.197-2.294-0.319-3.445-0.444
				c-0.449-0.049-0.722-0.169-0.807-0.68C260.438,58.667,260.172,57.466,259.912,56.162z"/>
			<path fill-rule="evenodd" clip-rule="evenodd" fill="#3A5E38" d="M264.115,160.817c-1.181,3.758-2.374,7.512-3.537,11.274
				c-1.332,4.306-2.774,8.579-3.654,13.016c-0.401,2.023-0.326,3.943,0.542,5.847c1.054,2.313,1.701,4.723,1.54,7.31
				c-0.182,2.921-2.31,4.901-5.209,4.774c-1.938-0.086-3.34-1.839-3.069-3.773c0.422-3.011,0.797-6.023,0.338-9.074
				c-0.342-2.269-1.044-3.047-3.3-3.44c-0.426-0.074-0.87,0.02-0.86-0.674c0.011-0.769,0.555-0.61,0.91-0.539
				c2.365,0.472,3.499-0.798,4.451-2.754c3.543-7.285,6.824-14.69,10.254-22.028c0.574-1.229,1.106-2.479,1.717-3.689
				c0.194-0.386,0.147-1.253,0.937-0.908c0.751,0.329,0.105,0.907,0.006,1.333c-0.217,0.921-0.546,1.816-0.862,2.829
				c1.783,0,3.417,0,5.052,0c6.839,0,13.679-0.015,20.519,0.02c0.768,0.004,1.251-0.218,1.688-0.836
				c0.854-1.206,1.801-2.347,2.67-3.543c0.339-0.467,0.588-0.516,1.033-0.127c1.836,1.605,3.688,3.193,5.558,4.759
				c0.736,0.616,0.45,1.042-0.23,1.291c-0.47,0.172-1.021,0.164-1.535,0.165c-4.439,0.012-8.88,0.032-13.318-0.015
				c-0.887-0.009-1.144,0.202-1.134,1.116c0.051,4.56,0.049,9.119,0.001,13.679c-0.009,0.872,0.296,0.934,1.067,1.05
				c3.095,0.466,5.415-0.433,6.771-3.379c0.131-0.284,0.396-0.504,0.559-0.777c0.314-0.528,0.613-0.613,1.115-0.165
				c1.699,1.52,3.443,2.987,5.148,4.499c0.667,0.592,0.564,1.083-0.28,1.344c-0.408,0.126-0.866,0.123-1.302,0.124
				c-4,0.009-8,0.027-11.999-0.014c-0.806-0.008-1.086,0.15-1.079,1.028c0.042,5.72,0.042,11.439,0,17.158
				c-0.007,0.87,0.257,1.064,1.074,1.034c1.678-0.063,3.359-0.049,5.038-0.004c0.634,0.017,1.025-0.193,1.386-0.704
				c0.9-1.272,1.882-2.486,2.777-3.762c0.379-0.537,0.63-0.669,1.182-0.181c1.827,1.616,3.709,3.169,5.551,4.769
				c0.775,0.672,0.655,1.188-0.319,1.465c-0.3,0.085-0.632,0.084-0.949,0.084c-12.56,0.004-25.118,0.006-37.678-0.007
				c-0.356-0.001-0.858,0.235-1.049-0.28c-0.148-0.402-0.456-0.863-0.241-1.257c0.174-0.316,0.66-0.136,1.004-0.137
				c4.68-0.009,9.359-0.021,14.039,0.01c0.749,0.005,1.022-0.148,1.018-0.97c-0.038-5.76-0.038-11.52,0-17.279
				c0.006-0.831-0.283-0.971-1.023-0.964c-3.52,0.034-7.039,0.021-10.559,0.006c-0.367-0.001-0.862,0.213-1.065-0.277
				c-0.164-0.395-0.352-0.887-0.246-1.254c0.094-0.324,0.637-0.141,0.976-0.142c3.64-0.012,7.28-0.029,10.92,0.01
				c0.775,0.009,1.003-0.191,0.996-0.985c-0.038-4.6-0.043-9.199,0.003-13.799c0.009-0.884-0.292-1.045-1.094-1.035
				c-3.399,0.042-6.8,0.001-10.199,0.028c-0.933,0.008-1.822,0.083-1.69-1.424C264.351,160.7,264.233,160.759,264.115,160.817z"/>
			<path fill-rule="evenodd" clip-rule="evenodd" fill="#3A5E38" d="M406.989,179.368c1.438-2.813,2.49-5.468,3.411-8.176
				c0.514-1.511,0.993-3.034,1.42-4.571c0.174-0.626,0.416-0.732,0.997-0.512c2.313,0.879,4.637,1.724,6.957,2.58
				c0.255,0.095,0.66,0.117,0.655,0.414c-0.006,0.382-0.41,0.727-0.723,0.695c-1.954-0.193-2.092,1.373-2.615,2.588
				c-1.867,4.339-4.056,8.504-6.812,12.352c-0.33,0.461-0.364,0.783-0.057,1.267c1.581,2.479,3.48,4.677,5.682,6.622
				c0.772,0.681,1.28,0.36,1.727-0.374c1.224-2.017,2.238-4.142,3.285-6.252c0.178-0.357,0.192-1.057,0.748-0.905
				c0.646,0.175,0.258,0.831,0.205,1.232c-0.362,2.731-0.765,5.459-1.199,8.181c-0.096,0.599,0.019,1.084,0.306,1.589
				c0.514,0.902,0.962,1.838,1.261,2.839c0.672,2.252-0.299,3.667-2.67,3.855c-1.787,0.141-3.378-0.484-4.896-1.333
				c-2.79-1.559-4.782-3.969-6.738-6.403c-0.824-1.026-1.601-2.101-2.297-3.218c-0.453-0.728-0.687-0.941-1.431-0.227
				c-4.132,3.971-8.909,6.998-14.115,9.358c-0.348,0.157-0.784,0.763-1.206,0.057c-0.446-0.747,0.289-0.876,0.653-1.133
				c4.889-3.428,9.12-7.52,12.642-12.351c0.457-0.628,0.503-1.092,0.172-1.815c-2.663-5.819-4.145-11.979-5.069-18.281
				c-0.126-0.854-0.434-0.917-1.147-0.813c-1.778,0.261-3.565,0.46-5.352,0.668c-1.491,0.174-1.492,0.163-1.95-1.439
				c2.424-0.313,4.833-0.66,7.253-0.913c0.764-0.08,0.866-0.311,0.779-1.035c-0.644-5.366-0.878-10.758-0.868-16.16
				c0.001-0.515-0.037-0.908,0.738-0.816c2.421,0.287,4.853,0.48,7.276,0.74c0.362,0.038,0.932-0.106,1.032,0.343
				c0.098,0.438-0.284,0.926-0.699,1.006c-1.593,0.305-1.392,1.449-1.396,2.6c-0.014,3.803,0.202,7.593,0.49,11.383
				c0.063,0.82,0.365,0.996,1.115,0.896c2.534-0.343,5.072-0.659,7.613-0.942c0.518-0.058,0.766-0.325,1.008-0.713
				c0.742-1.185,1.543-2.335,2.24-3.545c0.382-0.664,0.705-0.67,1.297-0.27c1.72,1.164,3.481,2.268,5.212,3.416
				c0.271,0.18,0.773,0.264,0.654,0.734c-0.113,0.445-0.469,0.771-0.931,0.847c-1.143,0.187-2.292,0.34-3.441,0.482
				c-4.561,0.567-9.119,1.142-13.685,1.67c-0.71,0.082-0.714,0.399-0.643,0.949C404.434,170.823,405.377,175.019,406.989,179.368z"
				/>
			<path fill-rule="evenodd" clip-rule="evenodd" fill="#3A5E38" d="M188.434,161.291c0.925-1.281,1.878-2.545,2.764-3.854
				c0.396-0.586,0.653-0.76,1.243-0.178c1.422,1.402,2.927,2.722,4.367,4.106c0.274,0.264,0.866,0.462,0.57,1.027
				c-0.246,0.469-0.729,0.597-1.23,0.599c-2.119,0.012-4.237,0.018-6.356,0.022c-1.629,0.003-1.497,0.014-1.663,1.65
				c-0.206,2.021,0.286,3.256,2.416,3.958c1.847,0.608,3.402,1.926,4.554,3.578c0.923,1.323,1.457,2.754,0.982,4.396
				c-0.669,2.317-3.424,3.057-5.196,1.417c-0.308-0.285-0.319-0.604-0.361-0.961c-0.313-2.664-1.105-5.2-2.361-7.393
				c0,0.659,0,1.065,0,1.472c0,9.635-0.018,19.27,0.026,28.904c0.004,1.005-0.355,1.57-1.195,1.964
				c-1.314,0.616-2.677,0.986-4.142,1.066c-1.037,0.057-1.414-0.165-1.404-1.327c0.063-7.116,0.034-14.232,0.024-21.349
				c0-0.374,0.12-0.773-0.162-1.241c-1.879,3.102-4.032,5.902-6.488,8.467c-0.359,0.376-0.724,0.746-1.091,1.113
				c-0.25,0.248-0.451,0.557-0.877,0.167c-0.376-0.343-0.225-0.601-0.04-0.929c4.109-7.318,6.007-15.333,7.39-23.508
				c0.243-1.439,0.218-1.444-1.227-1.445c-1.399,0-2.8-0.048-4.197,0.016c-1.02,0.047-0.922-0.72-1.002-1.278
				c-0.116-0.813,0.582-0.448,0.905-0.455c1.918-0.036,3.839-0.062,5.756,0.002c0.836,0.028,1.07-0.197,1.061-1.048
				c-0.046-4.117,0.011-8.235-0.045-12.353c-0.013-0.951,0.273-1.146,1.155-1.039c2.339,0.283,4.688,0.487,7.032,0.735
				c0.246,0.025,0.607-0.123,0.691,0.274c0.063,0.296-0.103,0.547-0.301,0.749c-0.137,0.141-0.311,0.335-0.476,0.343
				c-1.722,0.077-1.394,1.327-1.394,2.39c-0.001,3.271,0,6.542,0,9.813C188.252,161.206,188.343,161.249,188.434,161.291z"/>
			<path fill-rule="evenodd" clip-rule="evenodd" fill="#385D36" d="M351.113,186.733c0-4.998-0.02-9.995,0.019-14.991
				c0.006-0.835-0.215-1.078-1.061-1.068c-3.797,0.046-7.596,0.005-11.393,0.034c-0.662,0.006-0.969-0.155-1.148-0.844
				c-0.215-0.819,0.045-0.924,0.776-0.918c3.718,0.03,7.436,0.014,11.153,0.014c1.653,0,1.653,0,1.653-1.612
				c0-6.276,0.016-12.553-0.018-18.829c-0.006-0.952,0.037-1.402,1.246-1.219c2.445,0.374,4.924,0.527,7.387,0.784
				c0.25,0.025,0.603-0.121,0.718,0.246c0.095,0.302-0.12,0.536-0.296,0.746c-0.125,0.149-0.3,0.351-0.463,0.361
				c-1.725,0.11-1.361,1.383-1.363,2.431c-0.008,5.357,0.018,10.714-0.024,16.07c-0.007,0.856,0.271,0.937,1.054,1.063
				c3,0.483,4.992-0.592,6.503-3.247c1.197-2.104,1.414-1.997,3.269-0.466c1.54,1.272,3.061,2.569,4.574,3.873
				c0.245,0.211,0.685,0.377,0.492,0.839c-0.148,0.356-0.48,0.554-0.842,0.606c-0.473,0.069-0.955,0.083-1.434,0.084
				c-4.078,0.006-8.156,0.039-12.232-0.021c-1.055-0.016-1.398,0.207-1.392,1.345c0.052,9.154,0.012,18.31,0.054,27.464
				c0.005,0.988-0.361,1.57-1.152,2.019c-1.521,0.862-3.134,1.338-4.899,1.377c-0.89,0.02-1.219-0.158-1.207-1.15
				C351.143,196.728,351.113,191.73,351.113,186.733z"/>
			<path fill-rule="evenodd" clip-rule="evenodd" fill="#3A5E38" d="M75.878,174.762c0-6.52-0.031-13.038,0.03-19.558
				c0.011-1.144-0.347-1.353-1.399-1.347c-7.879,0.043-15.758,0.025-23.637,0.017c-0.381,0-0.892,0.192-1.111-0.206
				c-0.22-0.399-0.516-0.909-0.317-1.356c0.151-0.338,0.647-0.145,0.984-0.146c7.919-0.009,15.838-0.018,23.757,0.01
				c0.785,0.003,1.349-0.18,1.834-0.821c0.626-0.827,1.367-1.566,2.02-2.375c0.328-0.407,0.564-0.408,0.966-0.086
				c1.871,1.501,3.751,2.991,5.663,4.438c0.676,0.512,0.305,0.911-0.149,0.993c-2.178,0.396-1.754,2.036-1.754,3.478
				c-0.003,12.358-0.002,24.717-0.003,37.075c0,0.521,0.009,1.042-0.03,1.56c-0.244,3.267-1.496,4.821-4.629,5.768
				c-1.421,0.43-2.891,0.596-4.354,0.795c-0.492,0.066-0.832,0.038-0.895-0.589c-0.3-3.024-2.35-4.361-4.999-5.07
				c-0.962-0.258-1.951-0.415-2.922-0.645c-0.315-0.074-0.811-0.032-0.711-0.588c0.088-0.485,0.51-0.287,0.786-0.273
				c2.875,0.145,5.748,0.338,8.624,0.459c2.087,0.088,2.247-0.104,2.247-2.215C75.879,187.641,75.878,181.201,75.878,174.762z"/>
			<path fill-rule="evenodd" clip-rule="evenodd" fill="#385D36" d="M435.833,171.119c0-7.395,0.017-14.789-0.021-22.183
				c-0.005-0.945,0.101-1.31,1.197-1.155c2.371,0.334,4.767,0.489,7.149,0.742c0.269,0.028,0.718-0.176,0.774,0.3
				c0.039,0.326-0.22,0.586-0.466,0.799c-0.09,0.077-0.195,0.177-0.301,0.188c-1.623,0.171-1.372,1.358-1.371,2.45
				c0.008,13.909,0.005,27.818,0.005,41.729c0,0.199,0,0.399,0,0.6c-0.002,5.28-1.714,7.312-6.888,8.175
				c-2.189,0.365-2.273,0.378-2.617-1.795c-0.499-3.155-2.652-4.423-5.422-5.155c-0.471-0.124-1.486,0.187-1.32-0.72
				c0.127-0.687,0.964-0.221,1.455-0.211c2.077,0.041,4.151,0.19,6.228,0.253c1.389,0.041,1.594-0.189,1.595-1.593
				C435.834,186.068,435.833,178.594,435.833,171.119z"/>
			<path fill-rule="evenodd" clip-rule="evenodd" fill="#385D36" d="M194.221,167.04c0.449,0,0.876,0,1.305,0
				c7.439,0,14.879-0.01,22.318,0.016c0.709,0.002,1.168-0.177,1.58-0.782c0.875-1.289,1.866-2.498,2.755-3.777
				c0.371-0.534,0.634-0.555,1.115-0.144c1.943,1.664,3.924,3.284,5.87,4.946c0.713,0.609,0.579,1.152-0.335,1.376
				c-0.458,0.111-0.954,0.095-1.432,0.095c-4,0.007-8,0.055-11.998-0.027c-1.154-0.023-1.345,0.358-1.339,1.399
				c0.04,8.279,0.021,16.559,0.025,24.838c0,0.883-0.059,1.754-0.225,2.623c-0.363,1.903-1.405,3.271-3.145,4.114
				c-1.573,0.763-3.27,1.008-4.977,1.227c-0.416,0.053-0.605-0.074-0.632-0.479c-0.005-0.079-0.033-0.158-0.034-0.237
				c-0.06-3.744-2.313-5.37-5.699-5.899c-0.318-0.05-0.675-0.044-0.648-0.512c0.036-0.625,0.502-0.373,0.809-0.356
				c2.036,0.112,4.071,0.235,6.105,0.373c1.074,0.072,1.494-0.378,1.49-1.475c-0.027-8.199-0.026-16.398,0.003-24.597
				c0.003-0.791-0.213-1.015-1-1.005c-3.319,0.041-6.639,0.018-9.959,0.017C194.572,168.773,194.572,168.773,194.221,167.04z"/>
			<path fill-rule="evenodd" clip-rule="evenodd" fill="#3A5E38" d="M317.78,163.439c2.511,0,5.024-0.048,7.533,0.023
				c0.969,0.027,1.652-0.251,2.287-0.967c0.684-0.771,1.466-1.961,2.247-1.994c0.778-0.033,1.616,1.132,2.415,1.787
				c0.896,0.735,1.742,1.536,2.677,2.217c0.856,0.624,0.581,1.134-0.182,1.28c-1.459,0.281-1.419,1.221-1.413,2.352
				c0.034,6.675,0.017,13.351,0.017,20.025c0,0.432,0,0.862,0,1.459c2.74-1.198,5.359-2.344,7.979-3.489
				c0.329-0.144,0.655-0.293,0.988-0.426c0.273-0.109,0.577-0.431,0.844-0.079c0.307,0.403-0.082,0.66-0.324,0.898
				c-2.221,2.188-4.434,4.383-6.682,6.541c-1.124,1.079-2.288,2.119-3.484,3.117c-1.23,1.026-2.38,2.092-3.17,3.523
				c-0.434,0.786-0.915,0.928-1.509-0.04c-1.211-1.972-2.537-3.874-3.858-5.775c-0.395-0.567-0.517-0.902,0.236-1.256
				c1.715-0.806,2.27-2.165,2.244-4.079c-0.097-7.353-0.059-14.708-0.016-22.063c0.006-1.014-0.183-1.407-1.295-1.349
				c-1.913,0.103-3.842-0.063-5.752,0.06C318.222,165.293,317.762,164.742,317.78,163.439z"/>
			<path fill-rule="evenodd" clip-rule="evenodd" fill="#3A5E38" d="M50.6,168.436c0.813,0.323,1.468,0.516,2.059,0.829
				c2.897,1.539,5.96,2.083,9.232,1.858c1.083-0.075,1.841-0.332,2.565-1.147c1.742-1.962,1.782-1.928,3.904-0.34
				c1.088,0.813,2.158,1.652,3.268,2.434c0.592,0.416,0.579,0.811-0.076,0.943c-1.472,0.299-1.36,1.333-1.353,2.431
				c0.026,4.236-0.009,8.473,0.028,12.709c0.007,0.793-0.215,1.247-0.976,1.537c-1.43,0.545-2.876,0.926-4.417,0.964
				c-0.658,0.017-0.942-0.151-0.898-0.863c0.056-0.915-0.021-1.839,0.025-2.756c0.032-0.635-0.195-0.817-0.816-0.806
				c-1.878,0.035-3.757,0.033-5.635,0c-0.583-0.01-0.771,0.177-0.75,0.75c0.037,0.998-0.021,1.999,0.02,2.996
				c0.026,0.647-0.231,1.052-0.786,1.344c-1.326,0.696-2.72,1.095-4.223,1.2c-0.923,0.065-1.203-0.182-1.196-1.151
				c0.044-7.153,0.024-14.308,0.024-21.462C50.6,169.469,50.6,169.032,50.6,168.436z M56.771,178.556
				c0,1.715,0.019,3.431-0.01,5.145c-0.01,0.614,0.188,0.842,0.822,0.83c1.834-0.033,3.669-0.039,5.503,0.003
				c0.698,0.016,0.88-0.241,0.875-0.899c-0.024-3.351-0.026-6.701,0.001-10.051c0.005-0.643-0.217-0.805-0.825-0.794
				c-1.834,0.033-3.67,0.039-5.503-0.002c-0.669-0.015-0.899,0.173-0.879,0.863C56.802,175.284,56.77,176.921,56.771,178.556z"/>
			<path fill-rule="evenodd" clip-rule="evenodd" fill="#3A5E38" d="M43.643,188.565c1.624-0.973,3.013-1.82,4.421-2.637
				c0.271-0.157,0.531-0.624,0.913-0.279c0.451,0.408,0.092,0.785-0.15,1.152c-1.957,2.972-4.047,5.847-6.233,8.652
				c-0.808,1.036-1.69,2.016-2.056,3.331c-0.093,0.335-0.329,0.639-0.536,0.931c-0.879,1.239-1.045,1.237-1.859,0.009
				c-1.212-1.831-2.402-3.678-3.647-5.486c-0.419-0.608-0.543-0.975,0.272-1.33c1.75-0.763,2.296-2.109,2.271-4.033
				c-0.1-7.595-0.063-15.192-0.015-22.788c0.006-1.026-0.286-1.269-1.262-1.222c-1.715,0.084-3.437,0.028-5.156,0.021
				c-0.732-0.003-1.426-0.788-1.278-1.448c0.105-0.471,0.511-0.266,0.778-0.269c1.839-0.021,3.682-0.081,5.516,0.016
				c1.103,0.058,1.886-0.272,2.594-1.098c0.615-0.718,1.353-1.805,2.067-1.83c0.727-0.025,1.5,1.039,2.239,1.643
				c0.93,0.757,1.819,1.565,2.776,2.286c0.751,0.565,0.745,1.158-0.127,1.283c-1.734,0.248-1.542,1.388-1.538,2.596
				c0.024,6.437,0.011,12.873,0.011,19.31C43.643,187.689,43.643,188.004,43.643,188.565z"/>
			<path fill-rule="evenodd" clip-rule="evenodd" fill="#3A5E38" d="M424.072,170.64c0-5.839,0.015-11.679-0.017-17.519
				c-0.005-0.839,0.076-1.177,1.083-1.042c2.177,0.29,4.378,0.395,6.566,0.599c0.322,0.03,0.833-0.144,0.905,0.331
				c0.062,0.398-0.249,0.88-0.611,0.95c-1.896,0.37-1.472,1.811-1.473,3.047c-0.006,9.8-0.021,19.599,0.023,29.397
				c0.005,1.054-0.35,1.622-1.276,1.999c-1.346,0.547-2.723,0.868-4.179,0.951c-0.873,0.051-1.046-0.261-1.041-1.075
				C424.087,182.399,424.072,176.52,424.072,170.64z"/>
			<path fill-rule="evenodd" clip-rule="evenodd" fill="#3A5E38" d="M109.201,203.21c-1.974,0.019-3.498-1.779-3.214-3.755
				c0.461-3.206,0.843-6.417,0.374-9.661c-0.342-2.36-0.829-2.899-3.145-3.407c-0.195-0.043-0.391-0.084-0.587-0.12
				c-0.482-0.089-0.316-0.471-0.346-0.762c-0.04-0.387,0.198-0.471,0.517-0.465c0.16,0.004,0.325-0.028,0.479,0.003
				c2.244,0.458,3.248-0.733,4.034-2.67c3.359-8.272,6.498-16.629,9.801-24.921c0.13-0.326-0.003-0.994,0.728-0.834
				c0.746,0.162,0.494,0.672,0.379,1.122c-0.798,3.129-1.631,6.249-2.396,9.386c-1.445,5.925-3.1,11.801-4.079,17.834
				c-0.331,2.04-0.026,3.963,0.729,5.857c1.061,2.661,1.762,5.389,1.3,8.292C113.386,201.546,111.553,203.188,109.201,203.21z"/>
			<path fill-rule="evenodd" clip-rule="evenodd" fill="#3A5E38" d="M229.667,191.666c0.058,0.592-0.086,1.261-0.262,1.914
				c-0.753,2.797-3.273,3.625-5.565,1.854c-0.329-0.254-0.562-0.52-0.621-0.964c-0.861-6.43-3.53-12.211-6.421-17.915
				c-0.254-0.502-1-1.096-0.5-1.59c0.644-0.636,1.228,0.225,1.742,0.553c3.566,2.274,6.742,4.979,9.078,8.563
				C228.762,186.605,229.671,189.289,229.667,191.666z"/>
			<path fill-rule="evenodd" clip-rule="evenodd" fill="#3A5E38" d="M206.904,176.922c-0.178,0.606-0.574,0.931-1.065,0.922
				c-1.101-0.02-1.433,0.709-1.809,1.537c-2.816,6.204-6.47,11.816-11.651,16.337c-0.24,0.209-0.489,0.41-0.741,0.607
				c-0.181,0.143-0.358,0.342-0.612,0.109c-0.228-0.209-0.34-0.432-0.155-0.733c0.229-0.374,0.453-0.751,0.662-1.137
				c3.42-6.3,5.473-13.062,6.684-20.092c0.164-0.949,0.43-0.968,1.19-0.644C201.892,174.89,204.401,175.896,206.904,176.922z"/>
			<path fill-rule="evenodd" clip-rule="evenodd" fill="#3A5E38" d="M284.887,155.08c-0.01,3.524-2.925,5.243-5.562,3.778
				c-0.297-0.164-0.499-0.373-0.608-0.692c-1.361-3.984-3.855-7.209-6.795-10.136c-0.173-0.172-0.547-0.297-0.332-0.65
				c0.167-0.275,0.468-0.266,0.753-0.226c3.135,0.442,6.207,1.089,8.919,2.845C283.293,151.313,284.738,153.027,284.887,155.08z"/>
			<path fill-rule="evenodd" clip-rule="evenodd" fill="#3A5E38" d="M336.489,155.69c-0.065,1.502-0.531,2.693-1.822,3.396
				c-1.273,0.693-2.542,0.459-3.791-0.13c-0.287-0.135-0.404-0.363-0.513-0.623c-1.583-3.777-4.023-6.971-6.776-9.95
				c-0.183-0.197-0.526-0.386-0.375-0.676c0.148-0.287,0.491-0.341,0.846-0.286c3.176,0.487,6.284,1.177,8.997,3.025
				c1.557,1.062,2.799,2.381,3.26,4.282C336.399,155.075,336.443,155.432,336.489,155.69z"/>
			<path fill-rule="evenodd" clip-rule="evenodd" fill="#3A5E38" d="M129.982,183.448c0.238,0.099,0.388,0.154,0.532,0.221
				c2.025,0.933,4.052,1.86,6.07,2.808c0.254,0.119,0.72,0.112,0.627,0.558c-0.068,0.329-0.444,0.585-0.718,0.551
				c-1.476-0.187-1.92,0.965-2.58,1.87c-2.843,3.899-6.135,7.349-10.213,9.976c-0.406,0.262-0.848,1.12-1.483,0.402
				c-0.553-0.626,0.241-0.961,0.514-1.341c3.122-4.355,5.25-9.179,6.818-14.273C129.64,183.925,129.539,183.471,129.982,183.448z"/>
			<path fill-rule="evenodd" clip-rule="evenodd" fill="#3A5E38" d="M157.513,194.927c-0.016,1.668-0.388,2.863-1.653,3.549
				c-1.13,0.611-2.241,0.333-3.296-0.271c-0.353-0.201-0.588-0.455-0.689-0.904c-0.958-4.268-3.047-8.015-5.415-11.633
				c-0.188-0.286-0.734-0.562-0.343-0.995c0.313-0.349,0.731-0.119,1.108,0.034c2.867,1.172,5.553,2.636,7.7,4.918
				C156.404,191.197,157.489,192.981,157.513,194.927z"/>
			<path fill-rule="evenodd" clip-rule="evenodd" fill="#3A5E38" d="M197.282,152.969c0.464-0.223,0.91-0.124,1.341-0.124
				c5.55-0.008,11.101-0.019,16.65,0.01c0.711,0.004,1.185-0.191,1.598-0.777c0.828-1.173,1.736-2.288,2.582-3.449
				c0.333-0.457,0.575-0.49,1.016-0.102c1.766,1.558,3.556,3.088,5.36,4.602c0.762,0.641,0.385,1.013-0.27,1.273
				c-0.356,0.143-0.778,0.16-1.17,0.161c-8.584,0.008-17.169-0.021-25.753,0.035C197.266,154.606,197.542,153.673,197.282,152.969z"
				/>
			<path fill-rule="evenodd" clip-rule="evenodd" fill="#3A5E38" d="M41.599,158.418c-1.634-0.016-2.332-0.512-2.896-2.053
				c-1.082-2.956-2.846-5.509-4.727-7.993c-0.177-0.234-0.558-0.433-0.348-0.803c0.195-0.346,0.569-0.231,0.871-0.18
				c2.767,0.48,5.475,1.165,7.769,2.88c1.843,1.377,3.164,3.088,2.628,5.592C44.553,157.47,43.246,158.434,41.599,158.418z"/>
			<path fill-rule="evenodd" clip-rule="evenodd" fill="#3A5E38" d="M258.381,158.21c-1.312-0.034-2.264-0.38-2.825-1.827
				c-1.08-2.787-3.017-5.044-5.076-7.182c-0.228-0.236-0.707-0.413-0.52-0.834c0.171-0.385,0.614-0.293,0.968-0.265
				c2.84,0.226,5.632,0.656,8.11,2.19c1.55,0.959,2.73,2.228,2.88,4.16C262.086,156.615,260.547,158.228,258.381,158.21z"/>
			<path fill-rule="evenodd" clip-rule="evenodd" fill="#3A5E38" d="M115.945,154.036c-0.057,1.47-0.683,2.563-1.999,3.188
				c-1.396,0.663-2.719,0.352-3.995-0.387c-0.281-0.163-0.338-0.438-0.41-0.699c-0.784-2.875-2.368-5.302-4.2-7.598
				c-0.18-0.227-0.593-0.407-0.396-0.78c0.182-0.344,0.56-0.225,0.872-0.192c2.728,0.287,5.366,0.876,7.672,2.456
				C114.898,150.991,115.876,152.257,115.945,154.036z"/>
			<path fill-rule="evenodd" clip-rule="evenodd" fill="#3A5E38" d="M47.984,161.759c4.993,0,9.984-0.083,14.97,0.046
				c1.735,0.045,2.943-0.337,3.822-1.884c0.504-0.887,1.193-2.18,1.94-2.285c0.878-0.124,1.67,1.151,2.49,1.828
				c0.985,0.813,1.931,1.675,2.869,2.542c0.677,0.625,0.552,1.17-0.334,1.389c-0.456,0.112-0.952,0.083-1.429,0.083
				c-7.548,0.005-15.097,0.003-22.646,0.003C48.091,163.48,48.091,163.48,47.984,161.759z"/>
			<path fill-rule="evenodd" clip-rule="evenodd" fill="#3A5E38" d="M256.878,167.688c-0.01,1.633-0.553,2.709-1.747,3.347
				c-1.223,0.652-2.465,0.47-3.678-0.126c-0.338-0.166-0.414-0.452-0.516-0.756c-0.96-2.866-2.708-5.221-4.777-7.372
				c-0.256-0.266-0.817-0.474-0.604-0.918c0.226-0.47,0.775-0.271,1.203-0.234c2.603,0.23,5.157,0.66,7.411,2.094
				C255.719,164.707,256.835,166.008,256.878,167.688z"/>
			<path fill-rule="evenodd" clip-rule="evenodd" fill="#3A5E38" d="M108.084,170.609c-1.565-0.006-2.459-0.667-2.956-2.156
				c-0.77-2.311-2.083-4.298-3.65-6.136c-0.167-0.196-0.513-0.359-0.332-0.686c0.144-0.258,0.433-0.315,0.739-0.28
				c2.471,0.286,4.913,0.678,7.075,2.027c1.927,1.203,2.828,2.874,2.474,4.524C111.087,169.52,109.729,170.616,108.084,170.609z"/>
			<path fill-rule="evenodd" clip-rule="evenodd" fill="#3A5E38" d="M407.335,149.526c2.19,0.169,4.487,0.446,6.537,1.664
				c1.394,0.829,2.456,1.924,2.539,3.667c0.058,1.214-0.426,2.183-1.459,2.83c-1.114,0.697-2.27,0.589-3.438,0.104
				c-0.345-0.143-0.449-0.429-0.563-0.722c-0.972-2.515-2.619-4.541-4.553-6.369c-0.272-0.259-0.854-0.415-0.713-0.854
				c0.166-0.514,0.745-0.288,1.161-0.32C406.967,149.519,407.088,149.526,407.335,149.526z"/>
			<path fill-rule="evenodd" clip-rule="evenodd" fill="#FEFEFE" d="M343.473,35.35c1.282-0.485,2.541-0.385,3.758-0.268
				c4.49,0.434,8.987,0.625,13.497,0.698c4.63,0.075,9.271,0.134,13.882,0.517c5.415,0.45,10.825,0.647,16.255,0.699
				c2.774,0.027,5.539,0.467,8.281,0.941c0.34,0.059,0.68,0.24,0.97,0.438c0.503,0.345,0.97,0.828,0.875,1.453
				c-0.09,0.586-0.677,0.801-1.229,0.982c-2.216,0.727-4.509,0.645-6.744,0.387c-3.741-0.433-7.468-1.001-11.221-1.367
				c-4.51-0.439-9.011-0.968-13.521-1.396c-3.209-0.305-6.433-0.457-9.641-0.77c-3.121-0.305-6.232-0.715-9.345-1.106
				c-1.428-0.18-2.871,0.031-4.3-0.259C344.36,36.17,343.866,35.971,343.473,35.35z"/>
			<path fill-rule="evenodd" clip-rule="evenodd" fill="#FEFEFE" d="M430.771,96.574c0.177,5.911,0.331,11.822,0.539,17.731
				c0.094,2.671,0.299,5.338,0.447,8.007c0.016,0.278,0.016,0.563-0.023,0.837c-0.037,0.264-0.07,0.623-0.409,0.627
				c-0.323,0.004-0.439-0.343-0.472-0.604c-0.125-0.987-0.115-1.981-0.228-2.977c-0.342-3.005-0.504-6.029-0.794-9.04
				c-0.351-3.642-0.77-7.276-1.142-10.916c-0.349-3.402-0.672-6.806-1.011-10.209c-0.236-2.373-0.476-4.746-0.721-7.119
				c-0.068-0.661,0.158-1.241,0.425-1.826c0.271-0.598,0.643-0.953,1.361-0.946c0.752,0.006,1.106,0.487,1.273,1.054
				c0.256,0.869,0.525,1.782,0.515,2.673C430.485,88.106,430.974,92.333,430.771,96.574z"/>
			<path fill-rule="evenodd" clip-rule="evenodd" fill="#FEFEFE" d="M72.326,96.758c-5.821,0-11.451,0.014-17.08-0.013
				c-1.052-0.005-2.515,0.491-3.042-0.237c-0.454-0.625,0.491-1.879,0.841-2.845c2.728-7.528,5.475-15.05,8.326-22.877
				C65.061,79.536,68.652,88.049,72.326,96.758z"/>
			<path fill-rule="evenodd" clip-rule="evenodd" fill="#FEFEFE" d="M141.398,169.919c-1.877,0-3.755-0.022-5.632,0.013
				c-0.629,0.012-0.924-0.093-0.903-0.826c0.054-1.796,0.043-3.596,0.003-5.392c-0.014-0.635,0.185-0.809,0.809-0.805
				c3.875,0.026,7.75,0.028,11.624-0.001c0.663-0.005,0.794,0.238,0.783,0.836c-0.033,1.797-0.04,3.595,0.003,5.392
				c0.015,0.646-0.2,0.808-0.816,0.797C145.313,169.896,143.356,169.919,141.398,169.919z"/>
			<path fill-rule="evenodd" clip-rule="evenodd" fill="#FEFEFE" d="M141.499,178.279c-1.914,0-3.829-0.025-5.742,0.014
				c-0.66,0.014-0.911-0.151-0.891-0.855c0.048-1.674,0.045-3.351,0.001-5.024c-0.017-0.665,0.246-0.786,0.839-0.783
				c3.829,0.021,7.657,0.024,11.485-0.002c0.653-0.005,0.917,0.146,0.896,0.854c-0.048,1.634-0.059,3.271,0.004,4.904
				c0.03,0.787-0.275,0.922-0.969,0.906C145.248,178.252,143.373,178.279,141.499,178.279z"/>
			<path fill-rule="evenodd" clip-rule="evenodd" fill="#FEFEFE" d="M56.771,178.556c0-1.635,0.032-3.271-0.015-4.905
				c-0.02-0.69,0.21-0.878,0.879-0.863c1.833,0.041,3.669,0.035,5.503,0.002c0.607-0.011,0.83,0.151,0.825,0.794
				c-0.028,3.35-0.026,6.7-0.001,10.051c0.005,0.658-0.177,0.915-0.875,0.899c-1.834-0.042-3.669-0.036-5.503-0.003
				c-0.633,0.012-0.832-0.216-0.822-0.83C56.789,181.986,56.771,180.271,56.771,178.556z"/>
		</g>
	</g>
</g>
</svg>
