<?xml version="1.0" encoding="utf-8"?>
<!-- Generator: Adobe Illustrator 16.0.0, SVG Export Plug-In . SVG Version: 6.00 Build 0)  -->
<!DOCTYPE svg PUBLIC "-//W3C//DTD SVG 1.1//EN" "http://www.w3.org/Graphics/SVG/1.1/DTD/svg11.dtd">
<svg version="1.1" xmlns="http://www.w3.org/2000/svg" xmlns:xlink="http://www.w3.org/1999/xlink" x="0px" y="0px"
	 width="126.96px" height="71.28px" viewBox="0 0 126.96 71.28" enable-background="new 0 0 126.96 71.28" xml:space="preserve">
<g id="Layer_3_xA0_Image_1_">
	<g>
		<g>
			<path fill-rule="evenodd" clip-rule="evenodd" fill="#FEFEFE" d="M84,22.065c0-7,0.017-14-0.024-21
				c-0.004-0.759,0.205-0.842,0.879-0.841c13.92,0.022,27.841,0.025,41.761-0.007c0.758-0.001,0.842,0.205,0.841,0.878
				c-0.021,14-0.024,28,0.007,42c0.002,0.759-0.204,0.843-0.878,0.841c-13.92-0.021-27.84-0.024-41.76,0.008
				c-0.759,0.001-0.845-0.205-0.842-0.879C84.01,36.065,84,29.065,84,22.065z"/>
			<path fill-rule="evenodd" clip-rule="evenodd" fill="#385D36" d="M114.845,9.623c-2.383-0.144-4.525,0.26-6.369,1.703
				c-2.2,1.722-4.695,1.841-7.262,1.302c-4.208-0.884-7.906-2.952-11.519-5.182c-0.232-0.143-0.408-0.377-0.681-0.636
				c2.316-1.501,4.814-2.427,7.42-3.088c3.648-0.925,7.231-0.925,10.669,0.851c0.891,0.46,1.706,1.012,2.341,1.813
				c1.045,1.319,2.446,1.347,4.032,1.462c2.658,0.193,3.976-1.343,5.288-3.137c0.117-0.161,0.199-0.366,0.351-0.479
				c0.33-0.248,0.396-1.028,1.027-0.664c0.631,0.364,0.954,0.962,0.638,1.718c-0.575,1.375-1.657,2.417-2.449,3.651
				c-0.449,0.701-1.001,1.336-1.469,2.027c-0.526,0.778-0.82,1.63-0.565,2.583c0.239,0.894,0.055,1.817,0.272,2.731
				c0.288,1.203,0.813,2.194,1.929,2.706c1.502,0.69,2.004,1.8,2.053,3.411c0.141,4.676-0.159,9.286-1.515,13.79
				c-0.091,0.303-0.171,0.611-0.293,0.902c-0.432,1.027-1.004,1.128-1.6,0.218c-2.264-3.454-4.074-7.093-4.236-11.33
				c-0.07-1.846,0.23-3.648,1.005-5.335c0.934-2.035,0.903-4.175,0.748-6.325c-0.026-0.354,0.016-0.916-0.354-1.054
				c-0.373-0.14-0.729,0.261-0.98,0.549c-1.769,2.029-3.709,3.917-4.47,6.661c-0.514,1.854-2.298,2.647-4.172,2.098
				c-1.244-0.365-1.553-0.9-1.157-2.135c0.524-1.642,1.556-2.87,3.205-3.436c1.599-0.548,2.832-1.547,3.962-2.755
				c1.037-1.11,2.141-2.157,3.217-3.231C114.275,10.647,114.642,10.285,114.845,9.623z"/>
			<path fill-rule="evenodd" clip-rule="evenodd" fill="#FDFDFD" d="M90.918,7.007c1.748-0.235,3.388,0.113,5.033,0.146
				c3.144,0.063,6.287,0.176,9.43,0.295c0.751,0.028,1.502,0.14,2.247,0.253c0.413,0.063,0.838,0.319,0.779,0.743
				c-0.044,0.32-0.508,0.413-0.872,0.436c-2.243,0.142-4.426-0.414-6.643-0.582c-2.928-0.222-5.846-0.563-8.769-0.855
				C91.727,7.404,91.247,7.592,90.918,7.007z"/>
			<path fill-rule="evenodd" clip-rule="evenodd" fill="#FBFCFB" d="M117.313,33.838c-0.376-1.226-0.225-2.431-0.379-3.582
				c-0.382-2.838-0.568-5.702-0.869-8.552c-0.03-0.289-0.055-0.534,0.057-0.801c0.098-0.232,0.224-0.461,0.479-0.476
				c0.33-0.019,0.443,0.248,0.548,0.526c0.234,0.622,0.146,1.271,0.15,1.901C117.328,26.481,117.313,30.109,117.313,33.838z"/>
		</g>
	</g>
</g>
<g id="Group_1_1_">
	<g id="_x0D_词源标注计划">
		<text transform="matrix(1 0 0 1 1.6802 64.5503)" fill="#385D36" font-family="'NotoSansCJKsc-Light-GBpc-EUC-H'" font-size="20">词源标注计划</text>
	</g>
	<g id="APG_IV">
		<text transform="matrix(1 0 0 1 3.5981 38.3999)" fill="#385D36" font-family="'Roboto-Regular'" font-size="30">APG IV</text>
	</g>
</g>
</svg>
