<?xml version="1.0" standalone="no"?>
<!DOCTYPE svg PUBLIC "-//W3C//DTD SVG 20010904//EN"
 "http://www.w3.org/TR/2001/REC-SVG-20010904/DTD/svg10.dtd">
<svg version="1.0" xmlns="http://www.w3.org/2000/svg"
 width="482.000000pt" height="482.000000pt" viewBox="0 0 482.000000 482.000000"
 preserveAspectRatio="xMidYMid meet">
<metadata>
Created by potrace 1.11, written by Peter Selinger 2001-2013
</metadata>
<g transform="translate(0.000000,482.000000) scale(0.100000,-0.100000)"
fill="#000000" stroke="none">
<path d="M364 4801 c-164 -47 -300 -184 -345 -349 -18 -64 -19 -149 -19 -2042
0 -1893 1 -1978 19 -2042 46 -168 182 -303 350 -350 63 -17 157 -18 2041 -18
1893 0 1978 1 2042 19 169 46 309 188 353 356 13 52 15 292 15 2035 0 1884 -1
1978 -18 2041 -47 168 -182 304 -350 350 -64 18 -147 19 -2047 18 -1853 0
-1984 -2 -2041 -18z m1898 -596 c257 -51 509 -174 602 -294 62 -80 93 -106
161 -138 56 -26 68 -28 185 -28 174 1 350 15 381 31 31 15 89 82 249 282 63
78 116 142 119 142 3 0 21 -9 39 -20 37 -23 71 -88 72 -136 0 -49 -33 -102
-239 -388 -107 -148 -202 -285 -212 -306 -35 -72 -35 -144 2 -455 17 -151 92
-254 244 -338 85 -46 132 -99 156 -175 20 -62 23 -475 4 -731 -28 -391 -78
-665 -168 -915 -43 -121 -98 -148 -159 -77 -46 55 -165 254 -237 397 -100 201
-153 349 -193 541 -19 91 -23 138 -22 303 0 227 14 304 87 492 60 153 75 207
88 324 14 126 -3 449 -25 472 -21 21 -239 -202 -382 -391 -88 -117 -124 -184
-175 -331 -53 -153 -120 -227 -233 -260 -143 -42 -330 11 -352 100 -13 53 18
166 72 255 61 102 187 204 303 245 25 9 80 32 121 52 69 32 96 56 344 301 148
146 288 293 313 326 l44 60 -101 3 c-104 3 -193 -11 -325 -50 -89 -26 -126
-45 -239 -123 -167 -115 -254 -149 -412 -160 -249 -18 -563 56 -914 214 -201
91 -600 319 -663 379 l-37 36 37 24 c76 48 317 161 426 201 224 81 476 139
667 155 81 7 297 -4 372 -19z"/>
<path d="M968 3824 c-25 -25 22 -41 142 -48 52 -3 129 -10 170 -16 75 -9 202
-21 425 -40 66 -6 161 -15 210 -20 50 -5 140 -14 200 -21 61 -6 154 -17 209
-25 219 -31 430 -28 451 6 10 17 -18 59 -49 74 -37 17 -227 33 -486 41 -102 3
-241 10 -310 15 -69 5 -271 15 -450 21 -179 6 -365 13 -415 16 -49 3 -93 2
-97 -3z"/>
<path d="M3595 2416 c-21 -22 -25 -34 -25 -88 0 -35 5 -101 10 -148 24 -224
31 -281 40 -360 25 -204 47 -429 67 -687 5 -74 8 -83 26 -83 20 0 20 4 13 148
-17 345 -26 585 -32 862 -7 309 -13 348 -53 370 -18 9 -25 7 -46 -14z"/>
</g>
</svg>
