<?xml version="1.0" standalone="no"?>
<!DOCTYPE svg PUBLIC "-//W3C//DTD SVG 20010904//EN"
 "http://www.w3.org/TR/2001/REC-SVG-20010904/DTD/svg10.dtd">
<svg version="1.0" xmlns="http://www.w3.org/2000/svg"
 width="482.000000pt" height="482.000000pt" viewBox="0 0 482.000000 482.000000"
 preserveAspectRatio="xMidYMid meet">
<metadata>
Created by potrace 1.11, written by Peter Selinger 2001-2013
</metadata>
<g transform="translate(0.000000,482.000000) scale(0.100000,-0.100000)"
fill="#000000" stroke="none">
<path d="M350 4797 c-168 -57 -285 -178 -334 -346 -14 -49 -16 -252 -16 -2042
0 -1955 0 -1988 20 -2050 52 -168 180 -293 349 -343 49 -14 252 -16 2042 -16
1955 0 1988 0 2050 20 168 52 293 180 343 349 14 49 16 252 16 2041 0 1789 -2
1992 -16 2041 -50 169 -175 297 -343 349 -62 20 -95 20 -2055 20 l-1991 -1
-65 -22z m1776 -578 c201 -19 348 -64 539 -162 100 -52 168 -109 242 -204 70
-88 226 -136 382 -115 49 7 122 12 163 12 81 0 128 12 168 42 26 20 137 153
263 315 69 89 71 91 96 78 66 -34 101 -111 81 -178 -15 -50 -50 -101 -363
-529 -97 -133 -102 -146 -101 -273 1 -149 19 -339 38 -400 33 -106 109 -188
237 -256 75 -41 121 -93 145 -167 35 -109 18 -785 -27 -1072 -49 -313 -129
-606 -180 -661 -33 -35 -68 -37 -96 -7 -49 54 -216 341 -282 483 -207 445
-245 866 -111 1220 59 154 90 257 100 326 14 94 14 277 1 396 -12 100 -18 123
-33 123 -38 0 -182 -146 -349 -355 -111 -138 -148 -205 -203 -365 -53 -154
-99 -210 -210 -253 -71 -28 -191 -27 -267 2 -109 42 -127 91 -82 222 34 100
87 183 151 240 62 54 116 85 229 130 52 21 111 48 131 60 20 12 164 149 320
303 257 254 352 359 339 372 -14 14 -143 14 -232 0 -180 -29 -278 -66 -406
-152 -215 -145 -306 -177 -509 -177 -188 0 -311 23 -551 103 -148 50 -323 125
-459 196 -174 93 -475 272 -501 300 -24 25 -24 26 -4 40 39 29 271 143 375
184 227 91 450 147 690 175 150 17 149 17 276 4z"/>
<path d="M961 3821 c-9 -16 -6 -21 22 -31 17 -7 86 -16 152 -21 66 -5 156 -13
200 -19 44 -5 136 -14 205 -20 242 -19 509 -46 675 -67 66 -8 152 -19 190 -23
97 -13 292 -12 338 1 43 12 48 32 17 72 -30 38 -84 46 -375 57 -143 6 -349 17
-457 25 -109 8 -282 15 -385 15 -103 0 -237 4 -298 9 -268 23 -273 23 -284 2z"/>
<path d="M3593 2418 c-11 -13 -23 -34 -26 -47 -5 -22 3 -138 22 -316 5 -44 14
-127 21 -185 6 -58 13 -121 16 -140 13 -100 37 -341 49 -500 13 -171 15 -180
36 -180 17 0 19 7 19 78 -1 42 -5 165 -10 272 -5 107 -14 367 -20 578 -6 210
-15 394 -21 409 -10 27 -36 52 -55 53 -6 0 -20 -10 -31 -22z"/>
</g>
</svg>
